<svg width="527" height="401" viewBox="0 0 527 401" fill="none" xmlns="http://www.w3.org/2000/svg">
<g clip-path="url(#clip0_331_1452)">
<path d="M319.374 120.838C320.03 120.868 320.678 120.696 321.233 120.345C321.787 119.994 322.22 119.481 322.473 118.876C322.726 118.271 322.787 117.602 322.647 116.961C322.508 116.32 322.175 115.738 321.693 115.293C321.612 114.972 321.555 114.742 321.474 114.421C321.503 114.351 321.532 114.281 321.561 114.212C324.506 107.188 334.489 107.237 337.409 114.271C340.001 120.514 343.301 126.767 344.114 133.368C344.472 136.286 344.321 139.243 343.668 142.109C349.756 128.829 352.917 114.395 352.938 99.7857C352.939 96.1197 352.735 92.4565 352.328 88.8132C351.991 85.8265 351.523 82.861 350.925 79.9168C347.662 63.9418 340.656 48.9687 330.483 36.2271C325.559 33.5405 321.577 29.409 319.073 24.3895C318.166 22.5852 317.525 20.6591 317.17 18.6711C317.725 18.7439 319.264 10.2846 318.845 9.76554C319.619 8.59092 321.005 8.00703 321.85 6.86083C326.055 1.16038 331.848 2.15571 334.872 9.90218C341.332 13.1626 341.394 18.5698 337.43 23.7703C334.909 27.0789 334.562 31.5558 332.349 35.0979C332.577 35.3893 332.814 35.6716 333.041 35.963C337.203 41.314 340.83 47.06 343.87 53.1185C343.01 46.399 344.28 38.3038 346.445 33.0856C348.91 27.1399 353.529 22.1325 357.597 16.9925C362.484 10.8186 372.504 13.513 373.365 21.3394C373.373 21.4152 373.381 21.491 373.389 21.5667C372.785 21.9076 372.194 22.2694 371.615 22.6522C370.888 23.1379 370.324 23.8319 369.999 24.6433C369.673 25.4547 369.6 26.3456 369.789 27.1993C369.978 28.0529 370.42 28.8295 371.058 29.4274C371.697 30.0252 372.5 30.4164 373.364 30.5496L373.453 30.5632C373.238 32.741 372.857 34.8992 372.315 37.0193C377.534 57.2019 366.266 64.5529 350.179 64.8831C349.823 65.0652 349.477 65.2473 349.122 65.4204C352.177 74.0774 354.093 83.0949 354.822 92.246C355.235 97.645 355.211 103.068 354.75 108.463L354.777 108.272C355.943 102.273 359.143 96.8601 363.837 92.9472C370.81 87.2196 380.66 85.1105 388.182 80.5066C391.803 78.2904 396.443 81.1543 395.811 85.3523C395.801 85.4193 395.791 85.4863 395.78 85.5533C394.659 86.01 393.567 86.5361 392.511 87.1285C391.907 87.4695 391.316 87.8313 390.737 88.214C390.01 88.6998 389.447 89.3938 389.121 90.2052C388.795 91.0166 388.722 91.9075 388.911 92.7611C389.1 93.6148 389.543 94.3914 390.181 94.9893C390.819 95.5871 391.623 95.9783 392.487 96.1115L392.575 96.1251C392.639 96.1342 392.694 96.1433 392.757 96.1525C390.841 100.727 388.152 104.938 384.808 108.6C381.545 126.219 367.529 127.89 352.537 122.76H352.528C350.883 129.908 348.5 136.866 345.416 143.521H320.011C319.92 143.239 319.838 142.947 319.756 142.665C322.108 142.813 324.468 142.672 326.786 142.246C324.901 139.933 323.016 137.602 321.131 135.289C321.089 135.246 321.049 135.2 321.013 135.153C320.056 133.969 319.091 132.794 318.135 131.611L318.135 131.609C318.084 127.981 318.5 124.361 319.374 120.838L319.374 120.838Z" fill="#F2F2F2"/>
<path d="M400.943 55.8204C396.219 38.5979 434.319 23.8292 444.324 37.6985C445.715 35.7267 450.856 34.529 453.215 35.1339C455.574 35.7388 457.558 37.2509 459.494 38.7147C462.155 40.7592 464.913 42.8762 466.546 45.8159C468.192 48.7434 468.446 52.7356 466.232 55.276C464.478 57.2962 459.3 58.6028 456.663 59.1351C454.824 59.5101 453.276 59.8125 451.945 60.0303C450.736 58.2888 450.179 56.1773 450.372 54.0663C449.477 54.6705 448.726 55.4654 448.174 56.394C447.621 57.3227 447.282 58.362 447.179 59.4375C447.142 59.8851 462.046 114.722 462.046 114.722C460.255 115.742 458.372 116.588 456.421 117.251C452.561 111.352 449.605 104.91 447.65 98.1369C447.201 102.666 447.258 107.23 447.82 111.746C448.119 114.279 448.547 116.794 449.102 119.283C431.392 123.106 404.753 121.848 393.164 105.589C393.162 105.522 393.16 105.454 393.158 105.387C393.149 104.745 392.917 104.127 392.502 103.637C392.087 103.147 391.515 102.817 390.883 102.703C390.252 102.589 389.6 102.698 389.04 103.012C388.48 103.326 388.046 103.824 387.814 104.422C387.532 105.139 387.274 105.76 387.043 106.254C383.667 94.1811 388.035 80.2086 400.943 55.8204Z" fill="#2F2E41"/>
<path d="M370.806 344.562V345.126C370.784 344.939 370.784 344.749 370.806 344.562Z" fill="#2F2E41"/>
<path d="M388.148 247.094C388.599 246.972 389.057 246.883 389.52 246.828C388.989 246.914 388.531 247.003 388.148 247.094Z" fill="#2F2E41"/>
<path d="M387.748 247.196C387.87 247.162 388.005 247.128 388.149 247.094C388.015 247.129 387.886 247.155 387.748 247.196Z" fill="#2F2E41"/>
<path d="M515.887 400.998H450.969C450.043 400.258 449.399 399.223 449.146 398.066C448.893 396.908 449.046 395.698 449.579 394.64C451.352 390.573 447.877 386.856 447.877 386.856C446.698 385.474 445.877 383.822 445.489 382.047C445.101 380.272 445.157 378.428 445.652 376.68C447.372 370.673 440.632 353.717 440.632 353.717C440.632 353.717 436.998 375.611 432.546 400.998H370.806C369.772 399.236 369.227 397.23 369.227 395.187C369.227 393.144 369.772 391.139 370.806 389.377C374.404 383.276 370.806 382.106 370.806 382.106C370.806 382.106 367.208 375.279 370.806 370.323C374.404 365.366 370.806 345.126 370.806 345.126C370.942 346.021 371.967 344.394 373.545 340.983C375.947 335.793 379.619 326.459 383.329 315.623C385.981 307.889 388.654 299.38 390.889 291.061H390.894C391.48 288.875 392.035 286.709 392.559 284.563C393.584 280.355 394.463 276.266 395.13 272.426C396.578 264.155 397.055 257.051 395.943 252.43C395.021 248.585 393.004 246.464 389.522 246.828C391.388 246.519 394.121 246.226 397.489 245.949C398.096 245.9 398.726 245.851 399.376 245.797C424.497 243.899 478.395 242.809 478.395 242.809L494.904 272.372L515.811 309.82C515.811 309.82 515.241 360.057 515.887 400.998Z" fill="#2F2E41"/>
<path d="M446.594 115.033L408.56 106.965L401.008 122.166L375.577 136.89C375.577 136.89 391.97 203.916 391.876 213.343C391.639 237.277 353.344 290.928 382.269 286.801C411.194 282.673 417.07 265.385 426.356 268.119C434.73 270.584 444.956 281.551 451.802 273.708C458.648 265.864 461.059 274.921 465.388 275.234C467.445 275.383 466.206 265.33 471.382 275.547C476.558 285.764 504.005 272.011 494.703 262.708C479.209 247.215 476.061 133.005 476.061 133.005L458.814 127.698L446.594 115.033Z" fill="#6C63FF"/>
<path d="M374.858 358.445C376.386 356.623 377.143 354.276 376.967 351.904C376.791 349.533 375.697 347.323 373.917 345.745C373.551 345.431 373.158 345.147 372.744 344.896L379.104 313.686L364.403 304.887L360.313 348.583C359.409 350.379 359.124 352.424 359.504 354.398C359.883 356.373 360.906 358.166 362.412 359.499C363.276 360.249 364.28 360.821 365.365 361.183C366.45 361.545 367.597 361.69 368.738 361.609C369.879 361.528 370.994 361.223 372.017 360.712C373.041 360.2 373.953 359.492 374.703 358.628C374.756 358.568 374.807 358.507 374.858 358.445Z" fill="#A0616A"/>
<path d="M420.504 193.933C420.412 192.93 419.132 192.475 417.359 191.845C415.577 191.297 413.884 190.495 412.331 189.465C408.405 186.628 409.95 183.662 412.087 179.562C412.505 178.764 412.939 177.935 413.345 177.072C414.555 174.518 412.629 163.98 407.613 145.747C406.067 140.134 406.073 136.169 405.004 133.539C403.941 130.909 401.81 129.612 396.001 129.341C388.981 128.987 382.106 131.43 376.884 136.137C376.743 136.261 376.597 136.397 376.456 136.527C376.19 136.777 375.929 137.032 375.675 137.292C370.846 142.15 368.082 148.687 367.963 155.536L367.935 156.702L366.737 212.411L363.369 261.297L358.727 328.639L362.165 328.807L375.886 329.49L377.551 329.572L381.499 313.009L386.25 293.078L387.996 285.756L393.414 263.043L395.942 252.43L397.487 245.949L398.116 243.302L401.186 230.438C401.257 230.167 408.318 202.307 416.458 197.648C419.495 195.913 420.591 194.904 420.504 193.933Z" fill="#6C63FF"/>
<path d="M511.841 358.113C510.126 356.466 509.122 354.214 509.042 351.837C508.961 349.46 509.812 347.146 511.412 345.386C511.743 345.034 512.103 344.709 512.487 344.416L502.812 314.069L516.484 303.742L525.242 346.746C526.334 348.435 526.837 350.437 526.672 352.441C526.507 354.445 525.682 356.338 524.328 357.824C523.549 358.663 522.613 359.339 521.573 359.816C520.533 360.292 519.409 360.559 518.265 360.602C517.122 360.644 515.981 360.46 514.909 360.062C513.836 359.663 512.853 359.057 512.014 358.278C511.956 358.224 511.898 358.169 511.841 358.113Z" fill="#A0616A"/>
<path d="M518.529 292.264C518.529 292.264 507.867 254.749 511.118 250.688C514.37 246.626 504.766 245.833 508.905 238.27C513.043 230.706 507.331 229.441 507.331 229.441L504.232 212.051L498.69 169.335L498.522 168.065L496.91 155.638C496.46 152.088 495.298 148.666 493.495 145.576C491.692 142.485 489.285 139.79 486.416 137.651C486.27 137.539 486.12 137.432 485.97 137.324C485.288 136.833 484.591 136.378 483.879 135.959C478.56 132.821 472.313 131.634 466.214 132.603C454.721 134.393 458.298 138.679 456.434 150.161C453.405 168.83 452.619 179.511 454.096 181.924C454.593 182.737 455.116 183.514 455.614 184.261C458.181 188.113 460.036 190.892 456.434 194.14C454.999 195.327 453.403 196.304 451.693 197.041C450 197.861 448.775 198.449 448.791 199.456C448.81 200.432 450.007 201.314 453.211 202.712C457.093 204.411 461.263 210.834 464.678 217.396C467.388 222.685 469.805 228.12 471.918 233.674L501.273 316.234L506.061 329.698L507.712 329.437L521.276 327.287L524.677 326.748L518.529 292.264Z" fill="#6C63FF"/>
<path d="M430.548 106.395C447.685 106.395 461.578 92.5024 461.578 75.3648C461.578 58.2273 447.685 44.3345 430.548 44.3345C413.41 44.3345 399.518 58.2273 399.518 75.3648C399.518 92.5024 413.41 106.395 430.548 106.395Z" fill="#A0616A"/>
<path d="M384.007 58.2399C379.283 41.0173 417.383 26.2487 427.388 40.118C428.779 38.1462 433.921 36.9485 436.28 37.5534C438.639 38.1583 440.623 39.6704 442.558 41.1342C445.22 43.1787 447.978 45.2957 449.611 48.2354C451.256 51.1629 451.51 55.1551 449.296 57.6955C447.542 59.7158 442.365 61.0223 439.727 61.5546C437.889 61.9296 436.34 62.232 435.009 62.4498C433.801 60.7083 433.244 58.5968 433.437 56.4858C432.541 57.09 431.79 57.8849 431.238 58.8135C430.686 59.7422 430.346 60.7815 430.243 61.857C430.207 62.3046 445.111 117.142 445.111 117.142C443.32 118.161 441.436 119.008 439.485 119.67C435.626 113.772 432.67 107.329 430.715 100.556C430.265 105.085 430.322 109.65 430.884 114.166C431.183 116.698 431.611 119.214 432.166 121.703C414.456 125.525 387.818 124.267 376.228 108.008C376.226 107.941 376.224 107.874 376.223 107.806C376.213 107.165 375.982 106.546 375.567 106.056C375.152 105.567 374.579 105.237 373.948 105.123C373.316 105.009 372.664 105.118 372.104 105.431C371.544 105.745 371.111 106.244 370.878 106.842C370.597 107.559 370.338 108.18 370.107 108.674C366.732 96.6006 371.099 82.6281 384.007 58.2399Z" fill="#2F2E41"/>
<path d="M230.116 165.463C229.461 165.493 228.812 165.321 228.258 164.97C227.704 164.619 227.271 164.106 227.018 163.501C226.764 162.896 226.704 162.228 226.843 161.587C226.983 160.946 227.316 160.363 227.797 159.918C227.878 159.597 227.936 159.367 228.017 159.046C227.988 158.976 227.959 158.907 227.93 158.837C224.984 151.814 215.002 151.862 212.081 158.896C209.489 165.139 206.189 171.392 205.376 177.993C205.019 180.911 205.17 183.869 205.823 186.735C199.735 173.454 196.573 159.02 196.553 144.411C196.552 140.745 196.755 137.082 197.163 133.438C197.5 130.452 197.967 127.486 198.565 124.542C201.828 108.567 208.834 93.5939 219.008 80.8523C223.932 78.1657 227.914 74.0342 230.417 69.0147C231.324 67.2104 231.965 65.2843 232.321 63.2963C231.765 63.3691 230.226 54.9097 230.645 54.3907C229.871 53.2161 228.486 52.6322 227.64 51.486C223.436 45.7856 217.643 46.7809 214.619 54.5274C208.159 57.7878 208.096 63.195 212.06 68.3955C214.582 71.7041 214.928 76.181 217.141 79.7231C216.913 80.0145 216.677 80.2968 216.449 80.5882C212.288 85.9392 208.661 91.6852 205.62 97.7437C206.48 91.0242 205.21 82.929 203.045 77.7108C200.581 71.7651 195.961 66.7577 191.893 61.6177C187.007 55.4438 176.987 58.1382 176.126 65.9646C176.117 66.0404 176.109 66.1162 176.101 66.1919C176.706 66.5327 177.297 66.8946 177.876 67.2773C178.603 67.7631 179.166 68.4571 179.492 69.2685C179.818 70.0799 179.891 70.9708 179.702 71.8244C179.513 72.6781 179.07 73.4547 178.432 74.0526C177.794 74.6504 176.99 75.0416 176.126 75.1748L176.038 75.1884C176.253 77.3662 176.633 79.5244 177.176 81.6445C171.957 101.827 183.224 109.178 199.312 109.508C199.667 109.69 200.013 109.872 200.368 110.046C197.314 118.703 195.397 127.72 194.668 136.871C194.255 142.27 194.28 147.694 194.741 153.089L194.714 152.897C193.548 146.898 190.348 141.485 185.653 137.572C178.681 131.845 168.83 129.736 161.308 125.132C157.687 122.916 153.047 125.78 153.679 129.977C153.689 130.044 153.7 130.111 153.71 130.179C154.831 130.635 155.923 131.161 156.979 131.754C157.583 132.095 158.175 132.457 158.754 132.839C159.481 133.325 160.044 134.019 160.37 134.83C160.696 135.642 160.769 136.533 160.58 137.386C160.39 138.24 159.948 139.017 159.31 139.614C158.672 140.212 157.868 140.603 157.004 140.737L156.915 140.75C156.852 140.759 156.797 140.769 156.733 140.778C158.649 145.352 161.338 149.563 164.683 153.225C167.946 170.844 181.961 172.516 196.954 167.385H196.963C198.608 174.533 200.991 181.491 204.074 188.146H229.479C229.571 187.864 229.653 187.572 229.735 187.29C227.383 187.438 225.022 187.297 222.705 186.871C224.59 184.558 226.475 182.227 228.36 179.914C228.402 179.871 228.441 179.826 228.478 179.778C229.434 178.594 230.399 177.419 231.355 176.236L231.356 176.234C231.407 172.606 230.99 168.986 230.117 165.463L230.116 165.463Z" fill="#F2F2F2"/>
<path d="M111.573 37.6992C110.996 39.0429 93.2174 38.8989 92.4032 40.0954C86.1251 49.3328 108.756 88.6359 102.478 97.8854L101.604 98.9277C103.652 97.9838 105.619 96.8739 107.486 95.6089C107.654 91.8229 107.822 88.0249 108.002 84.2389C109.882 86.6445 111.4 89.3126 112.506 92.1584C113.968 91.128 115.167 89.2179 121.432 85.461C123.969 82.6747 126.893 80.2677 130.115 78.314L111.573 37.6992Z" fill="#2F2E41"/>
<path d="M124.483 113.405C122.521 112.127 120.283 111.335 117.953 111.096C115.624 110.856 113.271 111.175 111.09 112.027C108.909 112.878 106.962 114.238 105.412 115.992C103.861 117.747 102.752 119.846 102.175 122.115L75.1571 192.512L28.7169 166.147C28.513 163.116 27.3546 160.228 25.4078 157.897C23.461 155.565 20.8259 153.91 17.8804 153.169C14.9349 152.428 11.8302 152.639 9.01183 153.771C6.19343 154.903 3.80602 156.899 2.19202 159.472C0.578022 162.045 -0.179646 165.063 0.0276857 168.094C0.235017 171.124 1.3967 174.011 3.34611 176.34C5.29553 178.669 7.93252 180.321 10.8789 181.059C13.8253 181.797 16.9296 181.583 19.7467 180.447C29.5266 190.885 71.9261 233.681 89.4791 216.96C104.233 202.904 125.525 148.432 130.651 129.622C131.472 126.614 131.317 123.423 130.209 120.509C129.1 117.595 127.095 115.107 124.483 113.405Z" fill="#FFB6B6"/>
<path d="M73.752 219.909L82.2779 258.445L144.622 264.085L150.352 230.53L73.752 219.909Z" fill="#FFB6B6"/>
<path d="M168.984 318.73C168.956 319.283 168.922 319.829 168.882 320.382C168.284 328.367 167.6 337.576 166.86 347.668C165.692 363.683 164.388 381.919 163.073 400.998H32.3047L57.6657 324.769C57.6657 324.769 67.906 319.131 62.6925 309.66C57.4791 300.189 67.7372 307.737 67.8327 294.21C67.9281 280.684 77.1204 266.294 77.1204 266.294L78.6296 245.814L79.4896 245.831L147.542 246.965L148.783 246.988L150.873 264.569C163.564 279.67 170.039 299.032 168.984 318.73Z" fill="#2F2E41"/>
<path d="M112.663 94.7295L143.695 93.131L158.109 115.906C158.109 115.906 185.228 120.44 183.348 152.397C181.468 184.353 150.352 212.395 150.352 212.395L151.682 207.835L149.372 214.436L149.668 218.142L152.82 222.067L153.144 226.127L150.352 232.549C150.715 233.131 150.908 233.803 150.908 234.489C150.909 235.175 150.717 235.848 150.355 236.43C149.992 237.013 149.474 237.482 148.858 237.785C148.243 238.088 147.555 238.212 146.872 238.143L102.034 233.65C101.013 230.842 100.194 227.482 96.1019 233.075L91.878 232.666L74.3194 230.965L73.2859 227.2C72.6987 225.061 72.6071 222.816 73.0183 220.636C73.4295 218.456 74.3325 216.399 75.6586 214.62C74.1335 209.844 74.5329 204.662 76.772 200.176L76.8559 200.008L78.7206 198.454C78.7206 198.454 58.3208 167.806 81.7391 144.722L91.1382 128.744L101.655 115.913L112.663 94.7295Z" fill="#6C63FF"/>
<path d="M120.386 81.2854C136.638 81.2854 149.812 68.1107 149.812 51.8587C149.812 35.6068 136.638 22.432 120.386 22.432C104.134 22.432 90.959 35.6068 90.959 51.8587C90.959 68.1107 104.134 81.2854 120.386 81.2854Z" fill="#FFB6B6"/>
<path d="M142.736 94.2501C140.34 92.2478 138.672 89.5101 137.992 86.4623C137.448 90.1628 137.59 93.9318 138.411 97.5808C136.818 98.7789 135.272 99.9171 133.811 100.947C132.704 98.1017 131.186 95.4335 129.306 93.028C129.126 96.814 128.958 100.612 128.79 104.398C126.923 105.663 124.956 106.773 122.908 107.717L123.782 106.674C130.06 97.425 113.814 80.3999 120.092 71.1624C121.853 68.5745 113.898 48.1228 107.835 47.2002C102.444 46.3855 102.672 47.943 97.4479 49.0813C96.9053 46.8188 96.0632 44.639 94.9438 42.5994C95.2418 44.8721 95.173 47.1778 94.7401 49.4287C92.8831 49.5006 91.422 48.3173 89.4445 48.0149C76.8284 46.086 78.1103 32.4395 81.6208 28.1143C85.1433 23.8011 96.8368 22.5072 102.228 21.1053C102.72 20.6261 103.834 20.9256 104.325 20.4703C114.658 11.0142 128.477 9.44821 140.912 13.6394C154.174 18.1089 162.443 26.7595 166.687 40.0954L167.904 50.7675C168.996 54.199 167.622 70.1651 166.687 73.6425C163.05 87.1597 155.306 80.4119 142.736 94.2501Z" fill="#2F2E41"/>
<path d="M185.642 233.666L184.484 143.44C184.423 139.618 182.862 135.972 180.138 133.29C177.413 130.609 173.744 129.106 169.921 129.106C167.943 129.106 165.986 129.508 164.169 130.289C162.352 131.07 160.713 132.213 159.353 133.648C157.992 135.083 156.937 136.78 156.254 138.636C155.57 140.492 155.272 142.468 155.377 144.442L159.453 238.129L159.531 295.16C157.128 296.179 155.097 297.913 153.714 300.126C152.331 302.339 151.663 304.925 151.801 307.531C151.938 310.137 152.875 312.638 154.483 314.693C156.091 316.749 158.293 318.259 160.79 319.019C163.287 319.78 165.957 319.753 168.438 318.943C170.919 318.133 173.09 316.579 174.657 314.492C176.224 312.405 177.11 309.886 177.196 307.278C177.281 304.669 176.562 302.098 175.135 299.912L185.642 233.666Z" fill="#FFB6B6"/>
<path d="M337.517 350.398C337.517 350.398 335.725 382.622 334.902 401H273.219C271.949 384.275 271.522 371.987 271.522 371.987L268.147 401H205.797L201.932 347.268L220.611 300.964C220.611 300.964 321.841 293.944 331.231 302.85C340.615 311.75 337.517 350.398 337.517 350.398Z" fill="#2F2E41"/>
<path d="M282.971 79.3232C301.579 79.3232 316.664 64.2382 316.664 45.63C316.664 27.0218 301.579 11.9368 282.971 11.9368C264.362 11.9368 249.277 27.0218 249.277 45.63C249.277 64.2382 264.362 79.3232 282.971 79.3232Z" fill="#FFB6B6"/>
<path d="M322.244 34.6818C318.783 36.2598 316.541 47.6887 313.821 45.0317C311.101 42.3748 311.282 38.9171 307.615 37.9365C304.653 37.1413 301.466 38.0502 298.765 39.4835C298.283 39.7365 297.815 40.0115 297.359 40.285C297.059 40.084 296.759 39.8948 296.438 39.7203C294.022 38.4273 291.201 38.11 288.558 38.834C290.647 39.5336 292.463 40.872 293.749 42.66C292.845 43.2658 291.929 43.8732 290.992 44.4115C283.167 48.9273 272.032 39.1078 263.795 35.4189C268.955 45.1007 266.414 49.1104 261.935 59.1234L261.78 59.6935C262.034 57.184 254.269 55.3138 254.719 58.8465C255.039 61.3547 257.209 66.9298 258.425 69.1443C249.765 59.1309 243.847 46.8771 245.096 34.2364C245.368 31.581 245.286 28.7792 246.655 26.4745C248.027 24.1816 250.885 22.5726 253.414 23.4469C253.2 19.4157 254.082 15.4017 255.966 11.8317C257.851 8.26177 260.668 5.26926 264.118 3.17237C267.568 1.07548 271.521 -0.0474304 275.558 -0.0769772C279.595 -0.106524 283.564 0.958401 287.044 3.00457C290.278 4.902 292.977 7.58556 295.941 9.90035C298.905 12.2151 302.321 14.2328 306.079 14.4239C308.463 14.5389 311.058 13.9569 313.106 15.1916C315.478 16.6244 315.885 19.6242 316.241 22.5107C314.125 22.7194 312.119 23.5542 310.479 24.9085C312.669 24.6852 314.873 25.158 316.779 26.2597C316.815 26.276 316.849 26.2957 316.882 26.3183C318.136 31.0888 318.008 32.1463 322.244 34.6818Z" fill="#2F2E41"/>
<path d="M205.947 317.265C234.64 283.68 224.948 240.962 213.56 197.841L215.727 134.138C215.834 131.013 216.69 127.96 218.225 125.235C219.76 122.511 221.927 120.196 224.545 118.486L253.836 99.3504L265.237 82.8668L296.663 86.0094L314.09 104.439L333.38 119.165C338.223 122.863 341.908 127.868 344.001 133.591C346.094 139.313 346.507 145.515 345.191 151.465L326.731 234.946C326.731 234.946 334.452 278.223 329.741 283.002C325.03 287.782 312.891 283.005 322.518 288.37C334.07 294.809 344.574 293.621 338.728 299.467C332.882 305.313 340.28 313.44 340.28 313.44L205.947 317.265Z" fill="#6C63FF"/>
<path d="M218.213 366.076L222.997 331.997L203.91 326.548L200.135 362.758C198.555 364.207 197.411 366.067 196.831 368.13C196.25 370.193 196.257 372.377 196.85 374.436C197.443 376.496 198.598 378.349 200.187 379.788C201.775 381.226 203.733 382.194 205.841 382.58C207.949 382.967 210.123 382.758 212.119 381.977C214.114 381.196 215.853 379.874 217.138 378.159C218.424 376.445 219.205 374.405 219.395 372.271C219.585 370.136 219.176 367.991 218.213 366.076Z" fill="#FFB6B6"/>
<path d="M254.552 105.494C254.552 105.494 200.223 123.176 198.928 136.114C197.632 149.051 198.062 156.972 192.328 208.743L192.63 348.202C192.63 348.202 229.054 356 225.319 347.662C221.583 339.324 222.887 335.401 222.887 335.401C222.887 335.401 230.696 332.32 228.741 322.529C226.786 312.739 236.59 264.223 236.59 264.223L242.777 177.211L254.552 105.494Z" fill="#6C63FF"/>
<path d="M321.54 364.271L318.994 329.952L338.396 325.763L339.796 362.143C341.278 363.691 342.298 365.622 342.742 367.719C343.187 369.815 343.037 371.994 342.311 374.01C341.585 376.026 340.31 377.8 338.631 379.132C336.952 380.464 334.935 381.301 332.807 381.549C330.678 381.797 328.522 381.447 326.582 380.537C324.642 379.627 322.993 378.194 321.823 376.399C320.652 374.604 320.006 372.518 319.956 370.375C319.906 368.233 320.454 366.119 321.54 364.271Z" fill="#FFB6B6"/>
<path d="M302.312 101.871C302.312 101.871 355.369 123.066 355.816 136.061C356.263 149.056 355.317 156.931 357.654 208.967L348.237 348.108C348.237 348.108 311.381 353.508 315.654 345.432C319.926 337.356 318.882 333.357 318.882 333.357C318.882 333.357 311.291 329.771 313.881 320.13C316.472 310.488 309.861 261.435 309.861 261.435L309.374 174.204L302.312 101.871Z" fill="#6C63FF"/>
</g>
<defs>
<clipPath id="clip0_331_1452">
<rect width="526.702" height="401" fill="white"/>
</clipPath>
</defs>
</svg>
