<svg width="884" height="654" viewBox="0 0 884 654" fill="none" xmlns="http://www.w3.org/2000/svg">
<g clip-path="url(#clip0_331_1522)">
<path d="M627.471 479.671H151.425C147.183 479.666 143.116 477.978 140.117 474.976C137.118 471.974 135.431 467.905 135.426 463.66V75.728C135.431 71.483 137.118 67.4133 140.117 64.4116C143.116 61.41 147.183 59.7215 151.425 59.7166H627.471C631.712 59.7215 635.779 61.41 638.778 64.4116C641.777 67.4133 643.465 71.483 643.47 75.728V463.66C643.465 467.905 641.777 471.974 638.778 474.976C635.779 477.978 631.712 479.666 627.471 479.671Z" fill="#E6E6E6"/>
<path d="M162.218 71.1133C158.132 71.118 154.215 72.7446 151.325 75.6361C148.436 78.5276 146.811 82.4479 146.807 86.537V452.86C146.811 456.949 148.437 460.869 151.326 463.76C154.215 466.652 158.132 468.278 162.218 468.283H488.052C526.24 468.239 562.851 453.038 589.854 426.014C616.857 398.99 632.046 362.35 632.089 324.132V86.537C632.085 82.4479 630.46 78.5276 627.571 75.6361C624.681 72.7446 620.764 71.1181 616.678 71.1133L162.218 71.1133Z" fill="white"/>
<path d="M540.663 235.865H454.345C452.545 235.863 450.819 235.146 449.546 233.872C448.273 232.598 447.557 230.871 447.555 229.069V186.073C447.557 184.271 448.273 182.544 449.546 181.27C450.819 179.996 452.545 179.279 454.345 179.277H540.663C542.464 179.279 544.19 179.996 545.463 181.27C546.736 182.544 547.452 184.271 547.454 186.073C552.795 201.288 553.553 215.746 547.454 229.069C547.452 230.871 546.736 232.598 545.463 233.872C544.19 235.146 542.464 235.863 540.663 235.865Z" fill="#E6E6E6"/>
<path d="M530.437 231.71H457.101C455.572 231.708 454.105 231.099 453.024 230.017C451.942 228.935 451.334 227.467 451.332 225.936V189.406C451.334 187.876 451.942 186.408 453.024 185.326C454.105 184.243 455.572 183.635 457.101 183.633H530.437C531.967 183.635 533.433 184.243 534.515 185.326C535.596 186.408 536.205 187.876 536.207 189.406C541.156 202.416 541.952 214.727 536.207 225.936C536.205 227.467 535.596 228.935 534.515 230.017C533.433 231.099 531.967 231.708 530.437 231.71Z" fill="white"/>
<path d="M526.481 258.388H468.334C466.623 258.39 464.982 257.713 463.77 256.504C462.559 255.296 461.876 253.655 461.873 251.944C461.87 250.232 462.546 248.589 463.753 247.376C464.96 246.163 466.599 245.479 468.31 245.475H526.481C528.19 245.478 529.828 246.16 531.035 247.37C532.243 248.581 532.92 250.221 532.92 251.932C532.92 253.642 532.243 255.282 531.035 256.493C529.828 257.703 528.19 258.385 526.481 258.388Z" fill="#E6E6E6"/>
<path d="M487.386 193.496C486.717 193.499 486.076 193.766 485.603 194.24C485.131 194.713 484.865 195.355 484.863 196.024V223.392C484.863 223.833 484.979 224.268 485.199 224.651C485.42 225.034 485.736 225.352 486.118 225.574C486.5 225.796 486.933 225.914 487.375 225.916C487.817 225.918 488.251 225.803 488.635 225.584L512.771 211.811C513.159 211.59 513.481 211.27 513.705 210.884C513.929 210.497 514.046 210.058 514.045 209.611C514.044 209.165 513.924 208.726 513.698 208.341C513.472 207.956 513.148 207.638 512.759 207.419L488.624 193.824C488.246 193.61 487.82 193.497 487.386 193.496Z" fill="#E6E6E6"/>
<path d="M839.52 601.639C838.189 599.945 836.381 598.689 834.33 598.033C832.279 597.377 830.078 597.351 828.012 597.958L827.56 598.092L823.507 613.927C822.9 611.567 821.601 606.239 820.782 601.025L820.711 600.594L820.309 600.77C816.072 602.644 812.089 605.047 808.455 607.921C802.015 613.09 796.778 619.601 793.107 627C789.436 634.4 787.419 642.511 787.196 650.769L787.189 651.073L787.182 651.264L787.718 651.073L799.234 646.953C804.332 647.403 809.467 646.708 814.262 644.918C819.058 643.128 823.393 640.29 826.953 636.609C831.606 631.698 834.797 625.381 837.882 619.269C838.786 617.488 839.711 615.651 840.657 613.885C841.712 611.964 842.168 609.77 841.966 607.588C841.763 605.405 840.911 603.333 839.52 601.639Z" fill="#F2F2F2"/>
<path d="M545.448 197.83C545.679 199.029 546.17 200.162 546.886 201.151C547.602 202.139 548.526 202.958 549.592 203.55C550.659 204.143 551.843 204.494 553.059 204.579C554.276 204.664 555.497 204.481 556.636 204.042L591.052 244.11L595.409 229.319L561.288 192.661C560.426 190.796 558.91 189.311 557.027 188.49C555.145 187.668 553.026 187.566 551.074 188.204C549.121 188.841 547.47 190.173 546.433 191.947C545.396 193.721 545.045 195.815 545.448 197.83Z" fill="#FFB8B8"/>
<path d="M684.151 641.494H672.762L667.344 597.528H684.154L684.151 641.494Z" fill="#FFB6B6"/>
<path d="M683.847 637.771L671.687 632.821L671.339 632.678L664.625 637.771C660.834 637.772 657.198 639.279 654.517 641.962C651.837 644.645 650.331 648.283 650.33 652.077V652.542H687.053V637.771H683.847Z" fill="#2F2E41"/>
<path d="M765.399 641.494H754.01L748.592 597.528H765.402L765.399 641.494Z" fill="#FFB6B6"/>
<path d="M765.097 637.771L752.937 632.821L752.589 632.678L745.875 637.771C742.084 637.772 738.448 639.279 735.767 641.962C733.087 644.645 731.581 648.283 731.58 652.077V652.542H768.303V637.771H765.097Z" fill="#2F2E41"/>
<path d="M738.52 378.95C738.52 378.95 752.805 393.824 752.805 406.045C752.805 418.266 749.234 435.047 752.805 438.719C756.377 442.392 760.841 446.86 755.484 452.221C750.127 457.582 747.448 460.263 751.02 463.837C754.591 467.412 752.805 529.96 752.805 529.96L771.555 613.954H747.933L717.985 529.96L709.949 460.263L683.962 527.279L686.831 614.674L662.136 613.953L651.914 521.024C651.914 521.024 667.092 432.626 664.414 430.361C661.735 428.095 664.414 423.522 664.414 423.522L671.557 389.673L738.52 378.95Z" fill="#2F2E41"/>
<path d="M710.55 273.494C710.55 273.494 715.407 254.338 693.029 248.846C670.65 243.354 606.681 236.298 606.681 236.298L574.353 201.966L563.398 217.887L599.639 262.958L685.509 280.61L710.55 273.494Z" fill="#3F3D56"/>
<path d="M568.723 216.714C569.727 215.412 570.513 213.955 571.049 212.401L575.685 201L574.482 200.95C572.817 200.636 571.104 200.679 569.456 201.074C567.808 201.469 566.262 202.208 564.92 203.243C563.577 204.278 562.468 205.585 561.666 207.078C560.863 208.572 560.385 210.219 560.263 211.91C560.111 213.373 560.373 214.85 561.02 216.17C561.35 216.825 561.829 217.393 562.42 217.826C563.011 218.26 563.696 218.547 564.419 218.665C565.24 218.709 566.06 218.554 566.809 218.215C567.558 217.875 568.215 217.36 568.723 216.714Z" fill="#E6E6E6"/>
<path d="M666.997 394.238L664.318 413.67C664.318 413.67 669.675 419.428 672.354 418.708C675.033 417.988 684.854 413.799 684.854 413.799C684.854 413.799 696.461 420.147 702.711 420.867C708.961 421.587 741.996 417.269 742.889 415.109C743.781 412.95 754.159 404.498 754.159 404.498L750.031 379.844L666.997 394.238Z" fill="#E6E6E6"/>
<path d="M753.988 326.258C753.988 326.258 751.72 344.995 753.506 346.72C755.292 348.436 751.72 359.292 748.149 366.441C744.577 373.589 750.827 374.483 750.827 379.844C750.827 385.205 753.506 404.863 753.506 404.863C753.506 404.863 725.828 406.65 721.364 402.183C716.899 397.715 709.757 401.289 699.935 411.118C690.114 420.947 668.784 412.905 664.32 408.437C659.856 403.97 667.793 387.886 670.471 384.767C673.15 381.649 667.891 385.259 665.213 375.376C662.534 365.493 667.793 366.441 672.257 361.973C676.721 357.505 672.257 349.463 668.686 341.421C665.114 333.379 667.793 273.512 667.793 259.215C667.793 244.918 687.435 243.131 687.435 243.131L695.212 233.347L700.926 226.154L712.123 225.707L712.417 225.698L723.247 225.26L728.506 231.39L740.113 244.918L753.506 247.599C764.22 251.173 761.541 273.512 761.541 273.512L753.988 326.258Z" fill="#3F3D56"/>
<path d="M711.57 221.831C724.245 221.831 734.521 211.547 734.521 198.862C734.521 186.176 724.245 175.893 711.57 175.893C698.894 175.893 688.619 186.176 688.619 198.862C688.619 211.547 698.894 221.831 711.57 221.831Z" fill="#FFB6B6"/>
<path d="M738.181 191.135C731.868 187.26 732.677 177.13 726.595 173.593C723.572 171.848 720.173 170.861 716.686 170.715C713.2 170.568 709.73 171.267 706.572 172.751C702.288 170.917 697.155 172.38 693.728 175.693C690.301 179.005 688.445 183.891 687.899 188.805C687.504 193.742 687.858 198.711 688.949 203.542C689.29 201.601 689.63 199.66 689.97 197.719L708.063 193.762C706.462 195.202 704.86 196.642 703.258 198.082C711.453 199.949 720.05 198.604 727.284 194.322C735.16 197.856 733.733 205.792 726.818 216.324C729.497 220.792 745.374 195.549 738.181 191.135Z" fill="#2F2E41"/>
<path d="M728.505 231.39C728.454 231.431 728.4 231.47 728.344 231.506C726.453 232.635 724.288 233.222 722.086 233.204C719.203 233.444 716.341 232.546 714.112 230.702C712.943 229.594 708.291 231.935 705.238 233.23C702.035 234.559 698.444 234.6 695.211 233.346L700.925 226.153L710.343 224.064H712.694L723.246 225.26L728.505 231.39Z" fill="#E6E6E6"/>
<path d="M882.607 653.638L563.136 654C562.952 654.001 562.77 653.966 562.599 653.896C562.429 653.827 562.274 653.724 562.144 653.595C562.013 653.465 561.909 653.312 561.838 653.142C561.767 652.972 561.729 652.79 561.729 652.606C561.728 652.422 561.763 652.24 561.832 652.07C561.902 651.899 562.004 651.744 562.133 651.614C562.263 651.483 562.416 651.379 562.586 651.308C562.755 651.236 562.937 651.199 563.121 651.198H563.136L882.607 650.837C882.977 650.839 883.332 650.987 883.593 651.249C883.854 651.512 884 651.867 884 652.238C884 652.608 883.854 652.963 883.593 653.226C883.332 653.488 882.977 653.637 882.607 653.638Z" fill="#CACACA"/>
<path d="M500.084 183.18H497.732V14.8843H590.202V17.2374H500.084V183.18Z" fill="#3F3D56"/>
<path d="M662.118 0H599.81C595.757 0 591.87 1.61144 589.004 4.47981C586.138 7.34817 584.527 11.2385 584.527 15.295C584.527 19.3515 586.138 23.2418 589.004 26.1102C591.87 28.9786 595.757 30.59 599.81 30.59H662.118C666.171 30.59 670.058 28.9786 672.924 26.1102C675.79 23.2418 677.4 19.3515 677.4 15.295C677.4 11.2385 675.79 7.34817 672.924 4.47981C670.058 1.61144 666.171 0 662.118 0Z" fill="#0D9D58"/>
<path d="M497.544 198.576C505.3 198.576 511.587 192.284 511.587 184.522C511.587 176.759 505.3 170.467 497.544 170.467C489.788 170.467 483.5 176.759 483.5 184.522C483.5 192.284 489.788 198.576 497.544 198.576Z" fill="#FABC07"/>
<path d="M328.314 237.334L389.923 223.066L407.607 218.97C409.819 218.458 408.901 215.05 406.687 215.562L345.078 229.83L327.394 233.926C325.182 234.438 326.101 237.846 328.314 237.334Z" fill="#F2F2F2"/>
<path d="M391.934 200.176L424.915 215.36C426.041 215.749 427.095 216.321 428.037 217.051C428.947 217.943 428.284 218.801 427.541 219.579C425.322 221.653 422.977 223.59 420.521 225.378L406.47 236.81C404.706 238.246 407.195 240.75 408.942 239.328L421.18 229.371L427.3 224.392C429.033 222.981 431.144 221.542 431.84 219.295C433.304 214.574 427.528 212.697 424.318 211.219L409.955 204.607L393.73 197.137C391.685 196.196 389.873 199.227 391.934 200.176Z" fill="#F2F2F2"/>
<path d="M847.074 315.763C841.198 311.777 834.06 310.295 827.083 309.793C819.152 309.361 811.204 309.37 803.275 309.821C795.038 310.147 786.817 310.744 778.614 311.61C770.422 312.478 762.265 313.615 754.142 315.021C746.869 316.154 739.673 317.73 732.592 319.741C725.889 321.598 719.576 324.649 713.956 328.748C709.022 332.461 705.228 337.485 703.005 343.248C700.823 348.654 700.451 354.622 701.948 360.256C702.745 362.993 704.11 365.531 705.954 367.705C708.085 370.089 710.609 372.089 713.417 373.618C719.246 376.949 725.85 378.952 731.122 383.216C732.512 384.332 733.779 385.593 734.901 386.977C735.664 388.049 736.718 388.879 737.938 389.368C739.094 389.772 740.344 389.825 741.529 389.519C742.715 389.214 743.784 388.564 744.602 387.651C745.658 386.205 746.538 384.638 747.224 382.984L750.005 377.615C750.191 377.145 750.424 376.695 750.701 376.272C750.909 376.023 750.536 376.277 750.607 376.212C750.647 376.176 750.727 376.177 750.772 376.148C751.002 376.034 751.242 375.941 751.49 375.873C754.062 374.891 756.647 373.94 759.242 373.02C768.822 369.603 778.518 366.453 788.367 363.902C793.435 362.542 798.575 361.466 803.763 360.679C810.482 359.721 817.304 359.832 824.054 359.177C831.321 358.473 838.82 357 845.052 352.996C850.205 349.862 854.175 345.106 856.34 339.474C857.279 336.79 857.601 333.928 857.282 331.102C856.472 324.708 852.298 319.308 847.074 315.763Z" fill="#E6E6E6"/>
<path d="M835.05 319.356C829.74 315.753 823.29 314.415 816.985 313.96C809.818 313.57 802.636 313.579 795.47 313.986C788.027 314.281 780.598 314.82 773.185 315.603C765.782 316.387 758.411 317.414 751.07 318.685C744.498 319.709 737.995 321.133 731.596 322.951C725.539 324.628 719.834 327.385 714.755 331.09C710.297 334.445 706.868 338.985 704.859 344.193C702.887 349.078 702.552 354.471 703.904 359.563C704.624 362.036 705.858 364.33 707.524 366.294C709.449 368.448 711.731 370.256 714.268 371.638C719.535 374.648 725.503 376.457 730.267 380.311C731.524 381.319 732.669 382.459 733.683 383.71C734.372 384.678 735.324 385.428 736.427 385.87C737.472 386.236 738.601 386.283 739.673 386.007C740.744 385.731 741.71 385.143 742.449 384.319C743.403 383.012 744.199 381.596 744.819 380.102L747.332 375.249C747.5 374.825 747.711 374.418 747.96 374.036C748.149 373.811 747.812 374.041 747.876 373.981C747.912 373.949 747.984 373.95 748.025 373.924C748.233 373.82 748.45 373.737 748.674 373.675C750.999 372.788 753.334 371.929 755.679 371.097C764.337 368.009 773.098 365.163 781.999 362.858C786.578 361.628 791.223 360.656 795.912 359.945C801.984 359.079 808.148 359.18 814.248 358.588C820.815 357.951 827.592 356.621 833.223 353.001C837.88 350.169 841.468 345.872 843.424 340.782C844.272 338.356 844.563 335.771 844.275 333.217C843.543 327.439 839.771 322.559 835.05 319.356Z" fill="white"/>
<path d="M823.928 325.862L737.402 341.833C737.155 341.88 736.9 341.878 736.654 341.827C736.407 341.776 736.173 341.676 735.965 341.534C735.757 341.392 735.579 341.21 735.441 340.999C735.303 340.788 735.208 340.552 735.162 340.304C735.115 340.057 735.118 339.802 735.17 339.555C735.222 339.309 735.322 339.075 735.465 338.867C735.608 338.659 735.79 338.482 736.001 338.344C736.212 338.207 736.449 338.113 736.696 338.067L736.708 338.065L823.234 322.094C823.481 322.048 823.735 322.052 823.981 322.104C824.226 322.157 824.46 322.257 824.667 322.4C824.874 322.543 825.051 322.725 825.187 322.936C825.324 323.147 825.418 323.383 825.463 323.63C825.509 323.878 825.506 324.132 825.453 324.378C825.401 324.624 825.3 324.857 825.158 325.064C825.015 325.272 824.833 325.449 824.622 325.586C824.411 325.722 824.175 325.816 823.928 325.862Z" fill="#E6E6E6"/>
<path d="M826.059 337.427L739.533 353.398C739.285 353.445 739.031 353.443 738.784 353.392C738.538 353.34 738.304 353.241 738.095 353.099C737.887 352.957 737.709 352.775 737.572 352.564C737.434 352.353 737.339 352.117 737.293 351.869C737.246 351.621 737.249 351.367 737.301 351.12C737.353 350.874 737.453 350.64 737.596 350.432C737.738 350.224 737.92 350.046 738.132 349.909C738.343 349.772 738.579 349.678 738.827 349.632L738.838 349.63L825.364 333.658C825.611 333.613 825.865 333.616 826.111 333.669C826.357 333.721 826.59 333.822 826.797 333.965C827.004 334.107 827.181 334.289 827.318 334.501C827.455 334.712 827.548 334.948 827.594 335.195C827.64 335.442 827.636 335.696 827.584 335.943C827.531 336.189 827.431 336.422 827.288 336.629C827.146 336.836 826.964 337.013 826.753 337.15C826.542 337.287 826.306 337.381 826.059 337.427Z" fill="#E6E6E6"/>
<path d="M751.748 363.101L741.665 364.963C741.167 365.053 740.653 364.941 740.236 364.653C739.819 364.365 739.534 363.923 739.442 363.425C739.35 362.926 739.459 362.412 739.746 361.994C740.032 361.575 740.473 361.288 740.971 361.194L751.054 359.333C751.553 359.242 752.067 359.353 752.484 359.642C752.901 359.93 753.187 360.372 753.279 360.871C753.371 361.369 753.261 361.884 752.974 362.303C752.687 362.721 752.247 363.008 751.748 363.101Z" fill="#E6E6E6"/>
<path d="M744.444 411.18C748.863 410.364 751.785 406.117 750.97 401.695C750.155 397.272 745.911 394.348 741.492 395.164C737.073 395.979 734.151 400.226 734.966 404.649C735.781 409.071 740.024 411.996 744.444 411.18Z" fill="#D1D3D4"/>
<path d="M296.654 233.687H222.748C219.317 233.683 216.027 232.317 213.601 229.889C211.175 227.461 209.811 224.169 209.807 220.736V171.989C209.811 168.555 211.175 165.263 213.601 162.835C216.027 160.407 219.317 159.042 222.748 159.038H296.654C300.085 159.042 303.374 160.407 305.8 162.835C308.226 165.263 309.59 168.555 309.595 171.989V220.736C309.59 224.169 308.226 227.461 305.8 229.889C303.374 232.317 300.085 233.683 296.654 233.687Z" fill="#E6E6E6"/>
<path d="M288.534 231.061H224.212C221.226 231.057 218.363 229.869 216.252 227.755C214.14 225.642 212.953 222.777 212.949 219.789V177.364C212.953 174.376 214.14 171.511 216.252 169.398C218.363 167.284 221.226 166.096 224.212 166.092H288.534C291.519 166.096 294.382 167.284 296.494 169.398C298.605 171.511 299.793 174.376 299.796 177.364V219.789C299.793 222.778 298.605 225.642 296.494 227.755C294.382 229.869 291.519 231.057 288.534 231.061Z" fill="white"/>
<path d="M307.064 277.605H212.233C211.647 277.604 211.086 277.37 210.672 276.955C210.258 276.539 210.025 275.977 210.025 275.391C210.025 274.804 210.258 274.242 210.672 273.826C211.086 273.411 211.647 273.177 212.233 273.176H307.064C307.65 273.177 308.212 273.411 308.626 273.826C309.04 274.242 309.272 274.804 309.272 275.391C309.272 275.977 309.04 276.539 308.626 276.955C308.212 277.37 307.65 277.604 307.064 277.605Z" fill="#E6E6E6"/>
<path d="M307.064 264.951H212.233C211.647 264.949 211.086 264.715 210.672 264.3C210.258 263.885 210.025 263.323 210.025 262.736C210.025 262.15 210.258 261.587 210.672 261.172C211.086 260.757 211.647 260.523 212.233 260.522H307.064C307.65 260.523 308.212 260.757 308.626 261.172C309.04 261.587 309.272 262.15 309.272 262.736C309.272 263.323 309.04 263.885 308.626 264.3C308.212 264.715 307.65 264.949 307.064 264.951Z" fill="#E6E6E6"/>
<path d="M307.064 290.259H212.232C211.645 290.259 211.083 290.026 210.668 289.61C210.253 289.195 210.02 288.632 210.02 288.045C210.02 287.457 210.253 286.894 210.668 286.479C211.083 286.063 211.645 285.83 212.232 285.83H307.064C307.65 285.83 308.213 286.063 308.628 286.479C309.043 286.894 309.276 287.457 309.276 288.045C309.276 288.632 309.043 289.195 308.628 289.61C308.213 290.026 307.65 290.259 307.064 290.259Z" fill="#E6E6E6"/>
<path d="M307.064 302.913H212.232C211.645 302.913 211.083 302.68 210.668 302.265C210.253 301.849 210.02 301.286 210.02 300.699C210.02 300.112 210.253 299.548 210.668 299.133C211.083 298.718 211.645 298.484 212.232 298.484H307.064C307.65 298.484 308.213 298.718 308.628 299.133C309.043 299.548 309.276 300.112 309.276 300.699C309.276 301.286 309.043 301.849 308.628 302.265C308.213 302.68 307.65 302.913 307.064 302.913Z" fill="#E6E6E6"/>
<path d="M307.064 315.567H212.232C211.645 315.567 211.083 315.334 210.668 314.919C210.253 314.504 210.02 313.94 210.02 313.353C210.02 312.766 210.253 312.202 210.668 311.787C211.083 311.372 211.645 311.138 212.232 311.138H307.064C307.65 311.138 308.213 311.372 308.628 311.787C309.043 312.202 309.276 312.766 309.276 313.353C309.276 313.94 309.043 314.504 308.628 314.919C308.213 315.334 307.65 315.567 307.064 315.567Z" fill="#E6E6E6"/>
<path d="M307.064 328.222H212.233C211.647 328.22 211.086 327.986 210.672 327.571C210.258 327.156 210.025 326.594 210.025 326.007C210.025 325.421 210.258 324.858 210.672 324.443C211.086 324.028 211.647 323.794 212.233 323.793H307.064C307.65 323.794 308.212 324.028 308.626 324.443C309.04 324.858 309.272 325.421 309.272 326.007C309.272 326.594 309.04 327.156 308.626 327.571C308.212 327.986 307.65 328.22 307.064 328.222Z" fill="#E6E6E6"/>
<path d="M254.908 299.201H257.259V389.845H87.1992V387.492H254.908V299.201Z" fill="#3F3D56"/>
<path d="M15.2829 404.729H77.5902C81.6435 404.729 85.5308 403.118 88.3969 400.249C91.263 397.381 92.8731 393.491 92.8731 389.434C92.8731 385.378 91.263 381.487 88.3969 378.619C85.5308 375.751 81.6435 374.139 77.5902 374.139H15.2829C11.2296 374.139 7.34237 375.751 4.47627 378.619C1.61017 381.487 0 385.378 0 389.434C0 393.491 1.61017 397.381 4.47627 400.249C7.34237 403.118 11.2296 404.729 15.2829 404.729Z" fill="#EA4235"/>
<path d="M257.72 306.031C265.476 306.031 271.763 299.738 271.763 291.976C271.763 284.214 265.476 277.921 257.72 277.921C249.963 277.921 243.676 284.214 243.676 291.976C243.676 299.738 249.963 306.031 257.72 306.031Z" fill="#6C63FF"/>
<path d="M330.307 295.882C350.926 300.267 345.681 301.123 366.3 305.509L384.054 309.285C386.275 309.758 386.884 306.281 384.662 305.808C364.043 301.422 369.288 300.566 348.669 296.181L330.915 292.404C328.694 291.932 328.085 295.409 330.307 295.882Z" fill="#F2F2F2"/>
<path d="M377.799 285.62L401.265 313.342C402.12 314.171 402.834 315.135 403.378 316.196C403.826 317.39 402.863 317.887 401.861 318.276C398.973 319.216 396.03 319.979 393.048 320.559L375.483 324.968C373.278 325.522 374.475 328.845 376.659 328.297L391.958 324.456L399.607 322.535C401.774 321.991 404.295 321.58 405.876 319.839C409.198 316.181 404.757 312.035 402.474 309.337L392.255 297.264L380.711 283.627C379.256 281.908 376.333 283.888 377.799 285.62Z" fill="#F2F2F2"/>
<path d="M452.201 406.464C470.238 406.464 484.86 391.831 484.86 373.78C484.86 355.729 470.238 341.096 452.201 341.096C434.165 341.096 419.543 355.729 419.543 373.78C419.543 391.831 434.165 406.464 452.201 406.464Z" fill="#E6E6E6"/>
<path d="M449.018 402.297C462.73 402.297 473.846 391.173 473.846 377.45C473.846 363.727 462.73 352.602 449.018 352.602C435.305 352.602 424.189 363.727 424.189 377.45C424.189 391.173 435.305 402.297 449.018 402.297Z" fill="white"/>
<path d="M444.563 394.461C443.999 394.461 443.443 394.329 442.938 394.077C442.434 393.824 441.995 393.458 441.657 393.006L432.747 381.117C432.461 380.735 432.252 380.301 432.134 379.838C432.015 379.376 431.989 378.894 432.056 378.422C432.123 377.949 432.283 377.494 432.526 377.083C432.768 376.672 433.09 376.313 433.471 376.027C433.853 375.74 434.287 375.531 434.749 375.413C435.211 375.294 435.692 375.268 436.164 375.335C436.637 375.402 437.091 375.562 437.502 375.805C437.912 376.048 438.271 376.37 438.557 376.751L438.56 376.754L444.389 384.532L459.36 362.058C459.624 361.66 459.964 361.318 460.361 361.052C460.757 360.785 461.202 360.6 461.67 360.506C462.138 360.412 462.621 360.411 463.089 360.504C463.557 360.596 464.003 360.78 464.4 361.045C464.798 361.311 465.139 361.651 465.404 362.048C465.67 362.446 465.855 362.891 465.948 363.36C466.041 363.828 466.041 364.311 465.948 364.78C465.855 365.248 465.671 365.694 465.405 366.091L447.586 392.842C447.264 393.325 446.83 393.725 446.322 394.006C445.813 394.288 445.245 394.443 444.664 394.459C444.63 394.46 444.597 394.461 444.563 394.461Z" fill="#E6E6E6"/>
<path d="M757.153 407.45C758.204 406.831 759.108 405.989 759.799 404.983C760.49 403.977 760.952 402.832 761.153 401.628C761.355 400.424 761.289 399.19 760.962 398.014C760.636 396.838 760.055 395.748 759.262 394.821L785.485 348.961L770.099 349.798L746.988 394.238C745.52 395.675 744.63 397.601 744.486 399.652C744.341 401.702 744.954 403.734 746.207 405.362C747.46 406.991 749.266 408.103 751.284 408.488C753.301 408.873 755.389 408.503 757.153 407.45Z" fill="#FFB8B8"/>
<path d="M727.615 246.705C727.615 246.705 755.388 237.77 762.531 259.215C769.674 280.66 793.686 338.741 793.686 338.741L767.888 391.46L756.281 378.95L768.686 342.315L732.972 288.702L727.615 246.705Z" fill="#3F3D56"/>
<path d="M768.774 386.076C767.938 384.66 766.878 383.39 765.635 382.315L756.773 373.78L756.28 374.88C755.372 376.312 754.776 377.919 754.532 379.597C754.288 381.276 754.4 382.986 754.863 384.618C755.326 386.249 756.128 387.765 757.216 389.064C758.305 390.364 759.656 391.419 761.18 392.159C762.482 392.843 763.949 393.146 765.415 393.035C766.144 392.971 766.849 392.735 767.47 392.347C768.092 391.959 768.612 391.429 768.989 390.8C769.335 390.053 769.495 389.234 769.458 388.412C769.42 387.59 769.186 386.789 768.774 386.076Z" fill="#E6E6E6"/>
<path d="M451.918 417.751H449.566V508.395H529.105V506.042H451.918V417.751Z" fill="#3F3D56"/>
<path d="M616.303 507.984C616.299 503.929 614.688 500.041 611.822 497.173C608.957 494.306 605.072 492.693 601.02 492.689H538.713C534.659 492.689 530.772 494.301 527.906 497.169C525.04 500.038 523.43 503.928 523.43 507.984C523.43 512.041 525.04 515.931 527.906 518.8C530.772 521.668 534.659 523.279 538.713 523.279H601.02C605.072 523.276 608.957 521.663 611.822 518.795C614.688 515.928 616.299 512.04 616.303 507.984Z" fill="#FABC07"/>
<path d="M449.106 424.582C456.862 424.582 463.15 418.289 463.15 410.527C463.15 402.764 456.862 396.472 449.106 396.472C441.35 396.472 435.062 402.764 435.062 410.527C435.062 418.289 441.35 424.582 449.106 424.582Z" fill="#EA4235"/>
</g>
<defs>
<clipPath id="clip0_331_1522">
<rect width="884" height="654" fill="white"/>
</clipPath>
</defs>
</svg>
