<svg width="867" height="444" viewBox="0 0 867 444" fill="none" xmlns="http://www.w3.org/2000/svg">
<g clip-path="url(#clip0_331_1086)">
<path d="M828.335 244.952L825.62 266.574L818.881 320.278H683.498C684.555 308.241 686.001 290.916 687.544 272.213C687.697 270.345 687.856 268.465 688.008 266.574C691.88 219.56 696.117 166.358 696.117 166.358L713.915 169.673L748.447 176.095L762.519 178.71L800.2 185.726C818.987 189.217 831.91 216.419 828.335 244.952Z" fill="#F2F2F2"/>
<path d="M725.93 79.3577L742.578 108.492L710.58 131.169L696.93 95.3577L725.93 79.3577Z" fill="#FFB6B6"/>
<path d="M704.736 106.92C727.515 106.92 745.98 88.4539 745.98 65.6755C745.98 42.897 727.515 24.4314 704.736 24.4314C681.958 24.4314 663.492 42.897 663.492 65.6755C663.492 88.4539 681.958 106.92 704.736 106.92Z" fill="#FFB6B6"/>
<path d="M701.774 74.8959C698.499 69.9117 699.784 67.3048 697.042 65.4731C697.042 65.473 695.939 64.736 688.043 64.3158C686.275 51.5919 684.068 50.0489 684.068 50.0488C681.525 48.2705 677.75 48.8483 675.402 49.936C670.436 52.2364 671.011 57.2054 667.667 58.1563C663.048 59.4699 654.643 52.0648 653.815 43.5874C653.14 36.6722 657.595 29.9559 659.362 30.3112C661.114 30.6635 665.309 25.3082 667.574 25.3908C669.121 25.4473 675.441 22.7003 677.141 22.9151C678.997 23.1497 685.119 26.3443 685.374 25.6144C687.147 20.5424 686.626 19.1352 688.13 17.6842C690.796 15.113 695.156 16.9035 701.996 17.8647C716.071 19.8425 718.527 15.2018 725.74 18.3473C729.383 19.9362 732.432 24.2215 738.381 32.7271C746.7 44.6221 750.86 50.5696 750.887 57.5065C750.914 64.5809 747.488 64.1318 745.983 74.6049C744.308 86.2631 747.867 91.5939 743.979 95.3815C740.974 98.3088 734.866 99.0036 731.657 96.4345C726.163 92.0359 733.353 81.4222 727.273 73.6678C723.541 68.9078 716.035 66.7899 712.597 69.1428C708.709 71.8032 710.851 79.6121 708.117 80.3526C705.776 80.9867 702.344 75.7645 701.774 74.8959Z" fill="#2F2E41"/>
<path d="M797.851 237.338C796.7 257.007 792.131 263.217 790.531 286.447C790.181 291.547 789.971 297.467 789.971 304.527C789.971 306.327 789.981 308.068 789.981 309.768C789.981 313.387 789.911 316.808 789.49 320.277C789.171 323.047 788.621 325.838 787.711 328.777H698.881C698.871 328.757 698.871 328.737 698.861 328.717C698.341 326.458 698.011 324.297 697.761 322.228C697.681 321.568 697.611 320.918 697.551 320.277C697.471 319.527 697.401 318.788 697.331 318.058C697.061 315.148 696.791 312.398 696.151 309.768C695.291 306.137 693.731 302.717 690.53 299.418C689.221 298.068 687.911 297.018 686.631 296.098C686.381 295.927 686.141 295.757 685.891 295.588C682.351 293.157 679.001 291.407 676.101 286.447C676.051 286.378 676.011 286.297 675.971 286.228C675.471 285.358 674.171 283.077 673.231 280.038C672.24 276.878 671.641 272.907 672.721 268.848C675.291 259.228 684.811 258.268 692.591 248.547C693.431 247.498 694.261 246.338 695.051 245.047C698.571 239.327 699.521 234.288 700.641 228.297C700.821 227.327 700.981 226.367 701.111 225.438C701.211 224.737 701.301 224.047 701.371 223.367C701.99 217.657 701.691 212.737 700.961 208.338C698.581 193.927 691.561 185.007 696.521 172.077C698.081 168.018 700.291 164.967 702.521 162.358C707.24 156.827 712.091 153.237 711.251 146.098C710.401 138.898 704.941 137.907 704.331 131.617C704.021 128.438 705.061 125.088 707.011 121.797V121.788C713.251 111.197 728.831 101.447 738.731 101.757C740.561 101.808 742.181 102.217 743.531 103.007C748.421 105.887 746.381 112.177 753.871 120.998C759.441 127.547 765.74 130.168 768.131 131.407C777.601 136.348 785.301 150.918 790.531 169.547C790.571 169.688 790.611 169.827 790.651 169.978C793.881 181.648 796.161 194.898 797.291 208.338C797.771 214.027 798.051 219.748 798.111 225.407C798.161 229.927 798.061 233.848 797.851 237.338Z" fill="#0D9D58"/>
<path d="M731.33 304.728L729.52 309.768L728.38 312.927L725.739 320.278L722.68 328.778H703.01L706.31 320.278L707.84 316.318L710.38 309.768L714.64 298.768L731.33 304.728Z" fill="#FFB6B6"/>
<path d="M790.84 167.827C790.79 168.478 790.72 169.198 790.649 169.978C789.87 177.918 788.029 192.128 785.34 208.338C783.92 216.888 782.26 225.998 780.39 235.048C776.37 254.577 771.37 273.808 765.72 286.448C764.71 288.728 763.67 290.788 762.609 292.608C761.8 293.998 760.949 295.368 760.06 296.718C757.18 301.148 753.949 305.348 750.6 309.268C750.47 309.438 750.319 309.598 750.17 309.768C749.63 310.408 749.069 311.038 748.51 311.668C745.77 314.758 742.97 317.638 740.26 320.278C736.96 323.498 733.779 326.348 730.93 328.778H698.989L698.859 328.718L694.26 326.678C694.26 326.678 695.569 325.138 697.76 322.228C698.21 321.638 698.689 320.988 699.21 320.278C699.85 319.408 700.54 318.448 701.279 317.408C702.819 315.228 704.569 312.668 706.449 309.768C710.09 304.158 714.239 297.258 718.43 289.268C718.91 288.338 719.399 287.398 719.89 286.448C719.899 286.418 719.92 286.387 719.93 286.358C720.76 284.738 721.58 283.068 722.399 281.368C729.35 266.908 731.34 254.908 731.91 251.018C732.71 245.518 733.819 237.827 733.52 229.367C733.319 223.788 732.51 217.888 730.58 212.028V212.018C730.18 210.788 729.729 209.558 729.22 208.338C728.31 206.148 727.229 203.988 725.949 201.858C720.3 192.478 715.71 192.088 712.06 181.867C710.979 178.838 708.529 171.998 709.279 164.778V164.768C709.37 163.878 709.52 162.978 709.72 162.077V162.068C709.77 161.818 709.84 161.558 709.91 161.308C710.479 159.098 711.42 156.908 712.85 154.827C715.64 150.788 719.449 148.388 722.859 146.958L722.87 146.948C726.81 145.308 730.21 144.958 730.87 144.898C745.479 143.598 756.81 155.878 763 162.588C765.39 165.178 767.58 167.348 769.58 169.117C785.149 183.018 789.42 174.138 790.529 169.548C790.699 168.838 790.79 168.228 790.84 167.827Z" fill="#0D9D58"/>
<path d="M790.89 167.308C790.89 167.358 790.88 167.528 790.84 167.808C790.859 167.657 790.87 167.508 790.88 167.367C790.88 167.338 790.88 167.318 790.89 167.308Z" fill="#0D9D58"/>
<path d="M711.471 378.318H175.421C170.44 378.318 166.381 382.367 166.381 387.348C166.381 392.338 170.44 396.387 175.421 396.387H711.471C716.45 396.387 720.501 392.338 720.501 387.348C720.501 382.367 716.45 378.318 711.471 378.318Z" fill="#E6E6E6"/>
<path d="M592.51 424.998H294.37C289.39 424.998 285.34 429.048 285.34 434.028C285.34 439.008 289.39 443.068 294.37 443.068H592.51C597.49 443.068 601.55 439.008 601.55 434.028C601.55 429.048 597.49 424.998 592.51 424.998Z" fill="#E6E6E6"/>
<path d="M235.07 81.2749L268.854 67.0571L283.344 96.7626L247.843 111.253L235.07 81.2749Z" fill="#FFB6B6"/>
<path opacity="0.1" d="M235.07 81.2749L268.854 67.0571L283.344 96.7626L247.843 111.253L235.07 81.2749Z" fill="black"/>
<path d="M239.873 69.9552L273.201 108.355C273.201 108.355 250.016 181.532 226.831 188.053C203.647 194.573 160.9 226.452 160.9 226.452L107.285 191.675L133.368 153.275C133.368 153.275 196.402 67.0571 213.066 67.0571C229.73 67.0571 239.873 69.9552 239.873 69.9552Z" fill="#5186EC"/>
<path d="M194.842 320.278H117.26L112.355 313.721L92.3294 286.95L87.7214 280.791C87.7214 280.791 70.3329 248.912 73.9555 219.931C77.5781 190.95 115.253 184.43 115.253 184.43H116.804L162.927 224.959L160.174 262.678L174.78 286.95L194.842 320.278Z" fill="#2F2E41"/>
<path d="M133.149 320.278H112.355V289.486L133.149 320.278Z" fill="#2F2E41"/>
<path d="M581.643 273.532L579.057 286.95L572.638 320.278H443.68C444.687 312.808 446.063 302.056 447.534 290.449C447.679 289.29 447.831 288.123 447.976 286.95C451.664 257.773 455.699 224.757 455.699 224.757L472.653 226.814L505.547 230.799L518.95 232.422L554.843 236.777C572.739 238.943 585.049 255.824 581.643 273.532Z" fill="#F2F2F2"/>
<path d="M764.145 320.278H694.199C695.264 319.024 695.866 318.3 695.866 318.3L716.833 314.837L760.037 307.707C760.037 307.707 762.007 312.801 764.145 320.278Z" fill="#2F2E41"/>
<path d="M467.456 95.7664L497.874 138.784L444.815 140.369L439.119 99.9421L467.456 95.7664Z" fill="#A0616A"/>
<path opacity="0.1" d="M467.456 95.7664L497.874 138.784L444.815 140.369L439.119 99.9421L467.456 95.7664Z" fill="black"/>
<path d="M317.445 184.896C313.542 173.637 304.569 166.525 297.404 169.01C290.239 171.495 287.596 182.635 291.502 193.898C293.001 198.418 295.56 202.514 298.966 205.842L316.106 253.339L338.223 244.821L318.978 198.902C319.593 194.178 319.067 189.375 317.445 184.896Z" fill="#A0616A"/>
<path d="M523.347 162.977L523.306 206.817L519.227 223.011L510.837 256.317L504.729 286.95L500.179 309.772L498.556 317.923C497.331 318.742 496.114 319.524 494.897 320.278H388.921C382.9 316.663 379.531 313.851 379.531 313.851C379.531 313.851 381.198 312.286 383.103 309.772C386.32 305.527 390.211 298.571 387.827 291.927C387.327 290.536 387.197 288.841 387.349 286.95C388.32 274.474 401.405 253.375 401.405 253.375L398.695 222.061L397.507 208.339L405.884 141.429L433.192 125.555L437.906 125.099L484.442 122.584L503.677 123.693L504.553 123.932L523.347 162.977Z" fill="#FABC07"/>
<path d="M525.414 320.278H502.229L501.207 309.772L501.186 309.562L507.75 309.113L524.827 307.947L525.124 314.235L525.356 319.061L525.414 320.278Z" fill="#FFB6B6"/>
<path d="M531.122 173.577L540.861 230.72L532.913 286.95L531.674 295.702L529.486 311.156L528.812 315.909L528.834 316.424L529.001 320.278H501.469L500.454 309.772L500.368 308.831L498.295 287.312L498.259 286.95L493.861 241.319L502.483 208.339L503.121 205.912V205.905L506.872 149.435L503.967 123.773L503.938 123.534C503.996 123.57 504.046 123.606 504.104 123.642C504.257 123.737 504.409 123.831 504.553 123.932C521.478 134.67 531.564 153.507 531.122 173.577Z" fill="#FABC07"/>
<path d="M415.748 152.379L405.161 141.428C405.161 141.428 382.496 151.646 381.367 157.314C380.237 162.983 340.22 246.24 340.22 246.24L322.81 199.741L300.148 214.872C300.148 214.872 318.332 287.063 335.338 290.453C352.344 293.842 409.34 205.007 409.34 205.007L415.748 152.379Z" fill="#FABC07"/>
<path d="M845.64 286.448H21.1602C9.49024 286.448 0 295.948 0 307.617C0 319.287 9.49023 328.778 21.1602 328.778H845.64C857.31 328.778 866.81 319.288 866.81 307.617C866.81 295.947 857.31 286.448 845.64 286.448Z" fill="#E6E6E6"/>
<path d="M518.523 221.94L516.92 296.742C516.765 303.983 510.85 309.772 503.607 309.772H366.005C358.933 309.772 353.095 304.245 352.709 297.184L348.62 222.381C348.203 214.753 354.276 208.339 361.915 208.339H505.21C512.676 208.339 518.683 214.476 518.523 221.94Z" fill="#3F3D56"/>
<path d="M296.385 99.3314C314.567 99.3314 329.307 84.5918 329.307 66.4096C329.307 48.2274 314.567 33.4878 296.385 33.4878C278.202 33.4878 263.463 48.2274 263.463 66.4096C263.463 84.5918 278.202 99.3314 296.385 99.3314Z" fill="#FFB6B6"/>
<path d="M241.322 152.551L244.945 191.675L269.578 290.935L248.297 298.394L212.341 190.226L207.375 146.755L241.322 152.551Z" fill="#FFB6B6"/>
<path d="M231.523 221.94L229.92 296.742C229.764 303.983 223.85 309.772 216.607 309.772H79.0047C71.9333 309.772 66.0952 304.245 65.7092 297.184L61.6199 222.381C61.2029 214.753 67.2759 208.339 74.9154 208.339H218.21C225.676 208.339 231.683 214.476 231.523 221.94Z" fill="#3F3D56"/>
<path d="M273.5 310.278C287.859 310.278 299.5 305.129 299.5 298.778C299.5 292.427 287.859 287.278 273.5 287.278C259.141 287.278 247.5 292.427 247.5 298.778C247.5 305.129 259.141 310.278 273.5 310.278Z" fill="#FFB6B6"/>
<path d="M190.242 158.532L205.095 79.3739C205.095 79.3739 246.393 73.5777 247.842 87.3436C249.291 101.11 246.806 168.386 246.806 168.386L190.242 158.532Z" fill="#5186EC"/>
<path d="M283.095 71.5859C283.095 71.5859 303.461 64.3176 312.051 60.4068C320.642 56.4961 337.708 83.7732 338.088 69.3673C338.468 54.9613 332.57 48.9201 332.57 48.9201C332.57 48.9201 331.098 17.405 299.347 21.3451C299.347 21.3451 306.331 5.5778 283.406 3.13967C260.482 0.701545 224.817 56.0606 228.011 64.3338C231.205 72.6069 235.034 79.4466 225.972 88.2924C216.91 97.1382 199.942 147.062 212.852 160.496C225.763 173.93 226.61 179.759 217.764 188.117C208.918 196.474 188.01 214.647 210.617 217.802C233.224 220.957 208.549 218.6 225.403 203.776C242.256 188.951 266.85 189.556 257.667 165.771C248.484 141.986 264.438 107.902 262.442 102.731C260.446 97.5605 266.915 64.7262 266.915 64.7262C266.915 64.7262 281.97 62.5143 283.095 71.5859Z" fill="#2F2E41"/>
<path d="M451.191 111.337C470.984 111.337 487.029 95.2916 487.029 75.4989C487.029 55.7062 470.984 39.6611 451.191 39.6611C431.399 39.6611 415.354 55.7062 415.354 75.4989C415.354 95.2916 431.399 111.337 451.191 111.337Z" fill="#A0616A"/>
<path d="M454.052 27.3174C453.015 27.9228 451.626 27.0069 451.293 25.8531C450.961 24.6993 451.348 23.4743 451.732 22.3366L453.666 16.6095C455.037 12.5476 456.493 8.34387 459.463 5.25229C463.946 0.586053 471.07 -0.601016 477.483 0.258974C485.719 1.36337 493.845 5.82302 497.675 13.1976C501.504 20.5723 499.874 30.8625 492.954 35.4635C502.816 46.7669 506.254 59.3641 505.711 74.355C505.168 89.346 488.832 103.143 478.178 113.703C475.799 112.261 473.636 105.502 474.944 103.047C476.253 100.592 474.378 97.747 475.998 95.4854C477.619 93.2238 478.974 96.8249 477.336 94.5762C476.303 93.1572 480.337 89.8926 478.8 89.0433C471.369 84.9354 468.897 75.6722 464.23 68.5787C458.6 60.0226 448.964 54.2283 438.767 53.267C433.15 52.7375 427.217 53.6966 422.613 56.9576C418.009 60.2187 415.028 66.0462 416.096 71.5863C413.33 68.7788 411.954 64.6643 412.473 60.7581C412.992 56.8518 415.396 53.2397 418.798 51.2518C416.729 44.4104 418.502 36.5407 423.303 31.2466C428.105 25.9525 447.584 26.8542 454.594 28.2475L454.052 27.3174Z" fill="#2F2E41"/>
<path d="M455.141 53.4746C464.425 54.4769 471.129 62.5197 476.79 69.9471C480.053 74.2282 483.471 78.9559 483.389 84.3379C483.306 89.7793 479.668 94.4465 477.929 99.6033C475.087 108.032 477.857 118.061 484.622 123.836C477.938 125.105 470.711 120.092 469.557 113.387C468.214 105.581 474.131 98.0469 473.43 90.1572C472.813 83.2062 467.335 77.8566 462.678 72.6594C458.022 67.4622 453.648 60.5657 455.79 53.9244L455.141 53.4746Z" fill="#2F2E41"/>
<path d="M593.947 290.977C584.75 296.208 579.995 305.193 583.325 311.046C586.654 316.898 596.808 317.401 606.007 312.167C609.711 310.126 612.872 307.229 615.226 303.716L653.913 281.06L642.894 263.132L605.925 287.37C601.702 287.599 597.594 288.836 593.947 290.977Z" fill="#FFB6B6"/>
<path d="M724.934 124.841C723.778 124.383 713.634 120.541 704.373 125.613C693.734 131.439 692.091 144.739 691.515 149.404C690.184 160.18 694.106 162.596 694.934 173.505C696.483 193.915 700.567 170.631 694.044 179.947C691.786 183.172 668.727 233.146 656.01 242.934C631.276 261.971 615.57 275.378 615.57 275.378L633.501 294.856C633.501 294.856 661.834 287.306 686.877 271.045C712.565 254.365 725.409 246.026 735.346 229.71C736.202 228.305 756.677 193.534 745.681 155.086C743.173 146.316 738.577 130.247 724.934 124.841Z" fill="#0D9D58"/>
<path d="M817.523 221.94L815.92 296.742C815.765 303.983 809.85 309.772 802.607 309.772H665.005C657.933 309.772 652.095 304.245 651.709 297.184L647.62 222.381C647.203 214.753 653.276 208.339 660.915 208.339H804.21C811.676 208.339 817.683 214.476 817.523 221.94Z" fill="#3F3D56"/>
</g>
<defs>
<clipPath id="clip0_331_1086">
<rect width="866.81" height="443.068" fill="white"/>
</clipPath>
</defs>
</svg>
