<svg width="545" height="401" viewBox="0 0 545 401" fill="none" xmlns="http://www.w3.org/2000/svg">
<g clip-path="url('#clip0_331_1326')">
<path opacity="0.1" d="M5.88086 213.405C14.4975 250.234 32.7383 282.07 61.5662 297.501C121.475 329.57 256.586 313.032 357.425 294.027C408.378 284.456 454.629 258.016 488.729 218.964L5.88086 213.405Z" fill="#0D9D58"></path>
<path opacity="0.1" d="M534.667 40.0603H479.339C478.071 40.0603 476.854 39.5564 475.957 38.6596C475.06 37.7627 474.557 36.5463 474.557 35.278C474.557 34.0096 475.06 32.7932 475.957 31.8964C476.854 30.9995 478.071 30.4957 479.339 30.4957H488.903C487.635 30.4957 486.419 29.9918 485.522 29.0949C484.625 28.1981 484.121 26.9817 484.121 25.7133C484.121 24.445 484.625 23.2286 485.522 22.3317C486.419 21.4349 487.635 20.931 488.903 20.931H482.074C480.805 20.931 479.589 20.4272 478.692 19.5303C477.795 18.6334 477.291 17.417 477.291 16.1487C477.291 14.8803 477.795 13.6639 478.692 12.7671C479.589 11.8702 480.805 11.3664 482.074 11.3664H510.951C504.543 8.38829 497.054 6.26888 488.427 5.15706C409.686 -4.95852 381.573 1.73226 371.656 8.6315C359.421 17.1191 345.771 23.3631 331.184 26.371C282.601 36.3923 191.745 48.4535 109.395 22.5094C68.4665 9.60434 38.0453 31.404 19.8145 67.8161H544.271C543.586 57.234 541.536 47.4658 537.774 38.9088C536.91 39.6527 535.807 40.0614 534.667 40.0603Z" fill="#0D9D58"></path>
<path opacity="0.1" d="M1.18533 136.546C-0.939985 157.964 -0.218973 179.569 3.32956 200.798L489.096 218.562C502.618 203.007 513.972 185.693 522.848 167.091L1.18533 136.546ZM193.312 182.383H183.747C185.016 182.383 186.232 182.887 187.129 183.784C188.026 184.681 188.53 185.897 188.53 187.166C188.53 188.434 188.026 189.65 187.129 190.547C186.232 191.444 185.016 191.948 183.747 191.948H128.419C127.151 191.948 125.935 191.444 125.038 190.547C124.141 189.65 123.637 188.434 123.637 187.166C123.637 185.897 124.141 184.681 125.038 183.784C125.935 182.887 127.151 182.383 128.419 182.383H137.984C136.716 182.383 135.499 181.879 134.602 180.983C133.705 180.086 133.202 178.869 133.202 177.601C133.202 176.333 133.705 175.116 134.602 174.219C135.499 173.323 136.716 172.819 137.984 172.819H131.154C129.886 172.819 128.669 172.315 127.773 171.418C126.876 170.521 126.372 169.305 126.372 168.036C126.372 166.768 126.876 165.552 127.773 164.655C128.669 163.758 129.886 163.254 131.154 163.254H186.482C187.751 163.254 188.967 163.758 189.864 164.655C190.761 165.552 191.264 166.768 191.264 168.036C191.264 169.305 190.761 170.521 189.864 171.418C188.967 172.315 187.751 172.819 186.482 172.819H193.312C194.58 172.819 195.797 173.323 196.694 174.219C197.59 175.116 198.094 176.333 198.094 177.601C198.094 178.869 197.59 180.086 196.694 180.983C195.797 181.879 194.58 182.383 193.312 182.383Z" fill="#0D9D58"></path>
<path opacity="0.1" d="M544.296 68.1437L13.9523 81.0487C7.50472 97.6268 3.25102 116.374 1.26562 135.811H535.004C538.489 124.396 541.066 112.724 542.712 100.903C544.301 89.4767 544.936 78.433 544.296 68.1437ZM108.934 110.413H99.3689C100.637 110.413 101.854 110.917 102.751 111.813C103.647 112.71 104.151 113.927 104.151 115.195C104.151 116.463 103.647 117.68 102.751 118.577C101.854 119.474 100.637 119.977 99.3689 119.977H44.0409C42.7726 119.977 41.5562 119.474 40.6593 118.577C39.7625 117.68 39.2586 116.463 39.2586 115.195C39.2586 113.927 39.7625 112.71 40.6593 111.813C41.5562 110.917 42.7726 110.413 44.0409 110.413H53.6056C52.3372 110.413 51.1208 109.909 50.224 109.012C49.3271 108.115 48.8233 106.899 48.8233 105.63C48.8233 104.362 49.3271 103.146 50.224 102.249C51.1208 101.352 52.3372 100.848 53.6056 100.848H46.7758C45.5075 100.848 44.2911 100.344 43.3942 99.4474C42.4974 98.5505 41.9935 97.3341 41.9935 96.0658C41.9935 94.7974 42.4974 93.581 43.3942 92.6842C44.2911 91.7873 45.5075 91.2835 46.7758 91.2835H102.104C103.372 91.2835 104.589 91.7873 105.485 92.6842C106.382 93.581 106.886 94.7974 106.886 96.0658C106.886 97.3341 106.382 98.5505 105.485 99.4474C104.589 100.344 103.372 100.848 102.104 100.848H108.934C110.202 100.848 111.418 101.352 112.315 102.249C113.212 103.146 113.716 104.362 113.716 105.63C113.716 106.899 113.212 108.115 112.315 109.012C111.418 109.909 110.202 110.413 108.934 110.413Z" fill="#0D9D58"></path>
<g opacity="0.1">
<path d="M336.301 309.364C336.301 309.364 350.298 274.868 376.436 262.072C387.438 256.781 396.426 248.064 402.052 237.23C404.68 232.06 406.828 226.66 408.47 221.098" stroke="#535461" stroke-width="2" stroke-miterlimit="10"></path>
<path d="M424.895 212.934C422.17 216.358 408.068 221.371 408.068 221.371C408.068 221.371 409.766 206.481 412.491 203.081C413.844 201.577 415.719 200.647 417.735 200.479C419.751 200.31 421.754 200.918 423.337 202.177C424.921 203.436 425.964 205.251 426.254 207.253C426.544 209.255 426.06 211.292 424.9 212.948L424.895 212.934Z" fill="#6C63FF"></path>
<path d="M420.054 240.064C415.904 241.459 401.352 237.989 401.352 237.989C401.352 237.989 410.857 226.434 415.006 225.039C416.956 224.522 419.029 224.766 420.806 225.722C422.582 226.678 423.928 228.274 424.57 230.186C425.213 232.098 425.104 234.183 424.265 236.018C423.426 237.852 421.92 239.299 420.054 240.064Z" fill="#6C63FF"></path>
<path d="M393.818 272.128C389.534 271.24 378.719 260.896 378.719 260.896C378.719 260.896 392.755 255.719 397.044 256.607C398.984 257.148 400.647 258.406 401.695 260.127C402.742 261.847 403.097 263.902 402.687 265.874C402.277 267.846 401.133 269.589 399.486 270.749C397.839 271.91 395.813 272.401 393.818 272.123V272.128Z" fill="#6C63FF"></path>
<path d="M368.504 291.922C364.131 291.769 351.723 283.405 351.723 283.405C351.723 283.405 364.687 275.945 369.06 276.084C370.147 276.05 371.229 276.24 372.239 276.641C373.25 277.042 374.167 277.647 374.934 278.417C375.702 279.187 376.303 280.107 376.7 281.119C377.098 282.131 377.283 283.214 377.245 284.3C377.207 285.387 376.946 286.454 376.478 287.436C376.011 288.417 375.347 289.292 374.528 290.007C373.708 290.722 372.751 291.26 371.715 291.59C370.679 291.919 369.586 292.032 368.504 291.922Z" fill="#6C63FF"></path>
<path d="M387.801 228.296C388.362 232.639 397.837 244.213 397.837 244.213C397.837 244.213 404.076 230.613 403.52 226.27C403.132 224.292 402.007 222.534 400.371 221.355C398.735 220.176 396.712 219.663 394.712 219.921C392.712 220.178 390.885 221.187 389.602 222.742C388.318 224.298 387.674 226.283 387.801 228.296Z" fill="#6C63FF"></path>
<path d="M358.488 251.817C360.319 255.788 372.827 264.003 372.827 264.003C372.827 264.003 374.713 249.157 372.882 245.186C372.492 244.173 371.898 243.25 371.137 242.475C370.376 241.701 369.464 241.09 368.458 240.682C367.452 240.273 366.372 240.075 365.287 240.101C364.201 240.126 363.132 240.373 362.146 240.828C361.16 241.283 360.277 241.935 359.553 242.744C358.829 243.553 358.278 244.502 357.935 245.533C357.593 246.563 357.465 247.653 357.56 248.735C357.655 249.817 357.971 250.868 358.488 251.822V251.817Z" fill="#6C63FF"></path>
<path d="M333.134 278.591C334.266 282.819 345.21 293.024 345.21 293.024C345.21 293.024 349.578 278.715 348.441 274.486C347.792 272.578 346.441 270.989 344.663 270.04C342.885 269.092 340.813 268.854 338.867 269.376C336.921 269.898 335.246 271.14 334.181 272.851C333.117 274.562 332.742 276.614 333.134 278.591Z" fill="#6C63FF"></path>
<path opacity="0.25" d="M424.895 212.934C422.17 216.358 408.068 221.371 408.068 221.371C408.068 221.371 409.766 206.481 412.491 203.081C413.844 201.577 415.719 200.647 417.735 200.479C419.751 200.31 421.754 200.918 423.337 202.177C424.921 203.436 425.964 205.251 426.254 207.253C426.544 209.255 426.06 211.292 424.9 212.948L424.895 212.934Z" fill="black"></path>
<path opacity="0.25" d="M420.054 240.064C415.904 241.459 401.352 237.989 401.352 237.989C401.352 237.989 410.857 226.434 415.006 225.039C416.956 224.522 419.029 224.766 420.806 225.722C422.582 226.678 423.928 228.274 424.57 230.186C425.213 232.098 425.104 234.183 424.265 236.018C423.426 237.852 421.92 239.299 420.054 240.064Z" fill="black"></path>
<path opacity="0.25" d="M393.818 272.128C389.534 271.24 378.719 260.896 378.719 260.896C378.719 260.896 392.755 255.719 397.044 256.607C398.984 257.148 400.647 258.406 401.695 260.127C402.742 261.847 403.097 263.902 402.687 265.874C402.277 267.846 401.133 269.589 399.486 270.749C397.839 271.91 395.813 272.401 393.818 272.123V272.128Z" fill="black"></path>
<path opacity="0.25" d="M368.504 291.922C364.131 291.769 351.723 283.405 351.723 283.405C351.723 283.405 364.687 275.945 369.06 276.084C370.147 276.05 371.229 276.24 372.239 276.641C373.25 277.042 374.167 277.647 374.934 278.417C375.702 279.187 376.303 280.107 376.7 281.119C377.098 282.131 377.283 283.214 377.245 284.3C377.207 285.387 376.946 286.454 376.478 287.436C376.011 288.417 375.347 289.292 374.528 290.007C373.708 290.722 372.751 291.26 371.715 291.59C370.679 291.919 369.586 292.032 368.504 291.922Z" fill="black"></path>
<path opacity="0.25" d="M387.801 228.296C388.362 232.639 397.837 244.213 397.837 244.213C397.837 244.213 404.076 230.613 403.52 226.27C403.132 224.292 402.007 222.534 400.371 221.355C398.735 220.176 396.712 219.663 394.712 219.921C392.712 220.178 390.885 221.187 389.602 222.742C388.318 224.298 387.674 226.283 387.801 228.296Z" fill="black"></path>
<path opacity="0.25" d="M358.488 251.817C360.319 255.788 372.827 264.003 372.827 264.003C372.827 264.003 374.713 249.157 372.882 245.186C372.492 244.173 371.898 243.25 371.137 242.475C370.376 241.701 369.464 241.09 368.458 240.682C367.452 240.273 366.372 240.075 365.287 240.101C364.201 240.126 363.132 240.373 362.146 240.828C361.16 241.283 360.277 241.935 359.553 242.744C358.829 243.553 358.278 244.502 357.935 245.533C357.593 246.563 357.465 247.653 357.56 248.735C357.655 249.817 357.971 250.868 358.488 251.822V251.817Z" fill="black"></path>
<path opacity="0.25" d="M333.134 278.591C334.266 282.819 345.21 293.024 345.21 293.024C345.21 293.024 349.578 278.715 348.441 274.486C347.792 272.578 346.441 270.989 344.663 270.04C342.885 269.092 340.813 268.854 338.867 269.376C336.921 269.898 335.246 271.14 334.181 272.851C333.117 274.562 332.742 276.614 333.134 278.591Z" fill="black"></path>
</g>
<g opacity="0.1">
<path d="M326.375 258.925C326.375 258.925 328.142 221.739 348.557 200.996C357.167 192.348 362.74 181.141 364.44 169.056C365.205 163.313 365.443 157.511 365.15 151.724" stroke="#535461" stroke-width="2" stroke-miterlimit="10"></path>
<path d="M377.995 138.576C376.561 142.71 364.916 152.106 364.916 152.106C364.916 152.106 361.591 137.518 363.025 133.384C363.31 132.332 363.807 131.35 364.488 130.499C365.168 129.648 366.016 128.946 366.979 128.437C367.942 127.928 369 127.622 370.086 127.539C371.172 127.456 372.264 127.597 373.293 127.954C374.323 128.311 375.268 128.876 376.069 129.614C376.871 130.352 377.512 131.247 377.953 132.243C378.394 133.239 378.625 134.315 378.633 135.405C378.64 136.494 378.423 137.574 377.995 138.576Z" fill="#6C63FF"></path>
<path d="M382.403 165.756C378.929 168.446 364.068 170.004 364.068 170.004C364.068 170.004 369.206 155.948 372.655 153.258C373.467 152.536 374.418 151.988 375.449 151.649C376.481 151.309 377.571 151.185 378.652 151.283C379.734 151.382 380.783 151.701 381.737 152.221C382.69 152.742 383.526 153.452 384.194 154.308C384.862 155.164 385.347 156.148 385.62 157.2C385.892 158.251 385.946 159.347 385.778 160.42C385.611 161.493 385.224 162.52 384.644 163.437C384.063 164.355 383.301 165.144 382.403 165.756Z" fill="#6C63FF"></path>
<path d="M368.282 204.729C363.944 205.31 350.314 199.14 350.314 199.14C350.314 199.14 361.845 189.6 366.198 189.019C367.263 188.806 368.36 188.813 369.422 189.04C370.485 189.268 371.489 189.71 372.373 190.341C373.257 190.972 374.003 191.778 374.563 192.709C375.123 193.639 375.487 194.675 375.631 195.751C375.775 196.828 375.697 197.923 375.402 198.968C375.106 200.013 374.599 200.987 373.912 201.828C373.225 202.67 372.373 203.361 371.408 203.86C370.443 204.359 369.386 204.655 368.302 204.729H368.282Z" fill="#6C63FF"></path>
<path d="M350.964 231.795C346.785 233.1 332.307 229.313 332.307 229.313C332.307 229.313 342.055 217.962 346.234 216.656C348.195 216.178 350.265 216.464 352.023 217.457C353.781 218.45 355.094 220.075 355.697 222.002C356.299 223.928 356.145 226.012 355.266 227.829C354.387 229.647 352.849 231.061 350.964 231.785V231.795Z" fill="#6C63FF"></path>
<path d="M348.07 165.368C350.056 169.28 362.822 177.057 362.822 177.057C362.822 177.057 364.197 162.167 362.231 158.246C361.211 156.503 359.566 155.215 357.63 154.642C355.694 154.069 353.612 154.255 351.809 155.162C350.005 156.07 348.614 157.63 347.92 159.526C347.226 161.422 347.279 163.511 348.07 165.368Z" fill="#6C63FF"></path>
<path d="M328.216 197.284C331.264 200.426 345.787 204.024 345.787 204.024C345.787 204.024 342.645 189.397 339.597 186.255C338.103 184.896 336.147 184.157 334.128 184.189C332.108 184.222 330.176 185.022 328.726 186.428C327.276 187.834 326.416 189.74 326.321 191.757C326.226 193.775 326.904 195.753 328.216 197.289V197.284Z" fill="#6C63FF"></path>
<path d="M313.177 230.946C315.659 234.559 329.358 240.56 329.358 240.56C329.358 240.56 328.733 225.61 326.261 221.997C325.01 220.431 323.214 219.396 321.232 219.099C319.251 218.801 317.23 219.264 315.575 220.395C313.921 221.525 312.754 223.239 312.311 225.193C311.867 227.147 312.178 229.197 313.182 230.931L313.177 230.946Z" fill="#6C63FF"></path>
</g>
<path opacity="0.1" d="M148.775 385.047C168.292 391.609 192.102 387.619 214.244 388.08C217.276 388.145 220.483 388.333 222.915 389.465C225.347 390.597 226.543 392.443 228.211 394.007C234.415 399.858 247.127 401.74 258.24 400.747C269.353 399.754 279.543 396.468 290.006 393.967C308.133 389.639 328.856 387.673 346.734 392.388C348.377 392.82 350.104 393.317 351.861 393.148C355.782 392.761 356.949 389.624 359.689 387.832C364.652 384.596 375.388 385.474 377.557 381.211C378.833 378.729 375.9 376.148 372.708 374.44C360.488 367.909 343.006 366.831 327.014 367.839C311.022 368.847 295.297 371.626 279.221 371.636C259.193 371.636 239.84 367.372 220.006 365.625C206.267 364.414 191.273 364.563 178.392 368.107C164.47 371.988 161.393 380.645 148.775 385.047Z" fill="#6C63FF"></path>
<path d="M184.894 91.7749H181.42V140.913H184.894V91.7749Z" fill="#535461"></path>
<path d="M184.894 157.789H181.42V185.585H184.894V157.789Z" fill="#535461"></path>
<path d="M316.874 43.629H207.28C194.369 43.629 183.902 54.0957 183.902 67.007V359.753C183.902 372.665 194.369 383.131 207.28 383.131H316.874C329.785 383.131 340.252 372.665 340.252 359.753V67.007C340.252 54.0957 329.785 43.629 316.874 43.629Z" fill="#535461"></path>
<path d="M316.874 59.5122H207.28C194.369 59.5122 183.902 69.9789 183.902 82.8902V345.359C183.902 358.271 194.369 368.737 207.28 368.737H316.874C329.785 368.737 340.252 358.271 340.252 345.359V82.8902C340.252 69.9789 329.785 59.5122 316.874 59.5122Z" fill="#0D9D58"></path>
<path d="M273.493 51.0742H251.157C250.198 51.0742 249.42 51.852 249.42 52.8114C249.42 53.7709 250.198 54.5487 251.157 54.5487H273.493C274.452 54.5487 275.23 53.7709 275.23 52.8114C275.23 51.852 274.452 51.0742 273.493 51.0742Z" fill="#EAEAF3"></path>
<path d="M284.165 55.5414C285.536 55.5414 286.647 54.4303 286.647 53.0596C286.647 51.689 285.536 50.5779 284.165 50.5779C282.795 50.5779 281.684 51.689 281.684 53.0596C281.684 54.4303 282.795 55.5414 284.165 55.5414Z" fill="#EAEAF3"></path>
<path d="M221.525 196.604V232.837C221.537 233.973 221.324 235.1 220.897 236.153C220.469 237.206 219.837 238.164 219.037 238.97C218.237 239.776 217.284 240.416 216.234 240.851C215.185 241.285 214.059 241.507 212.923 241.503C208.138 241.503 203.492 237.627 203.492 232.837V196.604C203.492 191.878 208.123 188.002 212.923 188.002C215.201 188.011 217.384 188.92 218.995 190.531C220.606 192.143 221.515 194.325 221.525 196.604ZM224.905 245.712C224.902 246.929 225.14 248.134 225.604 249.258C226.068 250.382 226.75 251.404 227.61 252.264C228.47 253.124 229.492 253.806 230.616 254.27C231.74 254.734 232.945 254.972 234.162 254.969H240.386L240.48 274.084C240.48 285.624 257.748 285.534 257.748 274.084V254.974H269.382V274.089C269.382 285.569 286.755 285.599 286.755 274.089V254.974H293.073C294.285 254.97 295.484 254.728 296.602 254.261C297.72 253.793 298.735 253.11 299.589 252.251C300.443 251.391 301.119 250.372 301.58 249.251C302.04 248.13 302.274 246.929 302.271 245.717V189.58H224.905V245.712ZM302.479 186.563H224.552C224.552 173.161 232.558 161.537 244.446 155.471L238.49 144.427C237.616 142.894 239.835 141.946 240.584 143.241L246.655 154.379C251.996 152.043 257.763 150.836 263.593 150.836C269.422 150.836 275.189 152.043 280.53 154.379L286.566 143.276C287.35 141.931 289.544 142.933 288.661 144.462L282.704 155.471C294.473 161.537 302.479 173.176 302.479 186.563ZM249.082 169.19C249.082 168.319 248.736 167.483 248.119 166.867C247.503 166.251 246.667 165.904 245.796 165.904C244.947 165.937 244.144 166.298 243.556 166.91C242.967 167.522 242.638 168.339 242.638 169.188C242.638 170.037 242.967 170.854 243.556 171.466C244.144 172.078 244.947 172.438 245.796 172.471C246.665 172.471 247.498 172.127 248.114 171.514C248.73 170.901 249.078 170.069 249.082 169.2V169.19ZM284.556 169.19C284.546 168.551 284.347 167.928 283.983 167.402C283.62 166.875 283.108 166.468 282.513 166.232C281.919 165.996 281.267 165.942 280.642 166.076C280.016 166.21 279.444 166.527 278.999 166.985C278.553 167.444 278.253 168.025 278.137 168.654C278.021 169.284 278.095 169.933 278.348 170.521C278.601 171.108 279.023 171.608 279.56 171.956C280.097 172.304 280.725 172.485 281.364 172.476C282.219 172.457 283.032 172.103 283.629 171.49C284.226 170.878 284.559 170.055 284.556 169.2V169.19ZM314.208 187.992C313.077 187.989 311.957 188.209 310.912 188.64C309.867 189.071 308.917 189.705 308.118 190.504C307.319 191.303 306.685 192.253 306.254 193.298C305.823 194.343 305.603 195.463 305.606 196.594V232.827C305.601 233.961 305.82 235.085 306.25 236.134C306.68 237.183 307.312 238.138 308.111 238.943C308.91 239.747 309.86 240.387 310.906 240.825C311.952 241.262 313.074 241.49 314.208 241.493C319.027 241.493 323.638 237.617 323.638 232.827V196.594C323.623 191.789 318.992 188.002 314.208 188.002V187.992Z" fill="white"></path>
<path d="M257.61 282.651H225.348V284.14H257.61V282.651Z" fill="#535461"></path>
<path d="M290.864 282.651H269.521V284.14H290.864V282.651Z" fill="#535461"></path>
<path d="M218.398 282.651H197.055V284.14H218.398V282.651Z" fill="#535461"></path>
<path d="M324.616 282.651H303.273V284.14H324.616V282.651Z" fill="#535461"></path>
</g>
<defs>
<clipPath id="clip0_331_1326">
<rect width="544.544" height="401" fill="white"></rect>
</clipPath>
</defs>
</svg>
