<svg width="809" height="538" viewBox="0 0 809 538" fill="none" xmlns="http://www.w3.org/2000/svg">
<g clip-path="url('#clip0_331_1582')">
<path d="M758.286 510.582L749.199 516.485L722.086 484.274L735.497 475.561L758.286 510.582Z" fill="#A0616A"></path>
<path d="M764.769 519.845L736.827 538L736.597 537.647C734.722 534.765 734.069 531.256 734.782 527.893C735.495 524.53 737.516 521.588 740.4 519.713L742.987 512.528L755.028 510.21L757.467 508.625L764.769 519.845Z" fill="#2F2E41"></path>
<path d="M602.562 526.052L591.724 526.05L586.568 484.277L602.564 484.278L602.562 526.052Z" fill="#A0616A"></path>
<path d="M602.945 537.349L569.615 537.348V536.926C569.615 533.489 570.982 530.192 573.415 527.761C575.848 525.33 579.148 523.964 582.588 523.964L588.677 519.349L600.036 523.965H602.946L602.945 537.349Z" fill="#2F2E41"></path>
<path d="M714.753 270.52L617.559 272.655L607.925 284.688C607.925 284.688 608.758 280.446 608.017 285.106C607.275 289.765 588.525 382.671 592.069 385.787C595.614 388.903 585.348 410.416 584.594 411.728C583.84 413.04 575.714 477.797 584.594 483.122L587.93 505.725H603.452C603.452 505.725 619.001 487.746 615.871 484.486C612.742 481.227 621.692 470.389 622.034 464.577C622.376 458.766 625.644 432.406 623.112 428.179C620.58 423.953 617.158 408.091 623.58 401.942C630.003 395.793 659.958 320.229 659.958 320.229C659.958 320.229 668.662 408.816 668.642 415.772C668.615 424.817 674.56 420.341 674.56 428.282C674.56 429.886 693.918 471.123 706.928 484.012L733.832 504.691L746.249 495.386V481.944C746.249 481.944 734.742 457.005 730.728 452.994C726.714 448.983 711.892 436.705 711.892 431.09C711.892 425.474 704.915 423.518 709.608 416.073C714.3 408.628 712.695 405.419 711.089 402.21C709.484 399.002 712.528 267.528 712.528 267.528L714.753 270.52Z" fill="#2F2E41"></path>
<path d="M674.225 75.5735C690.446 75.5735 703.595 62.4346 703.595 46.227C703.595 30.0193 690.446 16.8804 674.225 16.8804C658.005 16.8804 644.855 30.0193 644.855 46.227C644.855 62.4346 658.005 75.5735 674.225 75.5735Z" fill="#A0616A"></path>
<path d="M697.687 281.736L705.955 256.869L720.83 259.606L711.153 285.587C711.742 287.109 711.893 288.765 711.592 290.368C711.29 291.972 710.546 293.46 709.444 294.664C708.342 295.869 706.926 296.742 705.355 297.187C703.783 297.631 702.119 297.629 700.549 297.18C698.979 296.731 697.565 295.853 696.467 294.646C695.369 293.438 694.63 291.948 694.332 290.344C694.035 288.739 694.191 287.083 694.784 285.563C695.377 284.042 696.382 282.717 697.687 281.736Z" fill="#A0616A"></path>
<path d="M526.229 233.68L546.486 217.038L557.614 227.275L535.571 244.107C535.257 245.709 534.503 247.191 533.392 248.387C532.281 249.583 530.859 250.446 529.284 250.879C527.709 251.312 526.045 251.297 524.479 250.836C522.912 250.376 521.505 249.488 520.416 248.272C519.326 247.056 518.598 245.561 518.313 243.954C518.027 242.347 518.196 240.693 518.8 239.177C519.404 237.661 520.42 236.343 521.732 235.372C523.044 234.401 524.602 233.815 526.229 233.68Z" fill="#A0616A"></path>
<path d="M639.059 41.0931C642.225 42.0753 645.278 42.6544 647.337 40.0591C649.396 37.4639 648.858 34.4965 651.921 33.2453C654.482 32.3871 657.272 32.5162 659.744 33.6072C660.189 33.7726 660.623 33.9587 661.047 34.1448C661.285 33.938 661.523 33.7417 661.782 33.5555C663.729 32.1722 666.133 31.5875 668.498 31.9219C666.769 32.7563 665.346 34.1127 664.431 35.7992C665.28 36.2231 666.139 36.647 667.008 37.0089C670.661 38.502 674.611 39.1242 678.547 38.8263C682.482 38.5284 686.294 37.3185 689.68 35.2926C686.285 44.2259 688.924 47.4105 693.901 55.5684L694.098 56.0439C693.601 53.9037 700.11 51.4325 700.11 54.5344C699.824 57.7124 699.128 60.8401 698.04 63.84C704.425 54.2346 708.192 42.9955 705.718 32.2114C705.191 29.947 704.953 27.5173 703.514 25.6768C702.076 23.8467 699.427 22.7714 697.337 23.8053C697.078 20.2987 695.873 16.9278 693.849 14.0509C691.826 11.174 689.06 8.89874 685.846 7.46695C682.632 6.03516 679.09 5.50038 675.596 5.91946C672.102 6.33854 668.788 7.69581 666.004 9.84699C663.417 11.8425 661.379 14.4584 659.071 16.7848C656.763 19.1113 654.032 21.2308 650.803 21.8098C648.754 22.1717 646.447 21.9546 644.812 23.2471C642.918 24.7463 642.898 27.3829 642.908 29.9161C644.761 29.8633 646.587 30.3636 648.154 31.3532C646.236 31.4014 644.382 32.0527 642.856 33.2144C642.827 33.2325 642.799 33.2533 642.773 33.2764C642.215 37.5363 642.442 38.4359 639.059 41.0931Z" fill="#2F2E41"></path>
<path d="M742.392 137.285C741.708 134.012 740.355 130.915 738.418 128.188C736.48 125.461 734 123.164 731.133 121.439C730.919 120.344 730.539 119.643 729.955 119.436C721.607 116.47 698.303 102.771 698.303 102.771L696.349 87.1061L654.179 85.0815L643.388 102.771C643.388 102.771 615.435 105.579 615.954 115.803C609.184 124.24 579.05 161.939 560.988 186.87C552.356 198.785 546.478 207.787 547.233 209.278C549.775 214.298 546.204 210.911 542.209 211.818C538.214 212.725 540.151 215.084 540.241 218.561C540.332 222.039 526.592 229.357 526.592 229.357C534.975 232.351 545.476 244.659 545.476 244.659C545.476 244.659 555.645 233.954 557.491 232.835C559.337 231.716 560.366 230.084 566.207 228.058C572.048 226.032 569.597 224.489 570.021 220.195C570.445 215.901 571.867 219.077 580.069 215.115C588.27 211.154 581.612 212.666 583.882 207.253C586.152 201.84 585.426 204.804 592.81 200.328C597.249 197.638 601.657 193.688 607.792 186.87C611.863 182.344 616.694 176.558 622.803 169.031C622.844 168.98 622.884 168.926 622.925 168.875C623.335 174.977 623.652 181.082 623.84 186.87C624.374 203.315 623.864 217.182 621.468 221.001C618.106 226.36 612.414 244.298 607.787 260.047C606.892 263.101 606.733 266.324 607.326 269.451C607.918 272.578 609.245 275.52 611.196 278.036C613.147 280.551 615.667 282.569 618.549 283.922C621.432 285.276 624.595 285.928 627.778 285.823C656.481 284.878 698.482 282.69 706.668 277.89C711.121 278.526 715.52 279.492 719.829 280.78C719.829 280.78 722.726 266.308 723.691 264.378C724.657 262.448 724.657 260.519 728.519 255.694C732.382 250.87 729.485 250.87 727.554 247.011C725.623 243.151 728.519 245.081 733.347 237.362C738.176 229.644 733.347 234.468 732.382 228.679C731.416 222.89 732.382 225.784 736.244 218.065C739.445 211.67 741.319 203.278 743.516 186.87C743.97 183.476 744.438 179.747 744.935 175.612C746.575 161.955 744.5 147.369 742.392 137.285Z" fill="#FABC07"></path>
<path d="M281.086 514.732C280.442 514.762 279.805 514.593 279.261 514.249C278.716 513.904 278.291 513.401 278.043 512.807C277.794 512.213 277.734 511.557 277.871 510.928C278.008 510.299 278.335 509.727 278.809 509.29L279.024 508.434C278.996 508.366 278.967 508.297 278.938 508.229C278.29 506.699 277.203 505.394 275.815 504.478C274.427 503.563 272.799 503.078 271.136 503.084C269.472 503.09 267.848 503.588 266.467 504.513C265.085 505.439 264.009 506.752 263.372 508.287C260.826 514.414 257.584 520.552 256.786 527.03C256.434 529.894 256.583 532.797 257.224 535.61C251.244 522.575 248.139 508.409 248.119 494.071C248.118 490.472 248.318 486.877 248.718 483.301C249.049 480.37 249.508 477.46 250.096 474.57C253.301 458.891 260.182 444.196 270.175 431.69C275.012 429.054 278.923 424.999 281.382 420.072C282.273 418.301 282.903 416.411 283.251 414.46C282.706 414.531 281.194 406.229 281.606 405.719C280.845 404.567 279.484 403.994 278.654 402.869C274.524 397.274 268.834 398.251 265.864 405.854C259.519 409.054 259.457 414.361 263.351 419.465C265.828 422.712 266.168 427.106 268.342 430.582C268.118 430.868 267.885 431.145 267.662 431.431C263.574 436.683 260.012 442.322 257.025 448.269C257.752 441.607 256.885 434.869 254.496 428.607C252.075 422.772 247.538 417.857 243.542 412.812C238.742 406.753 228.9 409.398 228.055 417.079C228.047 417.153 228.039 417.227 228.031 417.302C228.624 417.636 229.205 417.992 229.774 418.367C230.488 418.844 231.041 419.525 231.361 420.321C231.681 421.118 231.753 421.992 231.567 422.83C231.382 423.668 230.947 424.43 230.32 425.017C229.693 425.603 228.904 425.987 228.055 426.118L227.968 426.132C228.18 428.269 228.553 430.387 229.086 432.468C223.96 452.276 235.027 459.491 250.829 459.815C251.178 459.994 251.518 460.173 251.867 460.342C248.866 468.839 246.984 477.689 246.268 486.671C245.862 491.97 245.886 497.293 246.339 502.587L246.312 502.4C245.167 496.512 242.024 491.199 237.413 487.359C230.565 481.738 220.889 479.667 213.501 475.149C212.715 474.645 211.802 474.376 210.869 474.374C209.936 474.372 209.022 474.636 208.234 475.136C207.446 475.636 206.818 476.351 206.424 477.196C206.029 478.04 205.885 478.98 206.007 479.905C206.017 479.97 206.027 480.036 206.037 480.102C207.139 480.55 208.211 481.067 209.248 481.648C209.842 481.983 210.423 482.338 210.991 482.713C211.705 483.19 212.259 483.871 212.579 484.668C212.899 485.464 212.971 486.338 212.785 487.176C212.599 488.014 212.164 488.776 211.538 489.363C210.911 489.95 210.121 490.334 209.273 490.464L209.186 490.478C209.123 490.487 209.069 490.496 209.007 490.505C210.889 494.994 213.53 499.127 216.815 502.721C220.02 520.013 233.787 521.654 248.513 516.618H248.522C250.137 523.634 252.478 530.463 255.507 536.995H280.461C280.55 536.718 280.631 536.432 280.711 536.155C278.401 536.3 276.083 536.162 273.806 535.744C275.658 533.474 277.509 531.186 279.361 528.916C279.402 528.873 279.441 528.829 279.477 528.782C280.416 527.62 281.364 526.467 282.303 525.305L282.304 525.304C282.354 521.743 281.944 518.189 281.086 514.732Z" fill="#F2F2F2"></path>
<path d="M89.1484 477.02L96.0337 484.291L128.004 460.624L117.842 449.892L89.1484 477.02Z" fill="#C78F8F"></path>
<path d="M100.432 481.041L92.6371 473.725L90.723 471.933L70.8789 487.785L76.041 493.237L82.1171 489.343L79.3257 496.707L93.0119 511.16C93.6677 511.854 94.5281 512.319 95.4674 512.49C96.4068 512.66 97.376 512.525 98.2336 512.106C99.0911 511.687 99.7921 511.005 100.234 510.159C100.677 509.314 100.837 508.35 100.691 507.407L97.7377 488.313L102.943 483.394L100.432 481.041Z" fill="#2F2E41"></path>
<path d="M240.466 212.273L238.283 236.085C238.283 236.085 234.473 254.026 237.111 252.572C239.749 251.118 235.019 257.663 236.265 263.338C237.511 269.013 225.623 311.337 231.007 306.952C236.391 302.568 227.896 332.857 222.522 347.799C220.877 352.419 219.187 357.094 217.485 361.736C217.15 362.676 216.813 363.603 216.467 364.543C214.262 370.583 212.056 376.533 209.941 382.148C209.639 382.931 209.347 383.714 209.057 384.486C209.045 384.508 209.045 384.53 209.034 384.53C202.072 402.84 196.105 417.246 193.721 419.629C192.479 420.87 172.767 435.097 152.898 449.347C132.044 464.301 111.022 479.288 111.022 479.288L91.3887 458.708C91.3887 458.708 91.8587 458.574 92.7431 458.306C94.3774 457.836 97.3998 456.952 101.362 455.778C117.884 450.912 96.8959 443.34 111.896 437.927C116.127 436.406 118.948 435.22 119.585 434.594C123.313 430.959 128.317 422.29 130.679 425.926C133.04 429.561 143.753 402.549 146.842 399.876C148.499 398.433 153.905 391.689 158.54 385.761C162.524 380.66 165.95 376.153 165.95 376.153C165.95 376.153 166.017 373.737 166.117 369.889C166.263 364.197 166.476 355.349 166.7 346.491C166.688 346.479 166.688 346.479 166.7 346.479C166.778 343.146 166.856 339.813 166.935 336.648C166.991 334.198 167.047 331.839 167.103 329.657C167.248 323.126 167.349 318.182 167.349 316.952C167.349 312.914 167.349 316.057 170.539 313.619C171.016 313.245 171.468 312.841 171.894 312.41C172.576 311.797 173.205 311.127 173.774 310.408C174.009 309.905 172.543 310.588 170.64 310.207C169.609 310.001 168.656 309.513 167.886 308.798C163.879 305.197 168.2 294.124 168.2 294.124C159.088 275.915 159.749 260.983 164.013 249.473C167.202 241.215 172.263 233.807 178.8 227.831C181.288 225.462 183.998 223.338 186.893 221.489L187.173 219.979L190.252 203.325C191.889 202.427 193.591 201.653 195.344 201.01C200.812 199.05 206.679 198.466 212.426 199.31C218.137 200.136 223.668 201.925 228.78 204.6C232.959 206.698 236.88 209.273 240.466 212.273Z" fill="#2F2E41"></path>
<path d="M154.494 514.12L164.469 515.047L172.874 476.186L158.151 474.818L154.494 514.12Z" fill="#C78F8F"></path>
<path d="M183.223 529.351L168.402 516.948L169.074 509.812L165.627 509.7L154.948 509.353H154.936L152.317 509.263L147.873 534.251L155.362 534.944L157.343 528.009L160.108 535.392L164.07 535.761L179.932 537.237C180.066 537.248 180.212 537.259 180.346 537.259C180.977 537.26 181.6 537.127 182.175 536.869C182.75 536.61 183.264 536.233 183.682 535.761C184.331 535.05 184.728 534.146 184.812 533.188C184.878 532.468 184.767 531.742 184.49 531.074C184.214 530.406 183.779 529.815 183.223 529.351Z" fill="#2F2E41"></path>
<path d="M209.943 382.148C206.148 402.784 190.085 451.17 180.369 479.49C175.947 492.431 172.858 501.188 172.858 501.188L167.821 499.6H167.81L159.291 496.915L156.191 495.931H156.179L152.418 494.735C152.418 494.735 152.855 471.627 152.9 449.347C152.933 440.007 152.888 430.802 152.71 423.51C152.508 415.557 152.161 409.864 151.59 408.734C149.228 404.104 153.18 403.612 157.355 402.448C161.541 401.274 158.273 399.507 156.649 395.749C155.553 393.243 157.713 389.899 159.247 387.998C159.67 387.463 160.122 386.951 160.601 386.465C160.601 386.465 159.862 386.208 158.541 385.761C162.526 380.66 165.951 376.153 165.951 376.153C165.951 376.153 166.019 373.737 166.119 369.89C166.265 364.197 166.478 355.349 166.702 346.491C166.69 346.479 166.69 346.479 166.702 346.479C166.78 343.146 166.858 339.813 166.937 336.648C173.339 341.558 179.563 346.368 185.205 350.82C185.212 350.825 185.217 350.832 185.221 350.839C185.225 350.847 185.227 350.856 185.227 350.864C198.782 361.568 208.958 370.158 210.39 372.887C211.04 374.117 210.816 377.406 209.943 382.148Z" fill="#2F2E41"></path>
<path d="M807.881 537.996H1.11937C0.822492 537.996 0.537776 537.878 0.327854 537.668C0.117932 537.458 0 537.174 0 536.877C0 536.58 0.117932 536.296 0.327854 536.086C0.537776 535.876 0.822492 535.759 1.11937 535.759H807.881C808.178 535.759 808.462 535.876 808.672 536.086C808.882 536.296 809 536.58 809 536.877C809 537.174 808.882 537.458 808.672 537.668C808.462 537.878 808.178 537.996 807.881 537.996Z" fill="#E6E6E6"></path>
<path d="M184.6 172.021L186.697 191.462L185.464 216.956L241.975 210.247L247.284 172.021L240.519 172.088L184.6 172.021Z" fill="#FFB6B6"></path>
<path d="M232.669 109.226L211.401 92.4491L200.237 91.8005L183.671 102.405L179.615 123.082L170.021 146.367L184.092 209.206C184.092 209.206 185.412 213.715 181.954 214.256C178.495 214.798 178.91 221.445 178.91 221.445C178.91 221.445 179.614 227.205 176.256 227.713C172.898 228.22 163.944 228.22 171.779 238.286C179.615 248.353 241.589 210.28 241.589 210.28L250.591 163.086C250.591 163.086 268.047 139.658 249.248 126.241L232.669 109.226Z" fill="#EA4235"></path>
<path d="M139.824 251.899C138.887 250.73 138.217 249.371 137.863 247.916C137.509 246.461 137.478 244.946 137.773 243.478C138.068 242.01 138.681 240.624 139.57 239.418C140.459 238.213 141.601 237.217 142.917 236.5L169.669 146.792L186.397 155.207L157.263 241.191C158.322 243.48 158.503 246.077 157.773 248.49C157.043 250.903 155.453 252.965 153.303 254.285C151.153 255.605 148.594 256.091 146.11 255.651C143.625 255.211 141.389 253.876 139.824 251.899Z" fill="#C78F8F"></path>
<path d="M187.513 101.575C187.513 101.575 182.731 99.0354 179.46 110.024C176.842 118.821 155.594 171.219 155.323 183.959C153.575 184.329 151.999 185.27 150.845 186.634C149.69 187.997 149.023 189.706 148.947 191.49L175.217 195.008C179.808 191.139 181.012 185.914 179.236 184.363L184.94 168.797L208.736 119.271L191.002 103.349L187.513 101.575Z" fill="#EA4235"></path>
<path d="M327.882 222.412C328.221 220.953 328.236 219.438 327.926 217.973C327.616 216.508 326.988 215.129 326.087 213.933C325.186 212.736 324.033 211.752 322.71 211.049C321.387 210.346 319.925 209.942 318.429 209.864L257.061 139.832L244.043 155.353L307.524 220.293C307.56 222.814 308.52 225.234 310.223 227.094C311.925 228.955 314.252 230.127 316.761 230.388C319.271 230.649 321.789 229.981 323.838 228.511C325.888 227.041 327.327 224.871 327.882 222.412Z" fill="#C78F8F"></path>
<path d="M219.825 107.476C219.825 107.476 223.038 103.121 230.742 111.615C236.911 118.415 278.746 156.48 284.503 167.85C286.24 167.428 288.068 167.596 289.699 168.327C291.33 169.057 292.672 170.309 293.512 171.885L271.348 186.409C265.534 184.904 262.187 180.713 263.117 178.547L251.238 166.976L208.348 132.603L217.447 110.584L219.825 107.476Z" fill="#EA4235"></path>
<path d="M515.333 254.027C513.562 253.415 512.099 252.137 511.257 250.465C510.414 248.792 510.258 246.857 510.821 245.071C510.941 244.71 511.091 244.359 511.269 244.022L494.32 225.524L500.688 213.628L521.165 241.477C522.504 242.323 523.525 243.588 524.069 245.075C524.613 246.563 524.649 248.188 524.171 249.697C523.891 250.554 523.445 251.347 522.858 252.031C522.271 252.715 521.556 253.277 520.752 253.685C519.947 254.092 519.071 254.338 518.172 254.407C517.273 254.476 516.369 254.368 515.512 254.088C515.452 254.068 515.393 254.048 515.333 254.027Z" fill="#FFB6B6"></path>
<path d="M406.673 113.52C406.113 116.132 406.053 118.826 406.497 121.46C406.614 122.206 406.776 122.944 406.981 123.67C407.74 126.384 408.461 128.884 409.157 131.141C409.566 132.542 409.987 133.863 410.389 135.088C412.708 142.244 414.519 146.295 415.804 147.148C416.426 147.565 417.051 147.947 417.657 148.319C420.764 150.219 423.015 151.596 421.51 155.102C421.291 155.603 421.031 156.085 420.733 156.543C420.234 157.313 419.683 158.048 419.083 158.742C418.741 159.135 418.425 159.55 418.138 159.984C417.763 160.539 417.6 161.006 417.802 161.429C418.057 161.949 418.763 162.208 420.279 162.281C420.519 162.292 420.795 162.307 421.091 162.306C421.187 162.312 421.286 162.308 421.397 162.309C421.592 162.311 421.813 162.313 422.037 162.305C423.91 162.269 426.327 163.254 428.913 164.758C436.545 169.2 445.54 178.141 445.649 178.252L501.806 235.629L502.901 234.896L505.5 233.152L506.399 232.552L507.425 231.863L511.891 228.876L514.148 227.369L499.663 200.796L498.086 197.907L496.734 195.415L469.082 144.671L458.098 127.226L455.646 123.339L445.201 106.764C443.726 104.419 441.803 102.387 439.542 100.784C437.281 99.1816 434.727 98.0395 432.024 97.4232C429.322 96.8069 426.524 96.7286 423.791 97.1927C421.058 97.6567 418.444 98.6541 416.097 100.128C415.938 100.227 415.781 100.329 415.626 100.432C411.056 103.47 407.846 108.162 406.673 113.52Z" fill="#5186EC"></path>
<path d="M410.399 514.475L400.111 514.388L395.557 473.811L410.742 473.939L410.399 514.475Z" fill="#FFB6B6"></path>
<path d="M413.129 509.733L410.443 509.555L399.484 508.805L395.958 508.57L395.891 515.919L379.459 527.059C378.647 527.61 378.033 528.405 377.706 529.33C377.379 530.254 377.357 531.259 377.642 532.197C377.927 533.135 378.504 533.957 379.29 534.544C380.076 535.131 381.03 535.451 382.011 535.458L402.462 535.626L406.044 528.379L407.353 535.671L415.077 535.738L413.129 509.733Z" fill="#2F2E41"></path>
<path d="M518.723 506.964L508.889 509.985L492.289 472.674L506.804 468.216L518.723 506.964Z" fill="#FFB6B6"></path>
<path d="M519.893 501.624L517.274 502.262L506.607 504.846L503.171 505.685L505.331 512.72L493.029 528.289C492.421 529.059 492.075 530.002 492.042 530.981C492.008 531.961 492.289 532.925 492.842 533.735C493.396 534.544 494.194 535.155 495.119 535.479C496.045 535.803 497.05 535.823 497.988 535.537L517.543 529.531L518.763 521.534L522.222 528.088L529.599 525.817L519.893 501.624Z" fill="#2F2E41"></path>
<path d="M389.705 173.278L370.071 230.292L369.423 234.854C364.476 239.547 370.69 241.094 368.36 242.331C366.03 243.569 364.463 247.039 367.603 247.659C370.743 248.279 380.868 470.654 394.222 479.288C407.577 487.923 415.704 494.168 413.252 481.525C412.263 476.432 413.661 449.121 415.683 418.322C415.912 414.832 419.532 411.137 416.392 407.744C413.251 404.35 416.778 402.117 416.976 399.301C419.792 359.084 423.045 319.378 423.045 319.378C423.045 319.378 443.858 390.802 449.263 385.273C454.668 379.744 452.529 393.357 454.18 397.424C455.561 400.824 449.672 407.501 458.326 407.603C466.981 407.706 487.307 477.13 489.368 477.051C493.453 476.896 504.937 477.335 511.756 475.933C515.123 475.24 500.175 422.679 487.694 377.291C486.698 373.671 481.281 373.587 484.765 366.599C488.249 359.611 470.913 314.395 472.401 312.303C476.35 306.753 477.853 304.34 473.959 303.976C470.065 303.613 468.915 305.747 468.704 300.363C468.494 294.979 467.822 281.701 467.822 281.701C467.822 281.701 465.001 229.19 445.249 200.178L443.564 182.94L389.705 173.278Z" fill="#2F2E41"></path>
<path d="M438.756 64.4253L412.719 68.1297L411.148 86.9683L398.299 107.051C398.299 107.051 369.74 127.133 389.658 158.857C382.078 186.185 374.542 212.394 367.358 229.867C361.761 264.54 411.9 267.863 469.22 255.592C469.22 255.592 468.43 240.766 463.228 233.639C458.026 226.511 460.858 224.955 460.858 224.955L457.223 211.639C459.28 192.392 452.335 190.665 449.071 181.772L458.981 89.5032L438.756 64.4253Z" fill="#5186EC"></path>
<path d="M313.764 225.701C314.04 223.849 315.028 222.177 316.519 221.042C318.009 219.907 319.884 219.398 321.745 219.623C322.122 219.674 322.495 219.757 322.858 219.87L337.941 199.823L350.814 203.891L327.182 229.121C326.595 230.592 325.538 231.828 324.175 232.636C322.813 233.443 321.22 233.777 319.647 233.586C317.842 233.348 316.205 232.404 315.096 230.96C313.988 229.516 313.499 227.692 313.737 225.888C313.745 225.825 313.754 225.763 313.764 225.701Z" fill="#FFB6B6"></path>
<path d="M447.729 100.883C447.36 100.425 446.957 99.9774 446.532 99.541C443.575 96.4963 439.768 94.4146 435.607 93.5685C431.447 92.7224 427.128 93.1512 423.215 94.7989C422.835 94.9551 422.454 95.1342 422.085 95.3134C408.708 101.878 401.489 106.252 400.615 108.299C400.313 108.992 400.056 109.675 399.798 110.334C399.552 110.983 399.317 111.598 399.071 112.157C398.041 114.551 396.855 116.039 393.832 115.367C392.83 115.123 391.863 114.751 390.955 114.26C390.541 114.059 390.161 113.846 389.802 113.645C388.504 112.929 387.563 112.415 386.926 112.885C386.31 113.343 386.288 114.506 386.847 117.202C387.033 118.327 387.002 119.477 386.758 120.591C386.018 123.84 384.859 126.979 383.31 129.93C380.99 134.556 378.38 139.031 375.497 143.33L348.867 181.268L347.065 183.83L345.095 186.637L329.379 209.029L330.308 209.98L334.203 213.951L335.065 214.834L335.849 215.639L337.875 217.709L339.778 219.644L382.236 185.082L386.971 181.224L395.455 174.312L412.839 160.163L445.737 129.74C447.814 127.835 449.484 125.53 450.648 122.964C451.811 120.399 452.444 117.624 452.509 114.808C452.509 114.618 452.521 114.439 452.521 114.249C452.533 109.372 450.838 104.644 447.729 100.883Z" fill="#5186EC"></path>
<path d="M423.126 63.7395C439.194 63.7395 452.22 50.7238 452.22 34.6681C452.22 18.6124 439.194 5.59668 423.126 5.59668C407.057 5.59668 394.031 18.6124 394.031 34.6681C394.031 50.7238 407.057 63.7395 423.126 63.7395Z" fill="#FFB6B6"></path>
<path d="M461.681 74.9797C465.586 80.5637 468.198 86.9461 469.327 93.664C466.181 95.6756 462.518 96.7321 458.782 96.7056C458.655 96.2168 458.528 95.728 458.384 95.2391C457.301 91.4538 455.691 87.8397 453.6 84.5029C453.887 88.101 453.399 91.7187 452.169 95.1125C450.195 94.216 448.079 93.6707 445.918 93.5011C444.157 93.501 442.42 93.91 440.844 94.696C439.014 88.6309 437.329 83.0545 436.133 79.0533C436.097 89.0835 421.384 97.8282 405.33 96.5608C404.751 96.1987 410.567 79.7051 410.005 79.3249C408.719 78.474 407.468 77.5506 406.218 76.6454C411.473 68.5343 417.18 59.844 416.202 58.5405C416.274 60.1519 410.513 67.9007 404.243 75.2151C400.764 72.6623 420.533 31.1297 410.766 27.7622C410.603 29.2287 408.447 29.2286 405.82 28.9209C405.127 26.5013 404.096 24.1913 402.758 22.0591C402.932 24.2069 402.673 26.3678 401.996 28.4139C399.402 28.4147 396.815 28.6877 394.278 29.2287C393.691 28.3057 393.043 27.4226 392.339 26.5853C392.408 27.6057 392.378 28.6305 392.248 29.6451C389.657 30.2063 387.519 30.858 387.211 31.3832C385.182 30.6408 388.643 27.2914 387.374 25.5533C384.149 21.2082 388.933 14.8715 391.959 10.3814C398.173 1.18419 411.817 -2.00229 421.475 3.51967C421.91 2.01693 424.138 1.02121 427.001 0.351326C428.214 0.0841002 429.456 -0.0314649 430.698 0.00731211C443.019 0.224555 460.123 10.3814 460.794 22.6747C460.848 23.9058 460.939 25.2456 461.029 26.6758C461.899 40.4356 460.83 53.1272 470.234 63.1935C473.64 66.8325 473.676 84.0684 472.372 92.9399C468.983 89.3731 466.573 75.5048 461.681 74.9797Z" fill="#2F2E41"></path>
<path d="M180.906 46.7563C178.35 53.1161 171.141 65.623 170.164 72.4457L170.604 72.0138C171.442 73.4451 172.395 74.8063 173.453 76.0842C175.349 74.0946 177.639 72.5213 180.177 71.4646C178.791 74.306 177.988 77.3958 177.816 80.552C180.537 89.0742 193.115 85.2791 200.485 84.3485C207.845 92.7604 217.637 94.9554 230.459 90.1193C234.045 90.4883 238.059 90.7121 240.572 88.5948C243.085 86.4775 241.589 82.5565 242.94 79.5907C252.571 58.466 243.683 50.8444 236.132 41.2656C234.471 39.1577 234.477 36.012 232.455 34.0008C229.65 31.2131 225.349 30.3556 221.384 29.6687C222.414 29.7229 223.441 29.5113 224.365 29.0542C225.29 28.5971 226.081 27.9099 226.663 27.0588C227.173 26.2013 227.436 25.2197 227.423 24.2222C227.411 23.2247 227.123 22.25 226.591 21.4058C225.173 19.0567 222.226 17.6907 219.383 17.3495C216.583 17.1594 213.769 17.4011 211.042 18.0659C209.275 18.2981 207.565 18.8445 205.991 19.6791C205.248 20.075 204.644 20.688 204.26 21.436C203.875 22.1841 203.728 23.0316 203.839 23.8654C204.076 24.6353 204.484 25.3418 205.032 25.9323C205.58 26.5227 206.255 26.9819 207.005 27.2755C208.15 27.759 209.354 28.0883 210.585 28.2547C204.929 27.5213 199.184 28.5261 194.113 31.1355C187.759 34.5224 183.471 40.3998 180.906 46.7563Z" fill="#2F2E41"></path>
<path d="M215.315 82.4118C227.86 82.4118 238.03 72.25 238.03 59.7147C238.03 47.1794 227.86 37.0176 215.315 37.0176C202.769 37.0176 192.6 47.1794 192.6 59.7147C192.6 72.25 202.769 82.4118 215.315 82.4118Z" fill="#C78F8F"></path>
<path d="M193.456 47.545C194.773 51.5223 198.536 52.8039 202.015 53.6033C203.112 53.8587 204.216 54.0967 205.329 54.3086C205.74 53.7952 206.177 53.2921 206.634 52.8165C208.53 50.8269 210.82 49.2536 213.358 48.1969C212.26 50.4413 211.531 52.8474 211.198 55.3231C213.301 55.628 215.415 55.8771 217.541 56.0706C219.34 56.4532 221.218 56.1306 222.786 55.1694C224.353 54.2082 225.492 52.682 225.965 50.9061C227.901 54.0691 230.19 57.0478 233.32 58.3042C235.11 58.9468 237.058 58.9997 238.88 58.455C240.703 57.9103 242.302 56.7967 243.445 55.2775C245.249 52.7993 246.501 49.9628 247.114 46.9598C248.002 43.4377 248.496 39.3804 246.752 37.1458C245.355 35.3372 242.945 35.3047 240.721 35.4652C235.812 35.8414 230.956 36.7211 226.228 38.0906L225.828 38.9898C226.64 34.1123 224.878 29.4196 221.617 27.7506C219.417 26.6347 216.771 26.8218 214.2 27.0482C210.897 27.1954 207.634 27.826 204.514 28.9198C200.936 30.2953 197.87 32.7421 195.736 35.9253C193.454 39.3878 192.319 44.1101 193.456 47.545Z" fill="#2F2E41"></path>
<path d="M225.839 26.3311C225.615 26.265 226.196 26.3499 225.995 26.3553C226.095 26.3495 226.194 26.3356 226.292 26.3137C226.308 26.3104 226.535 26.2383 226.384 26.2913C226.722 26.1905 227.023 25.9942 227.251 25.7262C227.784 25.0669 228.203 24.3225 228.489 23.5242C228.85 22.4693 229.43 21.5026 230.192 20.6875C230.408 20.4707 230.672 20.3078 230.963 20.2121C231.254 20.1164 231.563 20.0906 231.866 20.1368C232.169 20.183 232.456 20.2998 232.705 20.4779C232.954 20.6559 233.158 20.8901 233.299 21.1615C233.587 22.2086 233.488 23.3238 233.022 24.3045C232.696 25.3023 232.212 26.2412 231.587 27.0848C230.54 28.4643 229.114 29.5097 227.483 30.0936C225.595 30.7788 223.536 30.8376 221.612 30.2612C221.357 30.1559 221.139 29.9789 220.984 29.7519C220.829 29.5248 220.743 29.2576 220.737 28.9826C220.731 28.7077 220.805 28.4369 220.95 28.2033C221.095 27.9698 221.305 27.7835 221.555 27.6671L224.764 26.3545C224.933 26.2795 225.115 26.2385 225.299 26.2339C225.484 26.2292 225.668 26.261 225.84 26.3274C226.013 26.3937 226.17 26.4934 226.304 26.6207C226.438 26.748 226.545 26.9004 226.62 27.0692C226.695 27.2379 226.736 27.4198 226.74 27.6043C226.744 27.7889 226.712 27.9725 226.646 28.1446C226.579 28.3167 226.479 28.4741 226.351 28.6076C226.224 28.7411 226.071 28.8481 225.902 28.9226L225.896 28.9252L222.687 30.2378L222.63 27.6436C223.031 27.7591 223.443 27.8295 223.859 27.8535C224.303 27.898 224.751 27.8791 225.189 27.7974C225.609 27.7424 226.022 27.6418 226.421 27.4975C226.676 27.4044 226.926 27.2984 227.17 27.18C227.259 27.1369 227.347 27.0922 227.434 27.0459C227.428 27.0492 227.801 26.832 227.637 26.934C228.052 26.669 228.442 26.3659 228.801 26.0286C228.927 25.909 229.044 25.7793 229.149 25.6407C229.332 25.4163 229.502 25.1814 229.657 24.9372C229.973 24.4201 230.224 23.8656 230.403 23.2866C230.484 23.0433 230.553 22.7959 230.609 22.5454C230.624 22.4079 230.649 22.2716 230.683 22.1375C230.802 21.818 230.661 22.3241 230.798 22.4626L231.389 22.8981C231.5 22.9312 231.618 22.9389 231.732 22.9206C231.846 22.9023 231.955 22.8584 232.051 22.7924C232.121 22.6938 232.105 22.7102 232.005 22.8414C231.887 22.9958 231.78 23.1576 231.683 23.3256C231.471 23.7212 231.28 24.1272 231.109 24.5422C230.756 25.4248 230.309 26.2672 229.777 27.055C229.256 27.8519 228.496 28.464 227.606 28.8041C226.716 29.1441 225.741 29.1947 224.821 28.9487C224.475 28.8113 224.198 28.5437 224.048 28.2036C223.898 27.8636 223.888 27.4783 224.02 27.131C224.161 26.7887 224.43 26.5143 224.769 26.3652C225.108 26.2161 225.491 26.2038 225.839 26.3311Z" fill="#2F2E41"></path>
</g>
<defs>
<clipPath id="clip0_331_1582">
<rect width="809" height="538" fill="white"></rect>
</clipPath>
</defs>
</svg>
