<svg width="547" height="401" viewBox="0 0 547 401" fill="none" xmlns="http://www.w3.org/2000/svg">
<g clip-path="url('#clip0_331_1248')">
<path d="M255.531 317.437L264.16 313.579L253.352 277.678L240.615 283.372L255.531 317.437Z" fill="#FFB6B6"></path>
<path d="M249.35 307.691L262.259 298.583L265.822 304.321L284.027 305.216C284.926 305.26 285.788 305.59 286.486 306.158C287.184 306.726 287.682 307.502 287.907 308.373C288.133 309.244 288.074 310.164 287.739 310.998C287.404 311.833 286.81 312.539 286.045 313.013L270.086 322.904L263.81 318.933L266.261 325.275L260.243 329.004L249.35 307.691Z" fill="#2F2E41"></path>
<path d="M477.202 249.485C477.202 245.874 475.989 242.944 474.499 242.937H68.2527C66.7558 242.944 65.5488 245.874 65.5421 249.485V398.116C65.5421 398.451 65.4173 398.774 65.1918 399.023C64.9664 399.271 64.6564 399.427 64.3225 399.459C63.2321 399.564 62.1417 399.661 61.0514 399.751C61.0244 399.751 60.9974 399.758 60.9704 399.758C60.3771 399.812 59.7837 399.852 59.1904 399.899H59.1836C58.8784 399.335 58.5767 398.767 58.2786 398.193C58.1777 398 58.1251 397.785 58.125 397.567V240.991C58.125 239.994 58.1655 238.99 58.2329 238C58.3291 236.64 58.4979 235.286 58.7386 233.944C59.8781 227.686 62.4539 223.449 65.3802 223.436H477.364C477.791 223.439 478.213 223.528 478.605 223.699C479.18 223.953 479.7 224.317 480.135 224.77C480.727 225.384 481.233 226.075 481.639 226.824C483.082 229.364 484.114 233.149 484.478 237.555C484.478 237.595 484.485 237.636 484.485 237.676C484.579 238.768 484.626 239.879 484.619 240.991L484.714 255.426L484.774 264.035L484.957 291.048L485.024 300.64L485.321 399.124C485.321 399.482 485.179 399.824 484.926 400.077C484.673 400.33 484.33 400.472 483.972 400.472H478.551C478.193 400.472 477.85 400.33 477.597 400.077C477.344 399.824 477.202 399.482 477.202 399.124V249.485Z" fill="#E6E6E6"></path>
<path d="M366.813 155.887H323.039C322.42 155.888 321.826 156.135 321.389 156.573C320.952 157.011 320.706 157.605 320.707 158.223V227.306H369.151V158.223C369.151 157.916 369.091 157.613 368.973 157.329C368.856 157.046 368.684 156.788 368.466 156.571C368.249 156.354 367.991 156.182 367.708 156.065C367.424 155.948 367.12 155.887 366.813 155.887ZM345.073 195.139C343.704 195.133 342.393 194.587 341.425 193.62C340.457 192.653 339.911 191.343 339.904 189.976V182.007C339.906 180.639 340.451 179.327 341.42 178.36C342.389 177.393 343.703 176.849 345.073 176.849C346.443 176.849 347.757 177.393 348.726 178.36C349.695 179.327 350.24 180.639 350.242 182.007V189.976C350.236 191.343 349.689 192.653 348.721 193.62C347.753 194.587 346.442 195.133 345.073 195.139Z" fill="#2F2E41"></path>
<path d="M320.557 225.096V231.761C320.557 232.107 320.695 232.438 320.939 232.682C321.184 232.926 321.515 233.064 321.861 233.064H367.997C368.342 233.063 368.673 232.925 368.917 232.681C369.161 232.437 369.299 232.106 369.301 231.761V225.096H320.557Z" fill="#3F3D56"></path>
<path d="M264.316 59.6827C263.812 60.9498 263.036 62.0911 262.043 63.0262C261.05 63.9613 259.864 64.6675 258.568 65.0951C257.272 65.5227 255.898 65.6612 254.543 65.5008C253.188 65.3405 251.884 64.8853 250.724 64.1672L188.934 107.171L187.229 90.0335L247.982 50.7098C249.319 48.8428 251.295 47.5305 253.535 47.0215C255.776 46.5125 258.125 46.8423 260.138 47.9483C262.152 49.0544 263.689 50.8598 264.459 53.0225C265.229 55.1852 265.178 57.555 264.316 59.6827Z" fill="#FFB6B6"></path>
<path d="M125.972 86.7972C125.972 86.7972 119.281 96.6737 129.78 105.414C140.279 114.154 182.833 112.415 189.7 112.34C196.567 112.265 228.075 79.7024 228.075 79.7024L227.869 60.8965L189.828 83.4468L125.972 86.7972Z" fill="#6C63FF"></path>
<path d="M122.184 152.369L122.859 165.168C122.859 165.168 120.869 176.506 122.505 178.952C124.13 181.387 168.739 185.008 168.739 185.008C168.739 185.008 167.341 165.92 169.864 152.113L122.184 152.369Z" fill="#FFB6B6"></path>
<path d="M259.094 282.684L241.922 297.701L208.266 228.937C174.893 234.671 143.408 236.508 116.174 229.571C106.954 227.255 101.318 217.744 103.586 208.327C103.692 207.887 103.814 207.451 103.953 207.02C107.213 197.086 115.744 190.056 122.466 179.129L171.565 179.874L166.081 198.778L213.777 192.612C223.369 191.372 232.129 198.308 233.343 208.104C233.407 208.621 233.449 209.141 233.469 209.662L259.094 282.684Z" fill="#2F2E41"></path>
<path d="M141.355 66.2379C152.366 66.2379 161.292 57.3204 161.292 46.3202C161.292 35.32 152.366 26.4026 141.355 26.4026C130.344 26.4026 121.418 35.32 121.418 46.3202C121.418 57.3204 130.344 66.2379 141.355 66.2379Z" fill="#FFB6B6"></path>
<path d="M129.668 73.428L147.948 75.5765C148.719 75.6671 149.442 75.9957 150.018 76.5165C150.593 77.0373 150.991 77.7244 151.157 78.482L154.064 91.772L172.186 113.093C172.186 113.093 178.694 125.283 176.253 139.098C174.785 147.417 172.244 155.511 168.695 163.178C168.695 163.178 124.128 181.388 122.501 178.95C120.874 176.512 120.346 165.438 120.346 165.438L114.612 101.711C114.284 98.3536 114.704 94.965 115.841 91.7884C116.978 88.6118 118.805 85.726 121.19 83.3379C122.637 81.9164 124.065 80.9213 125.227 80.9213C127.852 80.8329 127.515 74.9307 129.668 73.428Z" fill="#6C63FF"></path>
<path d="M168.893 344.138L177.376 348.289L197.798 316.847L185.277 310.72L168.893 344.138Z" fill="#FFB6B6"></path>
<path d="M189.213 337.032L171.785 330.422L195.704 258.65C163.209 249.131 138.697 233.8 117.295 215.602C110.035 209.469 104.59 201.594 110.773 194.134C111.062 193.785 111.364 193.448 111.679 193.122C118.98 185.633 137.511 187.074 148.359 180.215L172.621 206.093L171.101 213.025L216.649 228.451C225.809 231.553 230.621 241.632 227.398 250.962C227.227 251.455 227.036 251.94 226.824 252.417L189.213 337.032Z" fill="#2F2E41"></path>
<path d="M168.603 339.129L183.184 345.217L180.21 351.281L189.122 367.166C189.562 367.95 189.74 368.855 189.629 369.747C189.519 370.64 189.125 371.474 188.506 372.127C187.888 372.781 187.076 373.219 186.19 373.379C185.304 373.539 184.391 373.412 183.582 373.016L166.716 364.762L166.75 357.341L162.674 362.783L156.314 359.671L168.603 339.129Z" fill="#2F2E41"></path>
<path d="M140.09 229.236C138.946 228.492 137.98 227.506 137.259 226.348C136.539 225.191 136.081 223.889 135.918 222.536C135.755 221.182 135.891 219.809 136.317 218.514C136.742 217.218 137.447 216.032 138.381 215.038L108.424 146.015L125.576 147.738L152.128 215.018C153.695 216.697 154.591 218.891 154.647 221.186C154.703 223.481 153.914 225.716 152.43 227.469C150.946 229.221 148.871 230.369 146.596 230.695C144.322 231.021 142.007 230.502 140.09 229.236Z" fill="#FFB6B6"></path>
<path d="M140.882 88.3943C140.882 88.3943 132.516 79.8869 121.862 88.4373C111.208 96.9877 104.487 139.003 103.201 145.743C101.915 152.482 127.624 189.784 127.624 189.784L146.116 193.306L131.524 151.589L140.882 88.3943Z" fill="#6C63FF"></path>
<path d="M439.297 48.0759H252.182C250.574 48.0785 249.033 48.7176 247.896 49.8533C246.76 50.9889 246.12 52.5285 246.117 54.1345V180.279C246.119 181.885 246.758 183.425 247.895 184.561C249.032 185.697 250.574 186.336 252.182 186.337H439.297C440.905 186.336 442.447 185.697 443.584 184.561C444.721 183.425 445.36 181.885 445.362 180.279V54.1345C445.359 52.5285 444.719 50.9889 443.583 49.8533C442.446 48.7176 440.905 48.0785 439.297 48.0759Z" fill="#3F3D56"></path>
<path d="M437.735 52.4519H253.745C252.884 52.4538 252.06 52.7967 251.452 53.4054C250.844 54.0141 250.502 54.8389 250.502 55.6988V178.717C250.503 179.575 250.846 180.399 251.453 181.006C252.061 181.613 252.886 181.955 253.745 181.957H437.735C438.595 181.955 439.419 181.613 440.027 181.006C440.635 180.399 440.977 179.575 440.979 178.717V55.6988C440.979 54.8389 440.637 54.0141 440.029 53.4054C439.421 52.7967 438.596 52.4538 437.735 52.4519Z" fill="white"></path>
<path d="M401.898 235.384H292.434C292.134 235.384 291.838 235.317 291.568 235.188C291.297 235.059 291.059 234.872 290.87 234.639C290.681 234.407 290.547 234.135 290.476 233.844C290.406 233.553 290.401 233.25 290.463 232.957L292.162 224.898C292.258 224.447 292.506 224.043 292.865 223.753C293.223 223.462 293.67 223.303 294.132 223.301H400.2C400.661 223.303 401.108 223.462 401.467 223.753C401.825 224.043 402.073 224.447 402.17 224.898L403.868 232.957C403.93 233.25 403.925 233.553 403.855 233.844C403.785 234.135 403.65 234.407 403.461 234.639C403.273 234.872 403.034 235.059 402.764 235.188C402.493 235.317 402.197 235.384 401.898 235.384Z" fill="#2F2E41"></path>
<path d="M297.95 224.752H295.237C295.056 224.752 294.908 224.899 294.908 225.081V226.444C294.908 226.626 295.056 226.773 295.237 226.773H297.95C298.132 226.773 298.28 226.626 298.28 226.444V225.081C298.28 224.899 298.132 224.752 297.95 224.752Z" fill="#3F3D56"></path>
<path d="M304.695 224.752H301.982C301.8 224.752 301.652 224.899 301.652 225.081V226.444C301.652 226.626 301.8 226.773 301.982 226.773H304.695C304.876 226.773 305.024 226.626 305.024 226.444V225.081C305.024 224.899 304.876 224.752 304.695 224.752Z" fill="#3F3D56"></path>
<path d="M311.437 224.752H308.724C308.542 224.752 308.395 224.899 308.395 225.081V226.444C308.395 226.626 308.542 226.773 308.724 226.773H311.437C311.619 226.773 311.766 226.626 311.766 226.444V225.081C311.766 224.899 311.619 224.752 311.437 224.752Z" fill="#3F3D56"></path>
<path d="M318.179 224.752H315.466C315.284 224.752 315.137 224.899 315.137 225.081V226.444C315.137 226.626 315.284 226.773 315.466 226.773H318.179C318.361 226.773 318.508 226.626 318.508 226.444V225.081C318.508 224.899 318.361 224.752 318.179 224.752Z" fill="#3F3D56"></path>
<path d="M324.923 224.752H322.21C322.028 224.752 321.881 224.899 321.881 225.081V226.444C321.881 226.626 322.028 226.773 322.21 226.773H324.923C325.105 226.773 325.252 226.626 325.252 226.444V225.081C325.252 224.899 325.105 224.752 324.923 224.752Z" fill="#3F3D56"></path>
<path d="M331.665 224.752H328.952C328.77 224.752 328.623 224.899 328.623 225.081V226.444C328.623 226.626 328.77 226.773 328.952 226.773H331.665C331.847 226.773 331.994 226.626 331.994 226.444V225.081C331.994 224.899 331.847 224.752 331.665 224.752Z" fill="#3F3D56"></path>
<path d="M338.407 224.752H335.694C335.513 224.752 335.365 224.899 335.365 225.081V226.444C335.365 226.626 335.513 226.773 335.694 226.773H338.407C338.589 226.773 338.737 226.626 338.737 226.444V225.081C338.737 224.899 338.589 224.752 338.407 224.752Z" fill="#3F3D56"></path>
<path d="M345.152 224.752H342.439C342.257 224.752 342.109 224.899 342.109 225.081V226.444C342.109 226.626 342.257 226.773 342.439 226.773H345.152C345.333 226.773 345.481 226.626 345.481 226.444V225.081C345.481 224.899 345.333 224.752 345.152 224.752Z" fill="#3F3D56"></path>
<path d="M351.894 224.752H349.181C348.999 224.752 348.852 224.899 348.852 225.081V226.444C348.852 226.626 348.999 226.773 349.181 226.773H351.894C352.076 226.773 352.223 226.626 352.223 226.444V225.081C352.223 224.899 352.076 224.752 351.894 224.752Z" fill="#3F3D56"></path>
<path d="M358.636 224.752H355.923C355.741 224.752 355.594 224.899 355.594 225.081V226.444C355.594 226.626 355.741 226.773 355.923 226.773H358.636C358.818 226.773 358.965 226.626 358.965 226.444V225.081C358.965 224.899 358.818 224.752 358.636 224.752Z" fill="#3F3D56"></path>
<path d="M365.378 224.752H362.665C362.483 224.752 362.336 224.899 362.336 225.081V226.444C362.336 226.626 362.483 226.773 362.665 226.773H365.378C365.56 226.773 365.707 226.626 365.707 226.444V225.081C365.707 224.899 365.56 224.752 365.378 224.752Z" fill="#3F3D56"></path>
<path d="M372.122 224.752H369.409C369.227 224.752 369.08 224.899 369.08 225.081V226.444C369.08 226.626 369.227 226.773 369.409 226.773H372.122C372.304 226.773 372.451 226.626 372.451 226.444V225.081C372.451 224.899 372.304 224.752 372.122 224.752Z" fill="#3F3D56"></path>
<path d="M378.864 224.752H376.151C375.97 224.752 375.822 224.899 375.822 225.081V226.444C375.822 226.626 375.97 226.773 376.151 226.773H378.864C379.046 226.773 379.194 226.626 379.194 226.444V225.081C379.194 224.899 379.046 224.752 378.864 224.752Z" fill="#3F3D56"></path>
<path d="M385.607 224.752H382.894C382.712 224.752 382.564 224.899 382.564 225.081V226.444C382.564 226.626 382.712 226.773 382.894 226.773H385.607C385.788 226.773 385.936 226.626 385.936 226.444V225.081C385.936 224.899 385.788 224.752 385.607 224.752Z" fill="#3F3D56"></path>
<path d="M392.351 224.752H389.638C389.456 224.752 389.309 224.899 389.309 225.081V226.444C389.309 226.626 389.456 226.773 389.638 226.773H392.351C392.533 226.773 392.68 226.626 392.68 226.444V225.081C392.68 224.899 392.533 224.752 392.351 224.752Z" fill="#3F3D56"></path>
<path d="M399.093 224.752H396.38C396.198 224.752 396.051 224.899 396.051 225.081V226.444C396.051 226.626 396.198 226.773 396.38 226.773H399.093C399.275 226.773 399.422 226.626 399.422 226.444V225.081C399.422 224.899 399.275 224.752 399.093 224.752Z" fill="#3F3D56"></path>
<path d="M297.872 228.12H295.159C294.977 228.12 294.83 228.268 294.83 228.449V229.812C294.83 229.994 294.977 230.141 295.159 230.141H297.872C298.054 230.141 298.201 229.994 298.201 229.812V228.449C298.201 228.268 298.054 228.12 297.872 228.12Z" fill="#3F3D56"></path>
<path d="M304.614 228.12H301.901C301.72 228.12 301.572 228.268 301.572 228.449V229.812C301.572 229.994 301.72 230.141 301.901 230.141H304.614C304.796 230.141 304.944 229.994 304.944 229.812V228.449C304.944 228.268 304.796 228.12 304.614 228.12Z" fill="#3F3D56"></path>
<path d="M311.357 228.12H308.644C308.462 228.12 308.314 228.268 308.314 228.449V229.812C308.314 229.994 308.462 230.141 308.644 230.141H311.357C311.538 230.141 311.686 229.994 311.686 229.812V228.449C311.686 228.268 311.538 228.12 311.357 228.12Z" fill="#3F3D56"></path>
<path d="M318.101 228.12H315.388C315.206 228.12 315.059 228.268 315.059 228.449V229.812C315.059 229.994 315.206 230.141 315.388 230.141H318.101C318.283 230.141 318.43 229.994 318.43 229.812V228.449C318.43 228.268 318.283 228.12 318.101 228.12Z" fill="#3F3D56"></path>
<path d="M324.843 228.12H322.13C321.948 228.12 321.801 228.268 321.801 228.449V229.812C321.801 229.994 321.948 230.141 322.13 230.141H324.843C325.025 230.141 325.172 229.994 325.172 229.812V228.449C325.172 228.268 325.025 228.12 324.843 228.12Z" fill="#3F3D56"></path>
<path d="M331.585 228.12H328.872C328.69 228.12 328.543 228.268 328.543 228.449V229.812C328.543 229.994 328.69 230.141 328.872 230.141H331.585C331.767 230.141 331.914 229.994 331.914 229.812V228.449C331.914 228.268 331.767 228.12 331.585 228.12Z" fill="#3F3D56"></path>
<path d="M338.327 228.12H335.614C335.433 228.12 335.285 228.268 335.285 228.449V229.812C335.285 229.994 335.433 230.141 335.614 230.141H338.327C338.509 230.141 338.657 229.994 338.657 229.812V228.449C338.657 228.268 338.509 228.12 338.327 228.12Z" fill="#3F3D56"></path>
<path d="M345.072 228.12H342.358C342.177 228.12 342.029 228.268 342.029 228.449V229.812C342.029 229.994 342.177 230.141 342.358 230.141H345.072C345.253 230.141 345.401 229.994 345.401 229.812V228.449C345.401 228.268 345.253 228.12 345.072 228.12Z" fill="#3F3D56"></path>
<path d="M351.814 228.12H349.101C348.919 228.12 348.771 228.268 348.771 228.449V229.812C348.771 229.994 348.919 230.141 349.101 230.141H351.814C351.995 230.141 352.143 229.994 352.143 229.812V228.449C352.143 228.268 351.995 228.12 351.814 228.12Z" fill="#3F3D56"></path>
<path d="M358.556 228.12H355.843C355.661 228.12 355.514 228.268 355.514 228.449V229.812C355.514 229.994 355.661 230.141 355.843 230.141H358.556C358.738 230.141 358.885 229.994 358.885 229.812V228.449C358.885 228.268 358.738 228.12 358.556 228.12Z" fill="#3F3D56"></path>
<path d="M365.3 228.12H362.587C362.405 228.12 362.258 228.268 362.258 228.449V229.812C362.258 229.994 362.405 230.141 362.587 230.141H365.3C365.482 230.141 365.629 229.994 365.629 229.812V228.449C365.629 228.268 365.482 228.12 365.3 228.12Z" fill="#3F3D56"></path>
<path d="M372.042 228.12H369.329C369.147 228.12 369 228.268 369 228.449V229.812C369 229.994 369.147 230.141 369.329 230.141H372.042C372.224 230.141 372.371 229.994 372.371 229.812V228.449C372.371 228.268 372.224 228.12 372.042 228.12Z" fill="#3F3D56"></path>
<path d="M378.784 228.12H376.071C375.89 228.12 375.742 228.268 375.742 228.449V229.812C375.742 229.994 375.89 230.141 376.071 230.141H378.784C378.966 230.141 379.114 229.994 379.114 229.812V228.449C379.114 228.268 378.966 228.12 378.784 228.12Z" fill="#3F3D56"></path>
<path d="M385.529 228.12H382.815C382.634 228.12 382.486 228.268 382.486 228.449V229.812C382.486 229.994 382.634 230.141 382.815 230.141H385.529C385.71 230.141 385.858 229.994 385.858 229.812V228.449C385.858 228.268 385.71 228.12 385.529 228.12Z" fill="#3F3D56"></path>
<path d="M392.271 228.12H389.558C389.376 228.12 389.229 228.268 389.229 228.449V229.812C389.229 229.994 389.376 230.141 389.558 230.141H392.271C392.453 230.141 392.6 229.994 392.6 229.812V228.449C392.6 228.268 392.453 228.12 392.271 228.12Z" fill="#3F3D56"></path>
<path d="M399.013 228.12H396.3C396.118 228.12 395.971 228.268 395.971 228.449V229.812C395.971 229.994 396.118 230.141 396.3 230.141H399.013C399.195 230.141 399.342 229.994 399.342 229.812V228.449C399.342 228.268 399.195 228.12 399.013 228.12Z" fill="#3F3D56"></path>
<path d="M353.837 232.162H327.524C327.343 232.162 327.195 232.309 327.195 232.491V233.854C327.195 234.036 327.343 234.183 327.524 234.183H353.837C354.019 234.183 354.166 234.036 354.166 233.854V232.491C354.166 232.309 354.019 232.162 353.837 232.162Z" fill="#3F3D56"></path>
<path d="M425.065 389.129L419.866 380.783L418.828 385.552C418.645 386.387 418.463 387.236 418.295 388.078C416.818 386.818 415.247 385.653 413.71 384.535C408.99 381.113 404.272 377.686 399.557 374.255L401.033 382.81C401.944 388.078 402.894 393.454 405.146 398.27C405.396 398.816 405.666 399.355 405.956 399.88H427.897C428.073 399.392 428.195 398.886 428.261 398.371C428.266 398.338 428.268 398.304 428.267 398.27C428.611 395.003 426.804 391.925 425.065 389.129Z" fill="#F0F0F0"></path>
<path d="M128.383 389.129L123.184 380.783L122.146 385.552C121.964 386.387 121.782 387.236 121.613 388.078C120.137 386.818 118.565 385.653 117.028 384.535C112.308 381.113 107.591 377.686 102.875 374.255L104.352 382.81C105.262 388.078 106.213 393.454 108.465 398.27C108.714 398.816 108.984 399.355 109.274 399.88H131.215C131.392 399.392 131.514 398.886 131.579 398.371C131.585 398.338 131.587 398.304 131.586 398.27C131.93 395.003 130.123 391.925 128.383 389.129Z" fill="#F0F0F0"></path>
<path d="M545.451 400.793L359.519 401C359.307 400.999 359.103 400.915 358.953 400.764C358.803 400.614 358.719 400.41 358.719 400.198C358.719 399.986 358.803 399.782 358.953 399.631C359.103 399.481 359.307 399.396 359.519 399.396L545.451 399.189C545.664 399.189 545.868 399.274 546.018 399.424C546.168 399.575 546.252 399.779 546.252 399.991C546.252 400.203 546.168 400.407 546.018 400.557C545.868 400.708 545.664 400.792 545.451 400.793Z" fill="#CACACA"></path>
<path d="M186.735 400.793L0.802484 401C0.589957 400.999 0.38635 400.915 0.236288 400.764C0.086226 400.614 0.00195312 400.41 0.00195312 400.198C0.00195312 399.986 0.086226 399.782 0.236288 399.631C0.38635 399.481 0.589957 399.396 0.802484 399.396L186.735 399.189C186.947 399.189 187.151 399.274 187.301 399.424C187.451 399.575 187.535 399.779 187.535 399.991C187.535 400.203 187.451 400.407 187.301 400.557C187.151 400.708 186.947 400.792 186.735 400.793Z" fill="#CACACA"></path>
<path d="M120.272 28.5652C117.055 29.5217 114.055 26.834 111.816 24.2877L112.612 25.2307C107.346 28.9357 104.197 34.9714 102.154 41.0812C100.111 47.1842 98.9713 53.577 96.6653 59.5924C94.3593 65.6012 90.6373 71.4146 84.9396 74.4122C77.3068 78.4271 67.9545 76.6015 59.8362 73.7049C59.7283 73.6645 59.6272 73.6308 59.5193 73.5904C62.8074 67.4545 64.821 60.7182 65.4395 53.7858C62.0998 60.2996 57.2834 65.9441 51.374 70.2694C46.0694 67.8604 40.9687 65.0265 36.1219 61.7952C32.9865 59.7002 29.6825 56.9922 29.3184 53.2401C28.9476 49.515 31.7323 46.1132 35.0161 44.3213C38.2998 42.5295 42.0758 41.9232 45.6629 40.8454C49.2433 39.7743 52.8979 38.0162 54.7791 34.7828C59.1148 27.3459 51.8191 16.8576 56.4716 9.60933C58.7641 6.04584 63.2144 4.61775 67.3409 3.62752C73.6396 2.12239 80.0328 1.04438 86.477 0.400848C92.1342 -0.164998 97.9802 -0.373821 103.361 1.44497C108.742 3.26376 113.623 7.4874 114.776 13.0516C117.919 14.7019 121.243 16.5275 122.928 19.6598C124.614 22.7855 123.677 27.5547 120.272 28.5652Z" fill="#2F2E41"></path>
<path d="M115.471 27.312C112.392 31.1664 110.715 35.3347 110.715 37.831C104.317 49.5131 113.466 59.5476 125.16 65.9392C129.824 68.502 135.21 69.44 140.466 68.6051L140.956 66.5188L141.618 68.3982C141.618 68.3982 149.232 93.5197 151.743 94.9934C150.79 90.5226 149.699 69.8222 149.168 65.459C148.434 59.5204 150.994 50.6794 152.841 45.303C153.986 41.9894 154.574 38.5092 154.58 35.0037V34.8505L156.378 40.6211L162.925 37.831C161.707 30.8516 162.925 22.9283 148.323 23.6155C140.425 18.1891 133.47 17.3626 127.757 18.9016C127.02 17.7628 122.769 19.8957 121.54 19.2961" fill="#2F2E41"></path>
<path d="M440.98 55.6988V178.717C440.979 179.575 440.636 180.399 440.028 181.006C439.42 181.613 438.596 181.955 437.737 181.957H372.858C365.68 175.307 359.792 167.392 355.488 158.609C355.205 158.043 354.935 157.47 354.679 156.891C350.758 148.39 348.383 139.259 347.667 129.926C347.619 129.353 347.579 128.781 347.552 128.201C347.464 126.719 347.424 125.217 347.424 123.708C347.411 113.673 349.308 103.726 353.014 94.3987C353.236 93.8193 353.472 93.2468 353.715 92.6742C361.173 75.1685 374.649 60.9028 391.71 52.4519H437.737C438.597 52.4538 439.422 52.7967 440.03 53.4054C440.638 54.0141 440.98 54.8389 440.98 55.6988Z" fill="#6C63FF"></path>
<path d="M428.487 69.4011H256.328C256.149 69.3972 255.979 69.3234 255.853 69.1956C255.728 69.0677 255.658 68.896 255.658 68.7172C255.658 68.5383 255.728 68.3666 255.853 68.2388C255.979 68.1109 256.149 68.0371 256.328 68.0332H428.487C428.666 68.0371 428.836 68.1109 428.961 68.2388C429.087 68.3666 429.157 68.5383 429.157 68.7172C429.157 68.896 429.087 69.0677 428.961 69.1956C428.836 69.3234 428.666 69.3972 428.487 69.4011Z" fill="#CACACA"></path>
<path d="M268.047 64.5409C270.263 64.5409 272.06 62.7063 272.06 60.4432C272.06 58.1801 270.263 56.3455 268.047 56.3455C265.832 56.3455 264.035 58.1801 264.035 60.4432C264.035 62.7063 265.832 64.5409 268.047 64.5409Z" fill="#3F3D56"></path>
<path d="M281.907 64.5409C284.123 64.5409 285.919 62.7063 285.919 60.4432C285.919 58.1801 284.123 56.3455 281.907 56.3455C279.691 56.3455 277.895 58.1801 277.895 60.4432C277.895 62.7063 279.691 64.5409 281.907 64.5409Z" fill="#3F3D56"></path>
<path d="M295.768 64.5409C297.984 64.5409 299.78 62.7063 299.78 60.4432C299.78 58.1801 297.984 56.3455 295.768 56.3455C293.552 56.3455 291.756 58.1801 291.756 60.4432C291.756 62.7063 293.552 64.5409 295.768 64.5409Z" fill="#3F3D56"></path>
<path d="M420.141 57.3613H410.295C410.1 57.3652 409.914 57.4453 409.778 57.5846C409.641 57.7238 409.564 57.9111 409.564 58.1061C409.564 58.3011 409.641 58.4884 409.778 58.6276C409.914 58.7669 410.1 58.847 410.295 58.8509H420.141C420.336 58.847 420.522 58.7669 420.659 58.6276C420.796 58.4884 420.872 58.3011 420.872 58.1061C420.872 57.9111 420.796 57.7238 420.659 57.5846C420.522 57.4453 420.336 57.3652 420.141 57.3613Z" fill="#3F3D56"></path>
<path d="M420.141 60.157H410.295C410.1 60.1608 409.914 60.241 409.778 60.3802C409.641 60.5195 409.564 60.7067 409.564 60.9018C409.564 61.0968 409.641 61.284 409.778 61.4233C409.914 61.5625 410.1 61.6427 410.295 61.6465H420.141C420.336 61.6427 420.522 61.5625 420.659 61.4233C420.796 61.284 420.872 61.0968 420.872 60.9018C420.872 60.7067 420.796 60.5195 420.659 60.3802C420.522 60.241 420.336 60.1608 420.141 60.157Z" fill="#3F3D56"></path>
<path d="M420.141 62.949H410.295C410.1 62.9528 409.914 63.033 409.778 63.1722C409.641 63.3115 409.564 63.4987 409.564 63.6938C409.564 63.8888 409.641 64.076 409.778 64.2153C409.914 64.3545 410.1 64.4347 410.295 64.4385H420.141C420.336 64.4347 420.522 64.3545 420.659 64.2153C420.796 64.076 420.872 63.8888 420.872 63.6938C420.872 63.4987 420.796 63.3115 420.659 63.1722C420.522 63.033 420.336 62.9528 420.141 62.949Z" fill="#3F3D56"></path>
<path d="M307.76 109.359H286.248C284.632 109.359 283.322 110.668 283.322 112.282V112.282C283.322 113.896 284.632 115.205 286.248 115.205H307.76C309.376 115.205 310.686 113.896 310.686 112.282C310.686 110.668 309.376 109.359 307.76 109.359Z" fill="#6C63FF"></path>
<path d="M321.658 121.051H272.351C270.736 121.051 269.426 122.359 269.426 123.973C269.426 125.588 270.736 126.896 272.351 126.896H321.658C323.273 126.896 324.583 125.588 324.583 123.973C324.583 122.359 323.273 121.051 321.658 121.051Z" fill="#E6E6E6"></path>
<path d="M321.658 132.742H272.351C270.736 132.742 269.426 134.051 269.426 135.665V135.665C269.426 137.279 270.736 138.588 272.351 138.588H321.658C323.273 138.588 324.583 137.279 324.583 135.665C324.583 134.051 323.273 132.742 321.658 132.742Z" fill="#E6E6E6"></path>
<path d="M273.926 174.904C273.93 177.312 273.501 179.701 272.659 181.957H253.745C252.886 181.955 252.061 181.613 251.453 181.006C250.846 180.399 250.503 179.575 250.502 178.717V154.951C251.559 154.78 252.628 154.695 253.698 154.695C256.354 154.695 258.985 155.218 261.439 156.233C263.894 157.249 266.124 158.737 268.002 160.614C269.88 162.49 271.37 164.718 272.387 167.17C273.403 169.622 273.927 172.25 273.926 174.904Z" fill="#6C63FF"></path>
<path opacity="0.2" d="M441.147 94.3987V92.6742H412.214V72.6877H410.495V92.6742H377.334V72.6877H375.614V92.6742H353.714C353.471 93.2468 353.235 93.8194 353.012 94.3987H375.614V128.201H347.551C347.578 128.781 347.618 129.353 347.665 129.926H375.614V156.891H354.678C354.934 157.47 355.204 158.043 355.487 158.609H375.614V181.276H377.334V158.609H410.495V181.276H412.214V158.609H441.147V156.891H412.214V129.926H441.147V128.201H412.214V94.3987H441.147ZM410.495 156.891H377.334V129.926H410.495V156.891ZM410.495 128.201H377.334V94.3987H410.495V128.201Z" fill="black"></path>
<path d="M417.852 169.194C417.483 169.211 417.118 169.114 416.806 168.917C416.494 168.719 416.25 168.431 416.107 168.09C415.965 167.75 415.93 167.374 416.009 167.013C416.088 166.652 416.275 166.324 416.546 166.074L416.67 165.584C416.654 165.544 416.637 165.505 416.621 165.466C416.249 164.588 415.626 163.84 414.83 163.316C414.034 162.791 413.101 162.513 412.147 162.516C411.193 162.52 410.262 162.805 409.47 163.336C408.678 163.866 408.061 164.619 407.695 165.499C406.235 169.012 404.377 172.53 403.919 176.244C403.718 177.886 403.803 179.55 404.17 181.162C400.742 173.69 398.961 165.569 398.95 157.349C398.949 155.286 399.064 153.225 399.293 151.175C399.483 149.495 399.746 147.826 400.083 146.17C401.921 137.181 405.867 128.757 411.596 121.588C414.369 120.076 416.612 117.752 418.022 114.927C418.533 113.912 418.894 112.828 419.094 111.71C418.781 111.751 418.463 111.776 418.15 111.797C418.053 111.802 417.95 111.807 417.853 111.812L417.816 111.814C417.472 111.829 417.131 111.745 416.834 111.572C416.537 111.398 416.297 111.142 416.142 110.835C415.987 110.528 415.924 110.183 415.961 109.841C415.998 109.499 416.133 109.175 416.35 108.908C416.485 108.742 416.62 108.576 416.755 108.41C416.961 108.154 417.171 107.903 417.376 107.647C417.4 107.623 417.422 107.597 417.443 107.57C417.678 107.278 417.914 106.991 418.15 106.699C417.72 106.031 417.141 105.472 416.458 105.065C414.094 103.681 410.832 104.64 409.124 106.776C407.412 108.912 407.088 111.91 407.683 114.579C408.268 116.85 409.236 119.005 410.545 120.952C410.417 121.116 410.283 121.275 410.155 121.439C407.812 124.45 405.769 127.683 404.056 131.092C404.473 127.273 403.976 123.41 402.606 119.82C401.218 116.475 398.616 113.657 396.325 110.765C393.573 107.292 387.93 108.808 387.445 113.211C387.441 113.254 387.436 113.296 387.432 113.339C387.772 113.531 388.105 113.734 388.431 113.95C388.84 114.223 389.158 114.614 389.341 115.07C389.525 115.527 389.566 116.028 389.459 116.508C389.353 116.989 389.104 117.425 388.744 117.762C388.385 118.098 387.932 118.318 387.445 118.393L387.396 118.401C387.517 119.626 387.731 120.841 388.037 122.033C388.922 125.364 390.486 128.475 392.632 131.173C394.777 133.871 397.457 136.096 400.504 137.711C400.704 137.813 400.899 137.916 401.099 138.013C399.378 142.884 398.299 147.958 397.888 153.107C397.656 156.145 397.669 159.196 397.929 162.232L397.914 162.124C397.257 158.749 395.455 155.703 392.811 153.501C388.884 150.279 383.336 149.092 379.1 146.502C378.65 146.213 378.126 146.059 377.591 146.057C377.056 146.056 376.532 146.208 376.08 146.494C375.629 146.781 375.269 147.19 375.042 147.675C374.816 148.159 374.733 148.698 374.804 149.228C374.809 149.266 374.815 149.303 374.821 149.341C375.452 149.598 376.067 149.894 376.662 150.227C377.002 150.419 377.335 150.623 377.661 150.838C378.071 151.111 378.388 151.502 378.572 151.959C378.755 152.415 378.796 152.916 378.69 153.397C378.583 153.877 378.334 154.314 377.975 154.65C377.615 154.987 377.163 155.207 376.676 155.282L376.626 155.289C376.59 155.294 376.559 155.3 376.524 155.305C377.603 157.879 379.117 160.248 381.001 162.308C383.327 164.803 386.14 166.796 389.265 168.166C392.39 169.536 395.763 170.254 399.175 170.275H399.181C400.107 174.297 401.449 178.212 403.186 181.957H417.494C417.545 181.798 417.591 181.634 417.637 181.475C416.313 181.558 414.983 181.479 413.678 181.239C414.74 179.938 415.801 178.626 416.863 177.325C416.887 177.301 416.909 177.275 416.93 177.248C417.468 176.582 418.012 175.921 418.55 175.255L418.551 175.254C418.579 173.213 418.344 171.176 417.852 169.194ZM401.468 136.994L401.475 136.984L401.468 137.004V136.994ZM398.298 165.536L398.175 165.26C398.181 165.06 398.181 164.86 398.175 164.655C398.175 164.599 398.165 164.542 398.165 164.486C398.211 164.839 398.252 165.193 398.304 165.546L398.298 165.536Z" fill="#2F2E41"></path>
</g>
<defs>
<clipPath id="clip0_331_1248">
<rect width="546.254" height="401" rx="21" fill="white"></rect>
</clipPath>
</defs>
</svg>
