<svg width="459" height="401" viewBox="0 0 459 401" fill="none" xmlns="http://www.w3.org/2000/svg">
<g clip-path="url('#clip0_331_1413')">
<path d="M86.151 282.391L81.423 319.637L74.4653 277.327C41.0275 264.496 1.93094 262.004 1.93094 262.004C1.93094 262.004 -6.69678 342.813 21.789 376.602C50.2747 410.391 80.3079 405.255 105.087 384.365C129.865 363.476 140.006 334.744 111.521 300.954C105.18 293.434 96.2302 287.334 86.151 282.391Z" fill="#F2F2F2"></path>
<path d="M76.8791 325.268L78.2831 326.934C94.5052 346.377 103.974 364.234 106.535 380.272C106.576 380.505 106.602 380.737 106.644 380.97L105.558 381.138L104.512 381.286C101.937 363.808 90.7649 345.454 76.6199 328.491C76.1694 327.94 75.7119 327.381 75.238 326.835C69.1866 319.707 62.6537 312.845 56.0306 306.411C55.5223 305.908 54.9989 305.404 54.4755 304.901C45.6896 296.453 36.8225 288.78 28.9026 282.297C28.3449 281.836 27.7789 281.382 27.2199 280.936C13.7694 270.018 3.29313 262.728 0.957333 261.128C0.67593 260.928 0.516517 260.823 0.480469 260.797L1.07609 259.914L1.07738 259.898L1.68124 259.009C1.71733 259.035 2.25368 259.386 3.22133 260.066C6.85614 262.587 16.6207 269.518 28.7281 279.312C29.2719 279.756 29.8379 280.21 30.3956 280.671C36.8283 285.926 43.8549 291.935 50.9344 298.492C52.7154 300.136 54.4507 301.776 56.1405 303.412C56.6721 303.909 57.1956 304.413 57.7038 304.916C64.8643 311.87 71.2561 318.654 76.8791 325.268Z" fill="white"></path>
<path d="M28.728 279.312C28.2381 279.852 27.7401 280.399 27.2198 280.936C25.8089 282.398 24.324 283.786 22.7711 285.096C16.1593 290.685 8.37788 294.719 0 296.902C0.0220959 297.631 0.0442362 298.36 0.0650406 299.104C8.93382 296.874 17.1757 292.647 24.1613 286.745C25.8189 285.347 27.4015 283.862 28.9025 282.297C29.4145 281.766 29.9125 281.219 30.3955 280.671C34.4041 276.173 37.7063 271.092 40.1891 265.602C39.4523 265.447 38.7307 265.294 38.0242 265.142C35.6401 270.297 32.5076 275.072 28.728 279.312Z" fill="white"></path>
<path d="M56.1403 303.412C55.5991 303.925 55.0441 304.421 54.4752 304.901C54.309 305.055 54.1276 305.208 53.9545 305.354C46.7823 311.4 38.2544 315.623 29.0977 317.662C19.941 319.7 10.4272 319.495 1.36719 317.062C1.4475 317.826 1.5278 318.591 1.62332 319.357C10.9153 321.713 20.6349 321.821 29.9772 319.673C39.3194 317.525 48.0153 313.181 55.3447 307.003C55.5755 306.808 55.8064 306.614 56.0303 306.411C56.6005 305.916 57.1555 305.42 57.7036 304.915C66.1268 297.043 72.1043 286.911 74.9214 275.731C74.2475 275.467 73.5735 275.203 72.8913 274.946C70.1965 285.862 64.3749 295.756 56.1403 303.412Z" fill="white"></path>
<path d="M76.8797 325.268C76.3443 325.804 75.7949 326.324 75.2386 326.835C74.6411 327.381 74.0366 327.919 73.4182 328.44C63.7713 336.554 51.7557 341.325 39.1705 342.038C26.5853 342.752 14.1076 339.37 3.60547 332.398C3.7975 333.379 3.98252 334.351 4.19101 335.318C15.0176 341.979 27.6681 345.059 40.345 344.121C53.022 343.182 65.0809 338.272 74.8084 330.089C75.4268 329.568 76.0382 329.038 76.6206 328.491C77.1921 327.981 77.7414 327.462 78.2838 326.934C89.1728 316.194 95.5734 301.717 96.1896 286.435C95.5021 285.971 94.7968 285.536 94.0846 285.092C93.7921 300.212 87.6207 314.623 76.8797 325.268Z" fill="white"></path>
<path d="M263.141 94.7892V34.7494C263.141 25.5333 259.48 16.6947 252.964 10.1779C246.447 3.66117 237.608 6.36369e-05 228.392 6.88736e-10H101.19C96.6265 -2.87288e-05 92.1078 0.898765 87.8918 2.64506C83.6758 4.39136 79.845 6.95097 76.6182 10.1777C73.3914 13.4045 70.8317 17.2352 69.0854 21.4512C67.339 25.6672 66.4402 30.1859 66.4401 34.7493V74.6235H64.2051V88.6732H66.4401V103.66H64.2051V125.202H66.4401V134.569H64.2051V156.112H66.4401V364.132C66.4401 368.696 67.3389 373.214 69.0852 377.43C70.8315 381.646 73.3911 385.477 76.6179 388.704C79.8447 391.931 83.6754 394.49 87.8914 396.237C92.1074 397.983 96.626 398.882 101.189 398.882H228.392C232.955 398.882 237.474 397.983 241.69 396.237C245.906 394.49 249.737 391.931 252.963 388.704C256.19 385.477 258.75 381.647 260.496 377.431C262.243 373.215 263.141 368.696 263.141 364.133V137.527H265.333V94.7892H263.141Z" fill="#3F3D56"></path>
<path d="M229.795 9.04055H213.191C213.954 10.9126 214.246 12.9437 214.039 14.9549C213.833 16.9662 213.135 18.8958 212.008 20.5739C210.88 22.2519 209.357 23.6269 207.572 24.5776C205.788 25.5284 203.797 26.0257 201.776 26.0259H128.903C126.881 26.0257 124.891 25.5284 123.106 24.5776C121.322 23.6269 119.799 22.2519 118.671 20.5739C117.543 18.8958 116.846 16.9662 116.639 14.9549C116.433 12.9437 116.724 10.9126 117.488 9.04053H101.98C95.0973 9.04053 88.4967 11.7746 83.63 16.6412C78.7634 21.5079 76.0293 28.1085 76.0293 34.991V363.891C76.0293 367.299 76.7005 370.673 78.0046 373.822C79.3088 376.97 81.2203 379.831 83.63 382.24C86.0397 384.65 88.9005 386.562 92.0489 387.866C95.1974 389.17 98.5719 389.841 101.98 389.841H229.795C236.677 389.841 243.278 387.107 248.145 382.24C253.011 377.374 255.745 370.773 255.745 363.891V34.991C255.745 31.5831 255.074 28.2086 253.77 25.0602C252.466 21.9117 250.554 19.051 248.145 16.6412C245.735 14.2315 242.874 12.32 239.726 11.0159C236.577 9.71176 233.203 9.04054 229.795 9.04055Z" fill="white"></path>
<path d="M233.01 123.501H98.7649C97.8294 123.5 96.9325 123.128 96.271 122.466C95.6095 121.805 95.2374 120.908 95.2363 119.972V65.5016C95.2374 64.5661 95.6095 63.6692 96.271 63.0077C96.9325 62.3462 97.8294 61.9741 98.7649 61.973H233.01C233.945 61.9741 234.842 62.3462 235.504 63.0077C236.165 63.6692 236.537 64.5661 236.538 65.5016V119.972C236.537 120.908 236.165 121.805 235.504 122.466C234.842 123.128 233.945 123.5 233.01 123.501Z" fill="#FABC07"></path>
<path d="M220.227 149.278H111.547C110.518 149.278 109.531 148.869 108.803 148.141C108.075 147.413 107.666 146.426 107.666 145.397C107.666 144.367 108.075 143.38 108.803 142.652C109.531 141.924 110.518 141.515 111.547 141.515H220.227C221.257 141.515 222.244 141.924 222.972 142.652C223.7 143.38 224.109 144.367 224.109 145.397C224.109 146.426 223.7 147.413 222.972 148.141C222.244 148.869 221.257 149.278 220.227 149.278Z" fill="#FABC07"></path>
<path d="M220.226 169.038H111.547C110.424 169.038 109.347 168.592 108.553 167.798C107.759 167.004 107.312 165.927 107.312 164.804C107.312 163.681 107.759 162.604 108.553 161.81C109.347 161.016 110.424 160.569 111.547 160.569H220.226C221.349 160.569 222.426 161.016 223.221 161.81C224.015 162.604 224.461 163.681 224.461 164.804C224.461 165.927 224.015 167.004 223.221 167.798C222.426 168.592 221.349 169.038 220.226 169.038Z" fill="#E4E4E4"></path>
<path d="M220.226 188.445H111.547C110.424 188.445 109.347 187.999 108.553 187.205C107.759 186.411 107.312 185.334 107.312 184.211C107.312 183.088 107.759 182.011 108.553 181.217C109.347 180.423 110.424 179.977 111.547 179.977H220.226C221.349 179.977 222.426 180.423 223.221 181.217C224.015 182.011 224.461 183.088 224.461 184.211C224.461 185.334 224.015 186.411 223.221 187.205C222.426 187.999 221.349 188.445 220.226 188.445Z" fill="#E4E4E4"></path>
<path d="M233.01 286.52H98.7649C97.8294 286.519 96.9325 286.147 96.271 285.486C95.6095 284.824 95.2374 283.927 95.2363 282.992V228.521C95.2374 227.586 95.6095 226.689 96.271 226.027C96.9325 225.366 97.8294 224.994 98.7649 224.993H233.01C233.945 224.994 234.842 225.366 235.504 226.027C236.165 226.689 236.537 227.586 236.538 228.521V282.992C236.537 283.927 236.165 284.824 235.504 285.486C234.842 286.147 233.945 286.519 233.01 286.52Z" fill="#E4E4E4"></path>
<path d="M220.226 312.65H111.547C110.424 312.65 109.347 312.204 108.553 311.41C107.759 310.616 107.312 309.539 107.312 308.416C107.312 307.293 107.759 306.216 108.553 305.422C109.347 304.628 110.424 304.182 111.547 304.182H220.226C221.349 304.182 222.426 304.628 223.221 305.422C224.015 306.216 224.461 307.293 224.461 308.416C224.461 309.539 224.015 310.616 223.221 311.41C222.426 312.204 221.349 312.65 220.226 312.65Z" fill="#E4E4E4"></path>
<path d="M220.226 332.058H111.547C110.424 332.058 109.347 331.611 108.553 330.817C107.759 330.023 107.312 328.946 107.312 327.823C107.312 326.7 107.759 325.623 108.553 324.829C109.347 324.035 110.424 323.589 111.547 323.589H220.226C221.349 323.589 222.426 324.035 223.221 324.829C224.015 325.623 224.461 326.7 224.461 327.823C224.461 328.946 224.015 330.023 223.221 330.817C222.426 331.611 221.349 332.058 220.226 332.058Z" fill="#E4E4E4"></path>
<path d="M220.226 351.465H111.547C110.424 351.465 109.347 351.019 108.553 350.224C107.759 349.43 107.312 348.353 107.312 347.23C107.312 346.107 107.759 345.03 108.553 344.236C109.347 343.442 110.424 342.996 111.547 342.996H220.226C221.349 342.996 222.426 343.442 223.221 344.236C224.015 345.03 224.461 346.107 224.461 347.23C224.461 348.353 224.015 349.43 223.221 350.224C222.426 351.019 221.349 351.465 220.226 351.465Z" fill="#E4E4E4"></path>
<path d="M342.203 103.272C340.838 93.2582 339.125 82.5069 332.062 75.2782C329.821 72.9845 327.139 71.1684 324.177 69.9394C321.215 68.7103 318.035 68.0938 314.829 68.127C311.622 68.1602 308.455 68.8424 305.52 70.1325C302.584 71.4225 299.939 73.2938 297.746 75.6333C292.605 81.118 290.335 88.8194 290.127 96.3342C289.919 103.849 291.593 111.28 293.449 118.565C303.275 118.761 313.028 116.842 322.046 112.936C324.256 111.858 326.548 110.957 328.902 110.245C331.285 109.638 332.983 111.164 335.199 112.228L336.416 109.899C337.412 111.752 340.495 111.203 341.614 109.421C342.732 107.639 342.487 105.357 342.203 103.272Z" fill="#2F2E41"></path>
<path d="M432.202 377.561L424.985 382.334L403.143 356.769L413.793 349.726L432.202 377.561Z" fill="#9E616A"></path>
<path d="M438.669 383.339L415.4 398.728L415.206 398.433C413.617 396.031 413.048 393.097 413.623 390.275C414.198 387.453 415.871 384.975 418.273 383.387L432.485 373.988L438.669 383.339Z" fill="#2F2E41"></path>
<path d="M339.045 390.341H330.393L326.277 356.969L339.046 356.97L339.045 390.341Z" fill="#9E616A"></path>
<path d="M341.251 398.728L313.354 398.727V398.374C313.354 395.494 314.498 392.732 316.534 390.696C318.57 388.66 321.332 387.516 324.212 387.516L341.251 387.516L341.251 398.728Z" fill="#2F2E41"></path>
<path d="M277.486 161.006L244.82 137.671C244.964 136.449 244.749 135.211 244.202 134.108C243.656 133.006 242.8 132.086 241.74 131.46C240.68 130.835 239.461 130.531 238.231 130.586C237.002 130.64 235.814 131.051 234.814 131.768C233.814 132.486 233.043 133.478 232.597 134.625C232.15 135.772 232.047 137.024 232.299 138.229C232.551 139.434 233.147 140.539 234.016 141.411C234.885 142.283 235.989 142.883 237.193 143.139C241.276 146.568 271.101 176.229 275.371 174.665C279.705 173.077 298.655 170.202 298.655 170.202L299.182 152.21L277.486 161.006Z" fill="#9E616A"></path>
<path d="M303.152 203.462L303.461 244.519C303.461 244.519 310.53 305.353 313.137 315.629C315.745 325.906 326.328 373.459 326.328 373.459L343.533 370.684L332.453 308.512L335.802 256.983L355.113 308.626L404.15 359.884L416.578 349.856L373.896 287.131L360.859 235.748C360.859 235.748 362.481 209.17 347.874 198.936L303.152 203.462Z" fill="#2F2E41"></path>
<path d="M313.035 113.18C323.45 113.18 331.892 104.737 331.892 94.3223C331.892 83.9078 323.45 75.4651 313.035 75.4651C302.62 75.4651 294.178 83.9078 294.178 94.3223C294.178 104.737 302.62 113.18 313.035 113.18Z" fill="#9E616A"></path>
<path d="M317.942 210.087L310.934 225.732L331.272 234.844L338.281 219.199L317.942 210.087Z" fill="#2F2E41"></path>
<path d="M343.239 130.605C341.017 126.183 339.937 120.719 335.199 119.285C332 118.317 319.061 119.768 316.145 121.402C311.295 124.121 315.69 129.215 312.829 133.983C309.719 139.165 306.608 144.348 303.498 149.53C301.36 153.093 299.199 156.707 298.043 160.698C296.886 164.689 296.831 169.168 298.8 172.827C300.563 176.102 303.757 178.425 305.53 181.694C307.373 185.094 304.064 200.276 302.348 203.743L303.171 204.123C314.579 204.793 326.025 204.408 337.362 202.973C340.176 202.616 343.097 202.151 345.416 200.518C348.832 198.112 350.182 193.746 351.026 189.654C355.087 169.654 352.346 148.869 343.239 130.605Z" fill="#FABC07"></path>
<path d="M304.645 173.437C309.754 168.416 314.889 163.365 319.095 157.567C323.3 151.768 326.571 145.131 327.484 138.027C327.875 135.76 327.719 133.433 327.031 131.238C326.248 129.086 324.512 127.176 322.276 126.685C318.696 125.899 315.442 128.756 312.888 131.384C305.357 139.132 297.826 146.879 290.295 154.627C295.092 160.942 299.889 167.256 304.687 173.571L304.645 173.437Z" fill="#FABC07"></path>
<path d="M360.33 177.304C358.742 172.97 355.868 154.02 355.868 154.02L337.876 153.493L346.672 175.189L322.668 208.792C322.668 208.792 322.713 208.866 322.793 208.997C321.531 208.795 320.238 208.978 319.081 209.523C317.925 210.068 316.96 210.949 316.313 212.051C315.666 213.154 315.367 214.426 315.454 215.701C315.542 216.976 316.013 218.195 316.805 219.198C317.596 220.202 318.673 220.943 319.893 221.324C321.113 221.706 322.419 221.71 323.642 221.337C324.864 220.963 325.945 220.23 326.744 219.232C327.543 218.234 328.021 217.018 328.118 215.743C328.206 215.794 328.309 215.812 328.41 215.795C328.51 215.778 328.602 215.726 328.668 215.649C331.339 212.297 361.918 181.638 360.33 177.304Z" fill="#9E616A"></path>
<path d="M362.159 165.337C360.508 158.367 358.844 151.359 356.06 144.759C353.276 138.159 349.29 131.925 343.684 127.467C341.947 125.959 339.875 124.887 337.641 124.34C335.394 123.897 332.862 124.393 331.284 126.052C328.759 128.708 329.519 132.971 330.445 136.516C333.176 146.97 335.907 157.425 338.637 167.879C346.523 167.043 354.409 166.207 362.295 165.371L362.159 165.337Z" fill="#FABC07"></path>
<path d="M336.61 95.789C336.02 91.2273 335.405 86.6273 334.019 82.3319C332.634 78.0365 330.402 74.0134 327.199 71.5801C322.128 67.7276 315.563 68.4706 309.878 70.6866C305.482 72.4004 301.19 75.0052 298.089 79.1929C294.989 83.3806 293.247 89.356 294.401 94.8316C300.465 93.1439 306.53 91.4562 312.594 89.7684L311.93 90.321C315.865 92.5385 318.854 97.1266 319.747 102.322C320.645 107.498 319.497 112.821 316.545 117.168C320.681 115.44 324.817 113.712 328.953 111.984C331.506 110.917 334.238 109.688 335.752 106.952C337.507 103.779 337.099 99.5747 336.61 95.789Z" fill="#2F2E41"></path>
<path d="M247.577 125.352L235.446 143.558C235.157 143.995 234.763 144.353 234.3 144.6C233.837 144.846 233.32 144.973 232.796 144.97C232.172 144.97 231.562 144.786 231.043 144.44C230.523 144.094 230.118 143.602 229.878 143.026C229.793 142.832 229.729 142.629 229.688 142.421C229.524 141.595 229.694 140.737 230.161 140.036L242.291 121.83C242.522 121.483 242.82 121.185 243.166 120.953C243.513 120.721 243.901 120.559 244.31 120.477C244.719 120.395 245.14 120.395 245.55 120.475C245.959 120.556 246.348 120.717 246.695 120.948C247.042 121.179 247.34 121.477 247.572 121.823C247.804 122.17 247.966 122.558 248.048 122.967C248.13 123.376 248.13 123.797 248.049 124.206C247.969 124.615 247.808 125.005 247.577 125.352Z" fill="#6C63FF"></path>
<path d="M236.424 142.089L233.969 145.753L229.624 149.583C229.338 149.835 228.977 149.986 228.597 150.011C228.216 150.037 227.838 149.937 227.521 149.725C227.203 149.514 226.965 149.203 226.842 148.842C226.719 148.481 226.719 148.09 226.842 147.729L228.744 142.162L231.139 138.568L236.424 142.089Z" fill="#3F3D56"></path>
<path d="M248.113 115.804L242.034 121.163C241.834 121.338 241.678 121.557 241.577 121.802C241.476 122.048 241.433 122.313 241.451 122.578C241.469 122.842 241.547 123.099 241.68 123.329C241.813 123.558 241.997 123.754 242.218 123.901L243.368 124.668L240.042 129.66C239.991 129.737 239.955 129.823 239.937 129.914C239.919 130.005 239.919 130.099 239.938 130.19C239.956 130.28 239.992 130.367 240.043 130.444C240.095 130.521 240.161 130.587 240.238 130.638C240.315 130.69 240.402 130.725 240.493 130.743C240.584 130.761 240.677 130.761 240.768 130.743C240.859 130.725 240.945 130.689 241.022 130.637C241.099 130.586 241.165 130.519 241.217 130.442L244.543 125.45L245.693 126.217C246.075 126.471 246.541 126.563 246.991 126.474C247.44 126.385 247.836 126.121 248.092 125.74C248.176 125.614 248.243 125.477 248.292 125.333L250.896 117.659C251.018 117.298 251.018 116.906 250.895 116.545C250.773 116.184 250.534 115.874 250.217 115.663C249.899 115.451 249.521 115.35 249.141 115.376C248.76 115.402 248.399 115.552 248.113 115.804Z" fill="#3F3D56"></path>
<path d="M457.643 400.216H0.839793C0.617358 400.215 0.404248 400.126 0.247191 399.969C0.0901332 399.811 0.00195312 399.598 0.00195312 399.375C0.00195312 399.153 0.0901332 398.939 0.247191 398.782C0.404248 398.624 0.617358 398.536 0.839793 398.535H457.643C457.866 398.536 458.079 398.624 458.236 398.782C458.393 398.939 458.481 399.153 458.481 399.375C458.481 399.598 458.393 399.811 458.236 399.969C458.079 400.126 457.866 400.215 457.643 400.216Z" fill="#3F3D56"></path>
<path d="M170.651 15.1927H151.597C151.223 15.1927 150.864 15.044 150.599 14.7793C150.334 14.5146 150.186 14.1556 150.186 13.7813C150.186 13.407 150.334 13.048 150.599 12.7833C150.864 12.5186 151.223 12.3699 151.597 12.3699H170.651C171.026 12.3699 171.385 12.5186 171.649 12.7833C171.914 13.048 172.063 13.407 172.063 13.7813C172.063 14.1556 171.914 14.5146 171.649 14.7793C171.385 15.044 171.026 15.1927 170.651 15.1927Z" fill="white"></path>
<path d="M180.177 15.1927C180.957 15.1927 181.588 14.5608 181.588 13.7813C181.588 13.0018 180.957 12.3699 180.177 12.3699C179.398 12.3699 178.766 13.0018 178.766 13.7813C178.766 14.5608 179.398 15.1927 180.177 15.1927Z" fill="white"></path>
</g>
<defs>
<clipPath id="clip0_331_1413">
<rect width="458.484" height="401" fill="white"></rect>
</clipPath>
</defs>
</svg>
