<svg width="401" height="401" viewBox="0 0 401 401" fill="none" xmlns="http://www.w3.org/2000/svg">
<g clip-path="url('#clip0_331_1137')">
<path d="M401 200.5C401.07 247.829 384.329 293.644 353.761 329.777C352.651 331.096 351.52 332.393 350.369 333.683C336.816 348.925 321.029 362.023 303.546 372.528C299.536 374.935 295.438 377.204 291.252 379.334C290.829 379.549 290.399 379.764 289.976 379.972C289.469 380.228 288.956 380.478 288.443 380.728C277.85 385.912 266.817 390.143 255.474 393.368C254.295 393.702 253.113 394.025 251.929 394.34C237.008 398.288 221.68 400.497 206.251 400.924C205.447 400.944 204.656 400.958 203.893 400.972C203.622 400.979 203.358 400.986 203.095 400.986C202.228 400.993 201.367 401 200.5 401C184.241 401.012 168.04 399.048 152.255 395.151C150.673 394.763 149.099 394.354 147.531 393.924C139.272 391.669 131.168 388.881 123.269 385.577C119.107 383.843 115.018 381.972 111.003 379.965C110.095 379.507 109.186 379.049 108.291 378.577C107.909 378.39 107.535 378.189 107.16 377.995C85.7629 366.701 66.5745 351.646 50.5135 333.552C49.4035 332.31 48.3143 331.047 47.2389 329.777C29.5427 308.796 16.3425 284.405 8.45578 258.114C0.569092 231.824 -1.83611 204.195 1.38915 176.937C4.6144 149.679 13.4014 123.374 27.206 99.6504C41.0106 75.9267 59.5388 55.2898 81.6431 39.0177C82.7809 38.1782 83.9256 37.3457 85.0842 36.534C85.3131 36.3744 85.5421 36.2149 85.771 36.0553C106.129 21.7955 128.978 11.4768 153.136 5.63341C154.51 5.29347 155.884 4.97434 157.271 4.67602C183.438 -1.04781 210.481 -1.5218 236.833 3.28153C238.213 3.53822 239.594 3.80186 240.968 4.08631C264.91 8.99718 287.745 18.2699 308.333 31.4417C308.791 31.7331 309.249 32.0245 309.707 32.3298C310.629 32.9264 311.552 33.5369 312.461 34.1544C339.734 52.4895 362.076 77.254 377.516 106.264C392.957 135.273 401.022 167.637 401 200.5Z" fill="#F2F2F2"></path>
<path d="M149.854 304.226L85.7708 309.915L85.084 309.977V36.5339C85.3129 36.3744 85.5418 36.2148 85.7708 36.0552C99.1265 26.7134 113.574 19.0389 128.792 13.2024L132.066 58.3669L132.365 62.5018L135.604 107.292L136.603 121.07L149.737 302.63L149.854 304.226Z" fill="#CCCCCC"></path>
<path d="M308.333 31.4417C308.791 31.7331 309.249 32.0245 309.707 32.3297V309.977L308.333 309.852L244.943 304.226L245.061 302.63L258.194 121.07L259.193 107.292L262.433 62.5018L262.732 58.367L266.166 11.0032C280.975 16.1366 295.129 22.9967 308.333 31.4417Z" fill="#CCCCCC"></path>
<path d="M308.332 31.4417V313.765C308.332 319.183 304.6 323.589 300.007 323.589H94.0956C90.2937 323.589 87.0677 320.564 86.0895 316.436C85.8759 315.562 85.7688 314.665 85.7703 313.765V36.0552C85.5414 36.2148 85.3125 36.3744 85.0835 36.5339C83.9249 37.3456 82.7802 38.1782 81.6424 39.0176V313.765C81.5809 317.881 83.1179 321.86 85.9299 324.865C87.4045 326.41 89.2696 327.527 91.3275 328.098C92.2297 328.344 93.1606 328.467 94.0956 328.466H300.007C300.944 328.467 301.877 328.343 302.782 328.098C308.318 326.607 312.46 320.751 312.46 313.765V34.1543C311.551 33.5368 310.629 32.9263 309.706 32.3297C309.248 32.0244 308.79 31.733 308.332 31.4417Z" fill="#CCCCCC"></path>
<path d="M310.398 58.3699H83.707V62.5041H310.398V58.3699Z" fill="#CCCCCC"></path>
<path d="M153.137 5.63342C154.51 5.29347 155.884 4.97435 157.272 4.67603V116.935H153.137V5.63342Z" fill="#CCCCCC"></path>
<path d="M236.832 3.28149C238.213 3.53819 239.593 3.80183 240.967 4.08627V116.935H236.832V3.28149Z" fill="#CCCCCC"></path>
<path d="M336.237 302.63H64.7574C59.8225 302.63 55.0897 304.59 51.6002 308.08C48.1108 311.569 46.1504 316.302 46.1504 321.237C46.1504 326.172 48.1108 330.905 51.6002 334.394C55.0897 337.884 59.8225 339.844 64.7574 339.844H336.237C338.88 339.845 341.492 339.281 343.899 338.191C346.306 337.101 348.453 335.51 350.196 333.524C350.985 332.626 351.686 331.655 352.291 330.624C352.759 329.833 353.165 329.007 353.505 328.154C354.638 325.331 355.062 322.273 354.739 319.249C354.415 316.224 353.355 313.325 351.65 310.806C349.946 308.286 347.649 306.223 344.962 304.798C342.275 303.373 339.279 302.628 336.237 302.63Z" fill="#CCCCCC"></path>
<path d="M310.399 107.291H85.0859V121.072H310.399V107.291Z" fill="#CCCCCC"></path>
<path d="M195.675 103.157H199.809C200.805 103.157 201.79 103.353 202.71 103.734C203.629 104.115 204.465 104.673 205.169 105.377C205.872 106.08 206.431 106.916 206.812 107.836C207.193 108.755 207.389 109.741 207.389 110.736H188.096C188.096 108.726 188.894 106.798 190.316 105.377C191.737 103.955 193.665 103.157 195.675 103.157Z" fill="#CCCCCC"></path>
<path d="M353.76 329.777C347.733 336.919 341.215 343.63 334.252 349.862H66.7471C59.7841 343.63 53.2653 336.919 47.2383 329.777H353.76Z" fill="#3F3D56"></path>
<path d="M222.895 260.213H177.856C177.613 260.21 177.371 260.248 177.141 260.324C176.652 260.475 176.224 260.779 175.921 261.191C175.618 261.603 175.454 262.102 175.455 262.613V333.767H225.303V262.613C225.302 262.298 225.24 261.985 225.119 261.694C224.997 261.402 224.82 261.137 224.596 260.914C224.373 260.691 224.107 260.515 223.816 260.394C223.524 260.274 223.211 260.212 222.895 260.213ZM205.849 295.318C205.851 296.472 205.47 297.594 204.767 298.509C204.096 299.397 203.163 300.052 202.1 300.382C201.036 300.712 199.897 300.7 198.841 300.347C197.785 299.995 196.866 299.32 196.214 298.417C195.562 297.515 195.21 296.431 195.207 295.318V287.062C195.22 285.659 195.786 284.318 196.783 283.331C197.779 282.344 199.125 281.79 200.528 281.79C201.931 281.79 203.277 282.344 204.273 283.331C205.27 284.318 205.836 285.659 205.849 287.062V295.318Z" fill="#2F2E41"></path>
<path d="M175.303 331.491V338.352C175.303 338.708 175.443 339.049 175.694 339.302C175.945 339.554 176.286 339.697 176.642 339.698H224.116C224.472 339.695 224.812 339.552 225.062 339.3C225.313 339.048 225.454 338.708 225.455 338.352V331.491H175.303Z" fill="#3F3D56"></path>
<path d="M297.475 149.175H104.953C103.299 149.177 101.713 149.834 100.543 151.003C99.3723 152.173 98.7129 153.758 98.709 155.412V285.328C98.7103 286.983 99.3686 288.571 100.539 289.741C101.71 290.912 103.297 291.57 104.953 291.571H297.475C299.13 291.57 300.718 290.912 301.888 289.741C303.059 288.571 303.717 286.983 303.719 285.328V155.412C303.715 153.758 303.055 152.173 301.885 151.003C300.715 149.834 299.129 149.177 297.475 149.175Z" fill="#3F3D56"></path>
<path d="M295.865 153.684H106.556C105.67 153.686 104.821 154.039 104.196 154.666C103.57 155.293 103.219 156.143 103.219 157.028V283.725C103.22 284.609 103.572 285.457 104.198 286.083C104.823 286.708 105.671 287.06 106.556 287.062H295.865C296.75 287.06 297.598 286.708 298.223 286.083C298.849 285.457 299.201 284.609 299.202 283.725V157.028C299.202 156.143 298.851 155.293 298.225 154.666C297.6 154.039 296.751 153.686 295.865 153.684Z" fill="#EA4235"></path>
<path d="M261.024 339.587L259.276 331.283C259.204 330.944 259.048 330.629 258.822 330.366C258.597 330.103 258.309 329.901 257.986 329.777C257.751 329.686 257.502 329.638 257.25 329.639H148.113C147.861 329.638 147.612 329.686 147.378 329.777C147.054 329.901 146.767 330.103 146.541 330.366C146.316 330.629 146.16 330.944 146.087 331.283L144.339 339.587C144.276 339.889 144.281 340.201 144.353 340.5C144.426 340.799 144.564 341.079 144.758 341.318C144.952 341.557 145.197 341.75 145.475 341.883C145.753 342.015 146.057 342.085 146.365 342.085H258.992C259.301 342.086 259.606 342.018 259.885 341.885C260.164 341.751 260.409 341.556 260.601 341.315C260.796 341.076 260.935 340.798 261.008 340.499C261.081 340.2 261.087 339.889 261.024 339.587Z" fill="#2F2E41"></path>
<path d="M152.044 331.134H149.253C149.066 331.134 148.914 331.286 148.914 331.473V332.877C148.914 333.064 149.066 333.216 149.253 333.216H152.044C152.231 333.216 152.383 333.064 152.383 332.877V331.473C152.383 331.286 152.231 331.134 152.044 331.134Z" fill="#3F3D56"></path>
<path d="M158.982 331.134H156.19C156.003 331.134 155.852 331.286 155.852 331.473V332.877C155.852 333.064 156.003 333.216 156.19 333.216H158.982C159.169 333.216 159.32 333.064 159.32 332.877V331.473C159.32 331.286 159.169 331.134 158.982 331.134Z" fill="#3F3D56"></path>
<path d="M165.919 331.134H163.128C162.941 331.134 162.789 331.286 162.789 331.473V332.877C162.789 333.064 162.941 333.216 163.128 333.216H165.919C166.106 333.216 166.258 333.064 166.258 332.877V331.473C166.258 331.286 166.106 331.134 165.919 331.134Z" fill="#3F3D56"></path>
<path d="M172.857 331.134H170.065C169.878 331.134 169.727 331.286 169.727 331.473V332.877C169.727 333.064 169.878 333.216 170.065 333.216H172.857C173.044 333.216 173.195 333.064 173.195 332.877V331.473C173.195 331.286 173.044 331.134 172.857 331.134Z" fill="#3F3D56"></path>
<path d="M179.794 331.134H177.003C176.816 331.134 176.664 331.286 176.664 331.473V332.877C176.664 333.064 176.816 333.216 177.003 333.216H179.794C179.981 333.216 180.133 333.064 180.133 332.877V331.473C180.133 331.286 179.981 331.134 179.794 331.134Z" fill="#3F3D56"></path>
<path d="M186.732 331.134H183.94C183.753 331.134 183.602 331.286 183.602 331.473V332.877C183.602 333.064 183.753 333.216 183.94 333.216H186.732C186.919 333.216 187.07 333.064 187.07 332.877V331.473C187.07 331.286 186.919 331.134 186.732 331.134Z" fill="#3F3D56"></path>
<path d="M193.669 331.134H190.878C190.691 331.134 190.539 331.286 190.539 331.473V332.877C190.539 333.064 190.691 333.216 190.878 333.216H193.669C193.856 333.216 194.008 333.064 194.008 332.877V331.473C194.008 331.286 193.856 331.134 193.669 331.134Z" fill="#3F3D56"></path>
<path d="M200.607 331.134H197.815C197.628 331.134 197.477 331.286 197.477 331.473V332.877C197.477 333.064 197.628 333.216 197.815 333.216H200.607C200.794 333.216 200.945 333.064 200.945 332.877V331.473C200.945 331.286 200.794 331.134 200.607 331.134Z" fill="#3F3D56"></path>
<path d="M207.544 331.134H204.753C204.566 331.134 204.414 331.286 204.414 331.473V332.877C204.414 333.064 204.566 333.216 204.753 333.216H207.544C207.731 333.216 207.883 333.064 207.883 332.877V331.473C207.883 331.286 207.731 331.134 207.544 331.134Z" fill="#3F3D56"></path>
<path d="M214.484 331.134H211.692C211.505 331.134 211.354 331.286 211.354 331.473V332.877C211.354 333.064 211.505 333.216 211.692 333.216H214.484C214.671 333.216 214.822 333.064 214.822 332.877V331.473C214.822 331.286 214.671 331.134 214.484 331.134Z" fill="#3F3D56"></path>
<path d="M221.421 331.134H218.63C218.443 331.134 218.291 331.286 218.291 331.473V332.877C218.291 333.064 218.443 333.216 218.63 333.216H221.421C221.608 333.216 221.76 333.064 221.76 332.877V331.473C221.76 331.286 221.608 331.134 221.421 331.134Z" fill="#3F3D56"></path>
<path d="M228.359 331.134H225.567C225.38 331.134 225.229 331.286 225.229 331.473V332.877C225.229 333.064 225.38 333.216 225.567 333.216H228.359C228.546 333.216 228.697 333.064 228.697 332.877V331.473C228.697 331.286 228.546 331.134 228.359 331.134Z" fill="#3F3D56"></path>
<path d="M235.296 331.134H232.505C232.318 331.134 232.166 331.286 232.166 331.473V332.877C232.166 333.064 232.318 333.216 232.505 333.216H235.296C235.483 333.216 235.635 333.064 235.635 332.877V331.473C235.635 331.286 235.483 331.134 235.296 331.134Z" fill="#3F3D56"></path>
<path d="M242.234 331.134H239.442C239.255 331.134 239.104 331.286 239.104 331.473V332.877C239.104 333.064 239.255 333.216 239.442 333.216H242.234C242.421 333.216 242.572 333.064 242.572 332.877V331.473C242.572 331.286 242.421 331.134 242.234 331.134Z" fill="#3F3D56"></path>
<path d="M249.171 331.134H246.38C246.193 331.134 246.041 331.286 246.041 331.473V332.877C246.041 333.064 246.193 333.216 246.38 333.216H249.171C249.358 333.216 249.51 333.064 249.51 332.877V331.473C249.51 331.286 249.358 331.134 249.171 331.134Z" fill="#3F3D56"></path>
<path d="M256.109 331.134H253.317C253.13 331.134 252.979 331.286 252.979 331.473V332.877C252.979 333.064 253.13 333.216 253.317 333.216H256.109C256.296 333.216 256.447 333.064 256.447 332.877V331.473C256.447 331.286 256.296 331.134 256.109 331.134Z" fill="#3F3D56"></path>
<path d="M151.962 334.603H149.171C148.984 334.603 148.832 334.755 148.832 334.942V336.346C148.832 336.533 148.984 336.684 149.171 336.684H151.962C152.149 336.684 152.301 336.533 152.301 336.346V334.942C152.301 334.755 152.149 334.603 151.962 334.603Z" fill="#3F3D56"></path>
<path d="M158.9 334.603H156.108C155.921 334.603 155.77 334.755 155.77 334.942V336.346C155.77 336.533 155.921 336.684 156.108 336.684H158.9C159.087 336.684 159.238 336.533 159.238 336.346V334.942C159.238 334.755 159.087 334.603 158.9 334.603Z" fill="#3F3D56"></path>
<path d="M165.837 334.603H163.046C162.859 334.603 162.707 334.755 162.707 334.942V336.346C162.707 336.533 162.859 336.684 163.046 336.684H165.837C166.024 336.684 166.176 336.533 166.176 336.346V334.942C166.176 334.755 166.024 334.603 165.837 334.603Z" fill="#3F3D56"></path>
<path d="M172.775 334.603H169.983C169.796 334.603 169.645 334.755 169.645 334.942V336.346C169.645 336.533 169.796 336.684 169.983 336.684H172.775C172.962 336.684 173.113 336.533 173.113 336.346V334.942C173.113 334.755 172.962 334.603 172.775 334.603Z" fill="#3F3D56"></path>
<path d="M179.712 334.603H176.921C176.734 334.603 176.582 334.755 176.582 334.942V336.346C176.582 336.533 176.734 336.684 176.921 336.684H179.712C179.899 336.684 180.051 336.533 180.051 336.346V334.942C180.051 334.755 179.899 334.603 179.712 334.603Z" fill="#3F3D56"></path>
<path d="M186.65 334.603H183.858C183.671 334.603 183.52 334.755 183.52 334.942V336.346C183.52 336.533 183.671 336.684 183.858 336.684H186.65C186.837 336.684 186.988 336.533 186.988 336.346V334.942C186.988 334.755 186.837 334.603 186.65 334.603Z" fill="#3F3D56"></path>
<path d="M193.587 334.603H190.796C190.609 334.603 190.457 334.755 190.457 334.942V336.346C190.457 336.533 190.609 336.684 190.796 336.684H193.587C193.774 336.684 193.926 336.533 193.926 336.346V334.942C193.926 334.755 193.774 334.603 193.587 334.603Z" fill="#3F3D56"></path>
<path d="M200.525 334.603H197.733C197.546 334.603 197.395 334.755 197.395 334.942V336.346C197.395 336.533 197.546 336.684 197.733 336.684H200.525C200.712 336.684 200.863 336.533 200.863 336.346V334.942C200.863 334.755 200.712 334.603 200.525 334.603Z" fill="#3F3D56"></path>
<path d="M207.462 334.603H204.671C204.484 334.603 204.332 334.755 204.332 334.942V336.346C204.332 336.533 204.484 336.684 204.671 336.684H207.462C207.649 336.684 207.801 336.533 207.801 336.346V334.942C207.801 334.755 207.649 334.603 207.462 334.603Z" fill="#3F3D56"></path>
<path d="M214.402 334.603H211.61C211.423 334.603 211.271 334.755 211.271 334.942V336.346C211.271 336.533 211.423 336.684 211.61 336.684H214.402C214.589 336.684 214.74 336.533 214.74 336.346V334.942C214.74 334.755 214.589 334.603 214.402 334.603Z" fill="#3F3D56"></path>
<path d="M221.339 334.603H218.548C218.361 334.603 218.209 334.755 218.209 334.942V336.346C218.209 336.533 218.361 336.684 218.548 336.684H221.339C221.526 336.684 221.678 336.533 221.678 336.346V334.942C221.678 334.755 221.526 334.603 221.339 334.603Z" fill="#3F3D56"></path>
<path d="M228.277 334.603H225.485C225.298 334.603 225.146 334.755 225.146 334.942V336.346C225.146 336.533 225.298 336.684 225.485 336.684H228.277C228.464 336.684 228.615 336.533 228.615 336.346V334.942C228.615 334.755 228.464 334.603 228.277 334.603Z" fill="#3F3D56"></path>
<path d="M235.214 334.603H232.423C232.236 334.603 232.084 334.755 232.084 334.942V336.346C232.084 336.533 232.236 336.684 232.423 336.684H235.214C235.401 336.684 235.553 336.533 235.553 336.346V334.942C235.553 334.755 235.401 334.603 235.214 334.603Z" fill="#3F3D56"></path>
<path d="M242.152 334.603H239.36C239.173 334.603 239.021 334.755 239.021 334.942V336.346C239.021 336.533 239.173 336.684 239.36 336.684H242.152C242.339 336.684 242.49 336.533 242.49 336.346V334.942C242.49 334.755 242.339 334.603 242.152 334.603Z" fill="#3F3D56"></path>
<path d="M249.089 334.603H246.298C246.111 334.603 245.959 334.755 245.959 334.942V336.346C245.959 336.533 246.111 336.684 246.298 336.684H249.089C249.276 336.684 249.428 336.533 249.428 336.346V334.942C249.428 334.755 249.276 334.603 249.089 334.603Z" fill="#3F3D56"></path>
<path d="M256.027 334.603H253.235C253.048 334.603 252.896 334.755 252.896 334.942V336.346C252.896 336.533 253.048 336.684 253.235 336.684H256.027C256.214 336.684 256.365 336.533 256.365 336.346V334.942C256.365 334.755 256.214 334.603 256.027 334.603Z" fill="#3F3D56"></path>
<path d="M209.545 338.766H182.472C182.284 338.766 182.133 338.917 182.133 339.104V340.508C182.133 340.695 182.284 340.847 182.472 340.847H209.545C209.732 340.847 209.884 340.695 209.884 340.508V339.104C209.884 338.917 209.732 338.766 209.545 338.766Z" fill="#3F3D56"></path>
<path d="M286.353 171.137H109.216C109.032 171.133 108.857 171.057 108.728 170.926C108.599 170.794 108.527 170.617 108.527 170.433C108.527 170.249 108.599 170.072 108.728 169.94C108.857 169.809 109.032 169.733 109.216 169.729H286.353C286.537 169.733 286.712 169.809 286.841 169.94C286.97 170.072 287.042 170.249 287.042 170.433C287.042 170.617 286.97 170.794 286.841 170.926C286.712 171.057 286.537 171.133 286.353 171.137Z" fill="#3F3D56"></path>
<path d="M121.275 166.132C123.555 166.132 125.403 164.242 125.403 161.912C125.403 159.581 123.555 157.691 121.275 157.691C118.995 157.691 117.146 159.581 117.146 161.912C117.146 164.242 118.995 166.132 121.275 166.132Z" fill="#3F3D56"></path>
<path d="M135.536 166.132C137.816 166.132 139.665 164.242 139.665 161.912C139.665 159.581 137.816 157.691 135.536 157.691C133.256 157.691 131.408 159.581 131.408 161.912C131.408 164.242 133.256 166.132 135.536 166.132Z" fill="#3F3D56"></path>
<path d="M149.796 166.132C152.076 166.132 153.924 164.242 153.924 161.912C153.924 159.581 152.076 157.691 149.796 157.691C147.516 157.691 145.668 159.581 145.668 161.912C145.668 164.242 147.516 166.132 149.796 166.132Z" fill="#3F3D56"></path>
<path d="M277.765 158.735H267.636C267.435 158.74 267.245 158.822 267.105 158.966C266.965 159.109 266.887 159.301 266.887 159.501C266.887 159.702 266.965 159.894 267.105 160.037C267.245 160.181 267.435 160.263 267.636 160.268H277.765C277.966 160.265 278.158 160.183 278.3 160.04C278.441 159.896 278.521 159.703 278.521 159.501C278.521 159.3 278.441 159.107 278.3 158.963C278.158 158.82 277.966 158.738 277.765 158.735Z" fill="#3F3D56"></path>
<path d="M277.766 161.614H267.637C267.436 161.618 267.245 161.701 267.105 161.844C266.965 161.988 266.887 162.18 266.887 162.381C266.887 162.581 266.965 162.774 267.105 162.917C267.245 163.06 267.436 163.143 267.637 163.147H277.766C277.967 163.145 278.16 163.063 278.302 162.919C278.444 162.776 278.523 162.582 278.523 162.381C278.523 162.179 278.444 161.985 278.302 161.842C278.16 161.698 277.967 161.616 277.766 161.614Z" fill="#3F3D56"></path>
<path d="M277.765 164.493H267.636C267.435 164.498 267.245 164.581 267.105 164.724C266.965 164.867 266.887 165.059 266.887 165.26C266.887 165.46 266.965 165.652 267.105 165.796C267.245 165.939 267.435 166.022 267.636 166.026H277.765C277.966 166.024 278.158 165.942 278.3 165.798C278.441 165.655 278.521 165.461 278.521 165.26C278.521 165.058 278.441 164.865 278.3 164.721C278.158 164.578 277.966 164.496 277.765 164.493Z" fill="#3F3D56"></path>
<path d="M124.491 187.508H120.852C119.748 187.508 118.854 188.402 118.854 189.506C118.854 190.609 119.748 191.504 120.852 191.504H124.491C125.595 191.504 126.489 190.609 126.489 189.506C126.489 188.402 125.595 187.508 124.491 187.508Z" fill="#E6E6E6"></path>
<path d="M166.116 187.508H162.477C161.373 187.508 160.479 188.402 160.479 189.506C160.479 190.609 161.373 191.504 162.477 191.504H166.116C167.22 191.504 168.114 190.609 168.114 189.506C168.114 188.402 167.22 187.508 166.116 187.508Z" fill="#E6E6E6"></path>
<path d="M177.911 187.508H174.271C173.168 187.508 172.273 188.402 172.273 189.506C172.273 190.609 173.168 191.504 174.271 191.504H177.911C179.015 191.504 179.909 190.609 179.909 189.506C179.909 188.402 179.015 187.508 177.911 187.508Z" fill="#E6E6E6"></path>
<path d="M154.795 187.175H132.174C131.07 187.175 130.176 188.069 130.176 189.173C130.176 190.276 131.07 191.171 132.174 191.171H154.795C155.898 191.171 156.793 190.276 156.793 189.173C156.793 188.069 155.898 187.175 154.795 187.175Z" fill="#E6E6E6"></path>
<path d="M210.297 187.175H187.676C186.572 187.175 185.678 188.069 185.678 189.173C185.678 190.276 186.572 191.171 187.676 191.171H210.297C211.4 191.171 212.295 190.276 212.295 189.173C212.295 188.069 211.4 187.175 210.297 187.175Z" fill="#E6E6E6"></path>
<path d="M135.591 196.527H131.951C130.848 196.527 129.953 197.421 129.953 198.525C129.953 199.628 130.848 200.523 131.951 200.523H135.591C136.694 200.523 137.589 199.628 137.589 198.525C137.589 197.421 136.694 196.527 135.591 196.527Z" fill="#E6E6E6"></path>
<path d="M177.218 196.527H173.578C172.475 196.527 171.58 197.421 171.58 198.525C171.58 199.628 172.475 200.523 173.578 200.523H177.218C178.321 200.523 179.216 199.628 179.216 198.525C179.216 197.421 178.321 196.527 177.218 196.527Z" fill="#E6E6E6"></path>
<path d="M189.011 196.527H185.371C184.268 196.527 183.373 197.421 183.373 198.525C183.373 199.628 184.268 200.523 185.371 200.523H189.011C190.114 200.523 191.009 199.628 191.009 198.525C191.009 197.421 190.114 196.527 189.011 196.527Z" fill="#E6E6E6"></path>
<path d="M165.894 196.194H143.273C142.17 196.194 141.275 197.088 141.275 198.192C141.275 199.295 142.17 200.19 143.273 200.19H165.894C166.998 200.19 167.892 199.295 167.892 198.192C167.892 197.088 166.998 196.194 165.894 196.194Z" fill="#E6E6E6"></path>
<path d="M221.396 196.194H198.775C197.672 196.194 196.777 197.088 196.777 198.192C196.777 199.295 197.672 200.19 198.775 200.19H221.396C222.5 200.19 223.394 199.295 223.394 198.192C223.394 197.088 222.5 196.194 221.396 196.194Z" fill="#E6E6E6"></path>
<path d="M146.69 205.546H143.051C141.947 205.546 141.053 206.44 141.053 207.544C141.053 208.647 141.947 209.542 143.051 209.542H146.69C147.794 209.542 148.688 208.647 148.688 207.544C148.688 206.44 147.794 205.546 146.69 205.546Z" fill="#E6E6E6"></path>
<path d="M188.317 205.546H184.678C183.574 205.546 182.68 206.44 182.68 207.544C182.68 208.647 183.574 209.542 184.678 209.542H188.317C189.421 209.542 190.315 208.647 190.315 207.544C190.315 206.44 189.421 205.546 188.317 205.546Z" fill="#E6E6E6"></path>
<path d="M200.112 205.546H196.473C195.369 205.546 194.475 206.44 194.475 207.544C194.475 208.647 195.369 209.542 196.473 209.542H200.112C201.216 209.542 202.11 208.647 202.11 207.544C202.11 206.44 201.216 205.546 200.112 205.546Z" fill="#E6E6E6"></path>
<path d="M176.996 205.213H154.375C153.272 205.213 152.377 206.107 152.377 207.211C152.377 208.314 153.272 209.209 154.375 209.209H176.996C178.099 209.209 178.994 208.314 178.994 207.211C178.994 206.107 178.099 205.213 176.996 205.213Z" fill="#E6E6E6"></path>
<path d="M232.496 205.213H209.875C208.771 205.213 207.877 206.107 207.877 207.211C207.877 208.314 208.771 209.209 209.875 209.209H232.496C233.599 209.209 234.494 208.314 234.494 207.211C234.494 206.107 233.599 205.213 232.496 205.213Z" fill="#E6E6E6"></path>
<path d="M157.792 214.565H154.152C153.049 214.565 152.154 215.459 152.154 216.563C152.154 217.666 153.049 218.561 154.152 218.561H157.792C158.895 218.561 159.79 217.666 159.79 216.563C159.79 215.459 158.895 214.565 157.792 214.565Z" fill="#E6E6E6"></path>
<path d="M199.417 214.565H195.777C194.674 214.565 193.779 215.459 193.779 216.563C193.779 217.666 194.674 218.561 195.777 218.561H199.417C200.52 218.561 201.415 217.666 201.415 216.563C201.415 215.459 200.52 214.565 199.417 214.565Z" fill="#E6E6E6"></path>
<path d="M211.212 214.565H207.572C206.469 214.565 205.574 215.459 205.574 216.563C205.574 217.666 206.469 218.561 207.572 218.561H211.212C212.315 218.561 213.21 217.666 213.21 216.563C213.21 215.459 212.315 214.565 211.212 214.565Z" fill="#E6E6E6"></path>
<path d="M188.096 214.232H165.475C164.371 214.232 163.477 215.126 163.477 216.23C163.477 217.333 164.371 218.228 165.475 218.228H188.096C189.199 218.228 190.094 217.333 190.094 216.23C190.094 215.126 189.199 214.232 188.096 214.232Z" fill="#E6E6E6"></path>
<path d="M166.116 250.428H162.477C161.373 250.428 160.479 251.323 160.479 252.427C160.479 253.53 161.373 254.425 162.477 254.425H166.116C167.22 254.425 168.114 253.53 168.114 252.427C168.114 251.323 167.22 250.428 166.116 250.428Z" fill="#E6E6E6"></path>
<path d="M177.911 250.428H174.271C173.168 250.428 172.273 251.323 172.273 252.427C172.273 253.53 173.168 254.425 174.271 254.425H177.911C179.015 254.425 179.909 253.53 179.909 252.427C179.909 251.323 179.015 250.428 177.911 250.428Z" fill="#E6E6E6"></path>
<path d="M210.297 250.762H187.676C186.572 250.762 185.678 251.656 185.678 252.76C185.678 253.863 186.572 254.758 187.676 254.758H210.297C211.4 254.758 212.295 253.863 212.295 252.76C212.295 251.656 211.4 250.762 210.297 250.762Z" fill="#E6E6E6"></path>
<path d="M124.491 250.428H120.852C119.748 250.428 118.854 251.323 118.854 252.427C118.854 253.53 119.748 254.425 120.852 254.425H124.491C125.595 254.425 126.489 253.53 126.489 252.427C126.489 251.323 125.595 250.428 124.491 250.428Z" fill="#E6E6E6"></path>
<path d="M154.795 250.762H132.174C131.07 250.762 130.176 251.656 130.176 252.76C130.176 253.863 131.07 254.758 132.174 254.758H154.795C155.898 254.758 156.793 253.863 156.793 252.76C156.793 251.656 155.898 250.762 154.795 250.762Z" fill="#E6E6E6"></path>
<path d="M135.591 241.409H131.951C130.848 241.409 129.953 242.304 129.953 243.407C129.953 244.511 130.848 245.405 131.951 245.405H135.591C136.694 245.405 137.589 244.511 137.589 243.407C137.589 242.304 136.694 241.409 135.591 241.409Z" fill="#E6E6E6"></path>
<path d="M177.218 241.409H173.578C172.475 241.409 171.58 242.304 171.58 243.407C171.58 244.511 172.475 245.405 173.578 245.405H177.218C178.321 245.405 179.216 244.511 179.216 243.407C179.216 242.304 178.321 241.409 177.218 241.409Z" fill="#E6E6E6"></path>
<path d="M189.011 241.409H185.371C184.268 241.409 183.373 242.304 183.373 243.407C183.373 244.511 184.268 245.405 185.371 245.405H189.011C190.114 245.405 191.009 244.511 191.009 243.407C191.009 242.304 190.114 241.409 189.011 241.409Z" fill="#E6E6E6"></path>
<path d="M165.894 241.743H143.273C142.17 241.743 141.275 242.637 141.275 243.741C141.275 244.844 142.17 245.739 143.273 245.739H165.894C166.998 245.739 167.892 244.844 167.892 243.741C167.892 242.637 166.998 241.743 165.894 241.743Z" fill="#E6E6E6"></path>
<path d="M146.69 232.39H143.051C141.947 232.39 141.053 233.285 141.053 234.388C141.053 235.492 141.947 236.386 143.051 236.386H146.69C147.794 236.386 148.688 235.492 148.688 234.388C148.688 233.285 147.794 232.39 146.69 232.39Z" fill="#E6E6E6"></path>
<path d="M188.317 232.39H184.678C183.574 232.39 182.68 233.285 182.68 234.388C182.68 235.492 183.574 236.386 184.678 236.386H188.317C189.421 236.386 190.315 235.492 190.315 234.388C190.315 233.285 189.421 232.39 188.317 232.39Z" fill="#E6E6E6"></path>
<path d="M200.112 232.39H196.473C195.369 232.39 194.475 233.285 194.475 234.388C194.475 235.492 195.369 236.386 196.473 236.386H200.112C201.216 236.386 202.11 235.492 202.11 234.388C202.11 233.285 201.216 232.39 200.112 232.39Z" fill="#E6E6E6"></path>
<path d="M176.996 232.724H154.375C153.272 232.724 152.377 233.618 152.377 234.722C152.377 235.825 153.272 236.72 154.375 236.72H176.996C178.099 236.72 178.994 235.825 178.994 234.722C178.994 233.618 178.099 232.724 176.996 232.724Z" fill="#E6E6E6"></path>
<path d="M157.792 223.371H154.152C153.049 223.371 152.154 224.266 152.154 225.369C152.154 226.473 153.049 227.367 154.152 227.367H157.792C158.895 227.367 159.79 226.473 159.79 225.369C159.79 224.266 158.895 223.371 157.792 223.371Z" fill="#E6E6E6"></path>
<path d="M199.417 223.371H195.777C194.674 223.371 193.779 224.266 193.779 225.369C193.779 226.473 194.674 227.367 195.777 227.367H199.417C200.52 227.367 201.415 226.473 201.415 225.369C201.415 224.266 200.52 223.371 199.417 223.371Z" fill="#E6E6E6"></path>
<path d="M211.212 223.371H207.572C206.469 223.371 205.574 224.266 205.574 225.369C205.574 226.473 206.469 227.367 207.572 227.367H211.212C212.315 227.367 213.21 226.473 213.21 225.369C213.21 224.266 212.315 223.371 211.212 223.371Z" fill="#E6E6E6"></path>
<path d="M188.096 223.705H165.475C164.371 223.705 163.477 224.599 163.477 225.703C163.477 226.806 164.371 227.701 165.475 227.701H188.096C189.199 227.701 190.094 226.806 190.094 225.703C190.094 224.599 189.199 223.705 188.096 223.705Z" fill="#E6E6E6"></path>
<path d="M288.478 380.721C288.054 380.936 287.624 381.151 287.201 381.359C276.239 386.84 267.47 389.955 255.475 393.368C254.462 382.06 253.484 362.183 252.533 349.862C252.284 346.664 252.034 343.979 251.791 342.085C251.73 341.078 251.524 340.085 251.18 339.136L251.222 342.085L251.326 349.862L251.93 394.34C237.008 398.288 221.681 400.497 206.252 400.924C205.447 400.944 204.656 400.958 203.893 400.972C203.622 400.979 203.359 400.986 203.095 400.986C202.228 400.993 201.368 401 200.5 401C184.241 401.012 168.041 399.048 152.256 395.151C152.596 383.961 152.935 364.306 153.262 349.862C153.331 347.038 153.393 344.409 153.463 342.085C153.595 337.117 153.733 333.538 153.865 332.337C153.748 332.55 153.657 332.776 153.595 333.01C152.952 336.002 152.514 339.034 152.283 342.085C152.04 344.409 151.798 347.038 151.555 349.862C150.264 364.868 148.919 385.272 147.531 393.923C139.272 391.669 131.168 388.881 123.27 385.577C119.107 383.843 115.019 381.972 111.004 379.965C111.767 374.97 112.565 369.371 113.384 363.564C114.022 359.061 114.681 354.434 115.354 349.862C116.395 342.799 117.463 335.876 118.545 329.777C120.127 320.869 121.75 313.71 123.36 310.421C124.886 307.299 126.413 304.219 127.89 301.27C128.404 300.236 128.917 299.217 129.417 298.225C129.535 297.989 129.652 297.76 129.77 297.531C130.832 295.443 131.859 293.444 132.837 291.571C133.676 289.969 134.474 288.456 135.23 287.062C137.062 283.676 138.616 280.977 139.768 279.271C144.583 271.967 151.75 266.53 160.081 263.862L160.289 263.807L160.435 263.869L174.623 259.512L176.697 258.874L178.092 258.444L183.004 254.704L185.675 252.672L188.179 250.764L193.077 247.038L223.402 248.904L229.306 263.12L242.529 267.955L242.758 267.851L242.959 267.768L243.167 267.823C251.497 270.494 258.664 275.931 263.481 283.232C264.133 284.21 264.924 285.501 265.819 287.062C266.582 288.387 267.415 289.899 268.317 291.571C269.6 293.951 271.002 296.636 272.486 299.543C272.812 300.181 273.145 300.833 273.478 301.492C274.096 302.713 274.722 303.96 275.358 305.232C276.836 308.18 278.362 311.26 279.889 314.389C281.214 317.102 282.553 322.68 283.871 329.777C284.96 335.674 286.042 342.626 287.09 349.862C288.464 359.242 287 370.474 288.242 379.104C288.318 379.653 288.401 380.187 288.478 380.721Z" fill="#3F3D56"></path>
<path d="M200.927 235.691C220.406 235.691 236.196 219.901 236.196 200.422C236.196 180.944 220.406 165.154 200.927 165.154C181.449 165.154 165.658 180.944 165.658 200.422C165.658 219.901 181.449 235.691 200.927 235.691Z" fill="#A0616A"></path>
<path d="M259.09 153.684C258.393 152.057 257.465 150.538 256.336 149.175C250.98 142.632 241.239 139.753 231.242 147.496C229.317 147.066 227.311 147.181 225.449 147.829C224.57 148.147 223.746 148.601 223.007 149.175C221.493 150.356 220.312 151.91 219.58 153.684C219.188 154.622 218.931 155.61 218.816 156.619C216.345 155.335 213.73 154.35 211.025 153.684C204.39 152.034 197.451 152.034 190.816 153.684C188.689 154.222 186.642 155.034 184.724 156.099C181.478 157.972 179.611 160.338 179.278 162.967C174.595 163.231 169.725 165.693 166.097 169.731C165.687 170.182 165.292 170.654 164.924 171.14C161.873 175.132 160.233 180.025 160.262 185.05V185.931H161.143C163.557 185.928 165.949 186.395 168.185 187.304C169.634 187.886 171.006 188.644 172.271 189.559C173.099 190.146 173.88 190.796 174.609 191.502C176.299 193.138 177.731 195.021 178.855 197.087C181.738 202.307 182.737 208.36 181.686 214.23C181.445 215.588 181.092 216.925 180.631 218.226C179.976 220.082 179.112 221.858 178.057 223.519C178.016 223.582 177.981 223.644 177.939 223.707C177.475 224.449 177.031 225.205 176.614 225.968C176.302 226.537 176.011 227.12 175.74 227.703C174.949 229.325 174.281 231.004 173.742 232.726C172.777 235.771 172.208 238.928 172.049 242.119C172.001 242.966 171.987 243.812 172.015 244.659C172.056 246.84 172.295 249.014 172.729 251.152C172.792 251.444 172.854 251.728 172.916 252.019L173.423 254.233L174.623 259.512L175.456 263.148L176.226 266.519L177.364 264.889C177.752 264.334 178.73 262.627 180.042 260.213C180.909 258.638 181.915 256.758 183.004 254.704C184.523 251.825 186.188 248.613 187.819 245.408C188.478 244.11 189.13 242.82 189.761 241.557C190.955 239.164 192.078 236.854 193.043 234.8C193.931 232.906 194.687 231.227 195.249 229.881C195.422 230.762 195.568 231.657 195.679 232.559C195.804 233.475 195.894 234.405 195.943 235.334C195.957 235.473 195.964 235.619 195.971 235.757L195.998 236.326L196.005 236.493L196.741 236.59C200.982 237.044 205.258 237.077 209.506 236.687H209.513C215.14 236.263 220.661 234.925 225.858 232.726C228.81 231.445 231.566 229.754 234.045 227.703C235.203 226.744 236.284 225.695 237.278 224.567C237.527 224.283 237.77 223.998 238.006 223.707C239.379 222.019 240.555 220.18 241.51 218.226C242.149 216.936 242.692 215.6 243.133 214.23C245.797 206.161 245.645 196.095 242.675 184.134C243.477 183.979 244.245 183.683 244.944 183.26C247.122 181.949 248.635 179.347 249.106 176.169L249.856 176.371C252.512 175.133 254.878 173.351 256.8 171.14C257.181 170.689 257.538 170.219 257.869 169.731C261.261 164.736 261.289 158.742 259.09 153.684Z" fill="#2F2E41"></path>
<path opacity="0.2" d="M143.139 329.747L149.034 306.997L154.239 326.628L143.139 329.747Z" fill="black"></path>
<path d="M300.007 314.924C297.898 343.979 300.083 356.772 288.442 380.728C277.85 385.912 266.817 390.143 255.474 393.369C254.294 393.702 253.113 394.025 251.929 394.34C237.007 398.288 221.68 400.497 206.251 400.924C205.446 400.945 204.655 400.958 203.892 400.972C203.621 400.979 203.358 400.986 203.094 400.986C202.227 400.993 201.367 401 200.499 401C184.24 401.012 168.04 399.048 152.255 395.152C150.673 394.763 149.098 394.354 147.53 393.924C139.271 391.669 131.167 388.881 123.269 385.578C119.106 383.843 115.018 381.972 111.003 379.965C110.094 379.507 109.185 379.049 108.29 378.577C103.691 370.488 101.075 360.65 101.02 348.828C104.204 328.459 292.972 297.358 300.007 314.924Z" fill="#2F2E41"></path>
<path opacity="0.2" d="M300.002 319.9C300.11 318.101 300.23 316.243 300.37 314.308C293.336 296.742 104.567 327.843 101.383 348.212C101.392 350.08 101.471 351.892 101.606 353.662C109.317 333.557 288.65 303.997 300.002 319.9Z" fill="black"></path>
<path d="M113.151 237.375C113.197 236.746 113.108 236.115 112.889 235.523C112.671 234.931 112.328 234.393 111.884 233.945C111.44 233.497 110.905 233.15 110.316 232.926C109.726 232.702 109.096 232.607 108.466 232.647C108.232 232.656 107.998 232.685 107.769 232.734L80.1831 238.966C79.5667 239.115 78.9884 239.392 78.4855 239.779C77.9826 240.165 77.5663 240.653 77.2632 241.21C76.8587 241.225 76.4569 241.284 76.0648 241.384C75.2064 241.579 74.3947 241.941 73.676 242.449C72.9574 242.957 72.3459 243.602 71.8765 244.347C71.4071 245.091 71.0889 245.921 70.9401 246.789C70.7914 247.656 70.815 248.545 71.0096 249.403C71.2041 250.261 71.5659 251.073 72.0742 251.792C72.5825 252.51 73.2273 253.122 73.9719 253.591C75.4757 254.539 77.2945 254.851 79.0282 254.458C80.015 254.229 80.9382 253.783 81.7301 253.151L91.078 279.473C91.5449 280.298 92.2663 280.95 93.1343 281.331C94.0022 281.712 94.9702 281.801 95.8935 281.587L113.827 277.534C114.743 277.319 115.567 276.82 116.182 276.107C116.797 275.395 117.17 274.506 117.247 273.568L113.151 237.375ZM78.6142 252.584C77.376 252.864 76.0776 252.641 75.0036 251.964C73.9297 251.288 73.1679 250.213 72.8852 248.975C72.6025 247.738 72.8221 246.439 73.4958 245.363C74.1694 244.287 75.2422 243.523 76.4788 243.237C76.5659 243.215 76.6532 243.237 76.7403 243.215C76.7337 244.009 76.9367 244.79 77.3287 245.481L80.7496 251.451C80.1541 252.016 79.4158 252.408 78.6142 252.584Z" fill="#2F2E41"></path>
<path d="M108.466 232.646C108.727 236.133 102.757 240.142 94.7603 241.733C87.417 243.236 80.8366 242.19 78.9844 239.445C79.3567 239.224 79.761 239.062 80.1829 238.966L107.769 232.734C107.998 232.685 108.232 232.655 108.466 232.646Z" fill="#3F3D56"></path>
<path d="M89.3881 321.15L104.883 313.403L91.9705 278.541L88.5676 260.959C88.1255 258.675 87.0917 256.547 85.5694 254.787C84.0472 253.028 82.0898 251.699 79.893 250.933C77.6961 250.167 75.3367 249.991 73.0505 250.422C70.7643 250.854 68.6314 251.878 66.8649 253.392C64.2473 255.636 62.6037 258.809 62.281 262.241C61.9584 265.674 62.982 269.097 65.1357 271.79L77.7673 287.579L89.3881 321.15Z" fill="#A0616A"></path>
<path d="M104.882 306.947L84.2227 317.277L99.9009 366.402C101.027 369.93 103.045 373.107 105.76 375.625C108.475 378.143 111.794 379.917 115.397 380.775C119.838 381.832 124.502 381.448 128.71 379.677C132.919 377.906 136.454 374.84 138.803 370.925L180.377 299.665C183.323 294.755 184.233 288.887 182.911 283.315C181.589 277.743 178.141 272.909 173.304 269.845C170.702 268.198 167.782 267.116 164.734 266.671C161.687 266.226 158.58 266.428 155.615 267.264C152.651 268.099 149.896 269.549 147.529 271.52C145.162 273.491 143.237 275.937 141.878 278.701L116.503 332.771L104.882 306.947Z" fill="#3F3D56"></path>
<path d="M98.4923 262.552C98.4539 262.552 98.4158 262.545 98.3795 262.533L93.869 260.98C93.8145 260.961 93.7655 260.929 93.7264 260.887C93.6874 260.845 93.6596 260.793 93.6454 260.738C93.6312 260.682 93.6312 260.623 93.6454 260.567C93.6595 260.512 93.6873 260.46 93.7264 260.418L97.0811 256.765C97.1118 256.731 97.1489 256.704 97.1902 256.685C97.2315 256.665 97.2763 256.654 97.3219 256.652C97.3675 256.65 97.4131 256.657 97.456 256.673C97.4989 256.688 97.5383 256.712 97.572 256.743C97.6056 256.774 97.6328 256.811 97.652 256.853C97.6712 256.894 97.6821 256.939 97.6839 256.984C97.6858 257.03 97.6786 257.076 97.6628 257.118C97.647 257.161 97.6229 257.201 97.5919 257.234L94.5956 260.496L98.6051 261.877C98.6827 261.904 98.7484 261.957 98.7904 262.028C98.8323 262.098 98.848 262.181 98.8344 262.262C98.8209 262.343 98.7791 262.417 98.7165 262.47C98.6538 262.523 98.5744 262.552 98.4923 262.552Z" fill="#6C63FF"></path>
<path d="M104.675 261.286C104.606 261.286 104.538 261.266 104.481 261.227C104.424 261.188 104.379 261.134 104.353 261.069C104.327 261.005 104.321 260.935 104.336 260.868C104.35 260.8 104.384 260.738 104.434 260.69L107.483 257.742L103.387 256.055C103.345 256.037 103.307 256.012 103.274 255.98C103.242 255.948 103.216 255.909 103.199 255.867C103.181 255.825 103.172 255.78 103.172 255.735C103.172 255.689 103.181 255.644 103.198 255.602C103.215 255.56 103.241 255.521 103.273 255.489C103.305 255.457 103.344 255.431 103.386 255.414C103.428 255.396 103.473 255.387 103.518 255.387C103.564 255.387 103.609 255.396 103.651 255.414L108.237 257.303C108.29 257.325 108.337 257.36 108.373 257.404C108.41 257.449 108.435 257.502 108.445 257.559C108.456 257.615 108.453 257.674 108.435 257.728C108.418 257.783 108.387 257.833 108.346 257.873L104.916 261.189C104.852 261.251 104.765 261.286 104.675 261.286Z" fill="#6C63FF"></path>
<path d="M99.4388 264.674C99.4042 264.674 99.3698 264.669 99.3369 264.658C99.2933 264.645 99.2528 264.623 99.2177 264.594C99.1825 264.565 99.1534 264.529 99.1321 264.489C99.1108 264.449 99.0976 264.405 99.0933 264.359C99.089 264.314 99.0938 264.268 99.1072 264.225L102.309 253.818C102.336 253.73 102.397 253.657 102.478 253.614C102.56 253.572 102.655 253.563 102.742 253.59C102.83 253.617 102.904 253.678 102.947 253.759C102.99 253.84 102.999 253.935 102.972 254.023L99.7705 264.429C99.7486 264.5 99.7045 264.562 99.6449 264.606C99.5852 264.65 99.513 264.674 99.4388 264.674Z" fill="#6C63FF"></path>
</g>
<defs>
<clipPath id="clip0_331_1137">
<rect width="401" height="401" fill="white"></rect>
</clipPath>
</defs>
</svg>
